<?xml version="1.0" standalone="no"?>
<!DOCTYPE svg PUBLIC "-//W3C//DTD SVG 1.1//EN" "http://www.w3.org/Graphics/SVG/1.1/DTD/svg11.dtd" >
<svg xmlns="http://www.w3.org/2000/svg" xmlns:xlink="http://www.w3.org/1999/xlink" version="1.1">
<metadata>
Created by FontForge 20170731 at Fri Jan  3 06:34:24 2014
 By Aleksey,,,
Copyright (c)2013 Commercial Type.
</metadata>
<defs>
<font id="Portrait-Bold" horiz-adv-x="400" >
  <font-face 
    font-family="Portrait Bold"
    font-weight="700"
    font-stretch="normal"
    units-per-em="1000"
    panose-1="2 0 0 0 0 0 0 0 0 0"
    ascent="730"
    descent="-270"
    x-height="431"
    cap-height="662"
    bbox="-46 -268 1297 1023"
    underline-thickness="34"
    underline-position="20"
    unicode-range="U+000D-FB04"
  />
<missing-glyph horiz-adv-x="200" 
 />
    <glyph glyph-name="f_b" unicode="fb" horiz-adv-x="823" 
d="M277 6v-6h-263v6l56 50v306h-74v6l74 57v28q0 115 83 189t205 74q71 0 137 -16v-319q76 62 138 62q64 0 114 -50.5t50 -143.5q0 -85 -39.5 -145t-94 -85.5t-115.5 -25.5q-17 0 -84 3.5t-100 3.5h-5v644q-26 11 -46 11q-43 0 -75.5 -37.5t-32.5 -108.5v-81h126l-45 -66
h-81v-305zM552 361q-35 0 -57 -17v-278q23 -17 54 -17q48 0 78.5 44t30.5 115q0 70 -28 111.5t-78 41.5z" />
    <glyph glyph-name="f_f_b" unicode="ffb" horiz-adv-x="1100" 
d="M267 6v-6h-253v6l56 50v306h-74v6l74 57v25q0 112 78.5 187.5t185.5 75.5q34 0 74 -8l-40 -89q-60 36 -91 36q-24 0 -48.5 -38t-24.5 -108v-78h143v25q0 115 83 189t205 74q71 0 137 -16v-319q76 62 138 62q64 0 114 -50.5t50 -143.5q0 -85 -39.5 -145t-94 -85.5
t-115.5 -25.5q-17 0 -84 3.5t-100 3.5h-5v644q-26 11 -46 11q-43 0 -75.5 -37.5t-32.5 -108.5v-81h126l-44 -66h-82v-305l72 -51v-6h-263v6l56 50v306h-143v-305zM829 361q-37 0 -56 -17v-278q23 -17 53 -17q48 0 78.5 44t30.5 115q0 70 -28 111.5t-78 41.5z" />
    <glyph glyph-name="f_f_h" unicode="ffh" horiz-adv-x="1123" 
d="M267 6v-6h-253v6l56 50v306h-74v6l74 57v25q0 112 78.5 187.5t185.5 75.5q34 0 74 -8l-40 -89q-60 36 -91 36q-24 0 -48.5 -38t-24.5 -108v-78h143v25q0 115 83 189t205 74q72 0 136 -16v-334q81 77 152 77q59 0 97 -36t38 -69v-282l55 -50v-6h-243v6l53 50v243
q0 23 -19.5 40.5t-55.5 17.5q-43 0 -77 -31v-270l56 -50v-6h-245v6l54 50v588q-26 11 -46 11q-43 0 -75.5 -37.5t-32.5 -108.5v-81h126l-44 -66h-82v-305l72 -51v-6h-263v6l56 50v306h-143v-305z" />
    <glyph glyph-name="f_f_j" unicode="ffj" horiz-adv-x="807" 
d="M267 6v-6h-253v6l56 50v306h-74v6l74 57v25q0 112 78.5 187.5t185.5 75.5q34 0 74 -8l-40 -89q-60 36 -91 36q-24 0 -48.5 -38t-24.5 -108v-78h143v25q0 113 81.5 188t197.5 75q51 0 108 -15l-44 -108q-93 61 -126 61q-25 0 -53.5 -39t-28.5 -108v-79h202q12 4 34 10
t34 9v-402q0 -47 -44 -126t-141 -157l-9 8q59 126 59 267v325h-135v-305l63 -51v-6h-254v6l56 50v306h-143v-305z" />
    <glyph glyph-name="f_f_k" unicode="ffk" horiz-adv-x="1101" 
d="M267 6v-6h-253v6l56 50v306h-74v6l74 57v25q0 112 78.5 187.5t185.5 75.5q34 0 74 -8l-40 -89q-60 36 -91 36q-24 0 -48.5 -38t-24.5 -108v-78h143v25q0 115 83 189t205 74q72 0 136 -16v-644l56 -50v-6h-245v6l54 50v588q-26 11 -46 11q-43 0 -75.5 -37.5t-32.5 -108.5
v-81h126l-44 -66h-82v-305l72 -51v-6h-263v6l56 50v306h-143v-305zM783 215v6l112 147l-59 57v6h241v-7l-105 -57l-82 -86l106 -153q59 -87 104 -122v-6q-45 -12 -83 -12q-49 0 -78 19.5t-63 70.5z" />
    <glyph glyph-name="f_h" unicode="fh" horiz-adv-x="845" 
d="M305 0v6l54 50v588q-26 11 -46 11q-43 0 -75.5 -37.5t-32.5 -108.5v-81h126l-45 -66h-81v-305l72 -51v-6h-263v6l56 50v306h-74v6l74 57v28q0 115 83 189t205 74q70 0 136 -16v-334q81 77 152 77q59 0 97 -36t38 -69v-282l55 -50v-6h-243v6l53 50v243q0 23 -19.5 40.5
t-55.5 17.5q-43 0 -77 -31v-270l56 -50v-6h-245z" />
    <glyph glyph-name="f_j" unicode="fj" horiz-adv-x="529" 
d="M287 654q-25 0 -53.5 -39t-28.5 -108v-79h202q12 4 34.5 10t33.5 9v-402q0 -28 -14.5 -67.5t-59 -100.5t-112.5 -115l-8 8q59 134 59 267v325h-135v-305l63 -51v-6h-254v6l56 50v306h-74v6l74 57v28q0 113 81.5 188t197.5 75q51 0 108 -15l-44 -108q-97 61 -126 61z" />
    <glyph glyph-name="f_k" unicode="fk" horiz-adv-x="824" 
d="M277 6v-6h-263v6l56 50v306h-74v6l74 57v28q0 115 83 189t205 74q70 0 136 -16v-644l56 -50v-6h-245v6l54 50v588q-26 11 -46 11q-43 0 -75.5 -37.5t-32.5 -108.5v-81h126l-45 -66h-81v-305zM506 215v6l112 147l-59 57v6h240v-7l-103 -56l-83 -87l105 -153
q62 -88 105 -122v-6q-45 -12 -84 -12q-48 0 -77 20t-63 70z" />
    <glyph glyph-name="g_g" unicode="gg" horiz-adv-x="933" 
d="M485 305q0 58 53.5 99t135.5 41q47 0 91 -14h155v-56h-83q29 -32 29 -66q0 -62 -49.5 -103t-142.5 -41q-30 0 -57 6q-20 -20 -20 -38q0 -28 28 -28h186q30 0 67 -36t37 -96q0 -90 -79 -158.5t-191 -68.5q-81 0 -127 29.5t-46 70.5q0 33 29.5 72.5t66.5 68.5
q-32 11 -52.5 36t-20.5 62q0 36 15 51l70 46q-95 39 -95 123zM30 305q0 58 53.5 99t135.5 41q47 0 91 -14h149v-56h-77q29 -32 29 -66q0 -62 -49.5 -103t-142.5 -41q-31 0 -60 6q-20 -20 -20 -38q0 -28 28 -28h184q30 0 67 -36t37 -96q0 -90 -79 -158.5t-191 -68.5
q-80 0 -126 29.5t-46 70.5q0 33 30 73t66 68q-72 28 -72 98q0 36 15 51l71 47q-93 39 -93 122zM602 -21q-13 -13 -24.5 -37.5t-11.5 -46.5q0 -28 30.5 -48t87.5 -20t95.5 28t38.5 67q0 28 -20 42.5t-45 14.5h-151zM142 -21q-13 -13 -24 -37.5t-11 -46.5q0 -27 31 -47.5
t87 -20.5q57 0 95 27.5t38 67.5q0 28 -20 42.5t-45 14.5h-151zM611 305q0 -38 20 -66t45 -28q27 0 45.5 27.5t18.5 66.5t-18.5 67t-45.5 28t-46 -28t-19 -67zM156 305q0 -38 20 -66t45 -28q27 0 45.5 27.5t18.5 66.5t-18.5 67t-45.5 28t-46 -28t-19 -67z" />
    <glyph glyph-name="f_f" unicode="ff" horiz-adv-x="617" 
d="M267 6v-6h-253v6l56 50v306h-74v6l74 57v25q0 112 78.5 187.5t185.5 75.5q34 0 74 -8l-40 -89q-60 36 -91 36q-24 0 -48.5 -38t-24.5 -108v-78h144v25q0 113 81.5 188t199.5 75q57 0 103 -12l-42 -98q-83 48 -122 48q-29 0 -57.5 -38t-28.5 -109v-79h147l-47 -66h-100
v-301l94 -55v-6h-283v6l55 50v306h-144v-305z" />
    <glyph glyph-name="f_i" unicode="fi" horiz-adv-x="551" 
d="M268 6v-6h-254v6l56 50v306h-74v6l74 57v28q0 114 82 188.5t201 74.5q55 0 114 -18l-45 -108q-97 64 -132 64q-27 0 -56 -38.5t-29 -108.5v-79h213l65 18v-390l56 -50v-6h-245v6l54 50v306h-143v-305z" />
    <glyph glyph-name="f_l" unicode="fl" horiz-adv-x="562" 
d="M359 644q-26 11 -46 11q-43 0 -75.5 -37.5t-32.5 -108.5v-81h126l-45 -66h-81v-305l72 -51v-6h-263v6l56 50v306h-74v6l74 57v28q0 115 83 189t205 74q70 0 136 -16v-644l56 -50v-6h-245v6l54 50v588z" />
    <glyph glyph-name="f_f_i" unicode="ffi" horiz-adv-x="828" 
d="M267 6v-6h-253v6l56 50v306h-74v6l74 57v25q0 112 78.5 187.5t185.5 75.5q34 0 74 -8l-40 -89q-60 36 -91 36q-24 0 -48.5 -38t-24.5 -108v-78h143v25q0 114 82 188.5t201 74.5q60 0 114 -18l-45 -108q-97 64 -132 64q-27 0 -56 -38.5t-29 -108.5v-79h213l65 18v-390
l56 -50v-6h-245v6l54 50v306h-143v-305l63 -51v-6h-254v6l56 50v306h-143v-305z" />
    <glyph glyph-name="f_f_l" unicode="ffl" horiz-adv-x="839" 
d="M267 6v-6h-253v6l56 50v306h-74v6l74 57v25q0 112 78.5 187.5t185.5 75.5q34 0 74 -8l-40 -89q-60 36 -91 36q-24 0 -48.5 -38t-24.5 -108v-78h143v25q0 115 83 189t205 74q72 0 136 -16v-644l56 -50v-6h-245v6l54 50v588q-26 11 -46 11q-43 0 -75.5 -37.5t-32.5 -108.5
v-81h126l-44 -66h-82v-305l72 -51v-6h-263v6l56 50v306h-143v-305z" />
    <glyph glyph-name=".notdef" horiz-adv-x="200" 
 />
    <glyph glyph-name=".null" horiz-adv-x="0" 
 />
    <glyph glyph-name="nonmarkingreturn" horiz-adv-x="333" 
 />
    <glyph glyph-name="NULL" horiz-adv-x="0" 
 />
    <glyph glyph-name="NULL" horiz-adv-x="0" 
 />
    <glyph glyph-name="CR" unicode="&#xd;" horiz-adv-x="200" 
 />
    <glyph glyph-name="space" unicode=" " horiz-adv-x="200" 
 />
    <glyph glyph-name="exclam" unicode="!" horiz-adv-x="237" 
d="M197 662q-7 -45 -19.5 -128t-27.5 -186t-21 -145h-21q-6 42 -21 145.5t-27.5 186t-19.5 127.5h157zM45 59q0 32 21 52.5t53 20.5t53 -20.5t21 -52.5q0 -31 -21 -52t-53 -21t-53 21t-21 52z" />
    <glyph glyph-name="quotedbl" unicode="&#x22;" horiz-adv-x="328" 
d="M290 633q0 -18 -5.5 -44.5t-19.5 -79.5t-21 -83h-13q-7 30 -21 83t-19.5 79.5t-5.5 44.5q0 28 13.5 44.5t39.5 16.5q25 0 38.5 -16.5t13.5 -44.5zM142 633q0 -18 -5.5 -44.5t-19.5 -79.5t-21 -83h-13q-7 30 -21 83t-19.5 79.5t-5.5 44.5q0 28 13.5 44.5t39.5 16.5
q25 0 38.5 -16.5t13.5 -44.5z" />
    <glyph glyph-name="numbersign" unicode="#" horiz-adv-x="471" 
d="M355 423l-36 -146h90v-47h-102l-56 -230h-53l56 230h-95l-57 -230h-53l57 230h-85v47h96l36 146h-86v47h98l48 192h53l-48 -192h95l48 192h53l-48 -192h90v-47h-101zM170 277h96l36 146h-96z" />
    <glyph glyph-name="dollar" unicode="$" horiz-adv-x="482" 
d="M310 746l-9 -74q54 -3 101 -15v-148h-7q-58 76 -101 98l-22 -192l19 -13q84 -62 120.5 -109t36.5 -112q0 -81 -60 -135t-164 -56l-10 -89h-47l10 91q-74 8 -129 38q-13 90 -8 210h10q59 -150 135 -180l25 219q-3 1 -12 8q-83 57 -119 106t-36 108q0 74 59.5 122t151.5 50
l9 73h47zM319 139q0 32 -15 56t-51 52l-22 -194q41 2 64.5 26t23.5 60zM167 543q0 -28 14 -49t48 -47l19 171q-36 0 -58.5 -20t-22.5 -55z" />
    <glyph glyph-name="percent" unicode="%" horiz-adv-x="673" 
d="M503 47q39 0 64 27.5t25 67.5q0 42 -25.5 69.5t-63.5 27.5t-63.5 -27.5t-25.5 -69.5q0 -40 25.5 -67.5t63.5 -27.5zM350 142q0 64 44 108t109 44q67 0 110.5 -43t43.5 -108q0 -64 -43.5 -107.5t-110.5 -43.5q-68 0 -110.5 42t-42.5 108zM16 518q0 64 44 108t109 44
q67 0 110.5 -43t43.5 -108q0 -64 -44 -107.5t-110 -43.5q-68 0 -110.5 42t-42.5 108zM169 615q-38 0 -63.5 -27.5t-25.5 -69.5q0 -39 26 -67t63 -28q38 0 63 27.5t25 67.5q0 42 -25 69.5t-63 27.5zM541 662h71l-475 -662h-70z" />
    <glyph glyph-name="ampersand" unicode="&#x26;" horiz-adv-x="748" 
d="M746 425q-62 -38 -90.5 -74.5t-84.5 -139.5q-16 -28 -25 -43q67 -83 164 -83q37 0 51 6l3 -5q-76 -95 -175 -95q-69 0 -129 68q-80 -73 -190 -73q-109 0 -177.5 55t-68.5 137q0 66 48.5 115t117.5 77q-70 73 -70 136q0 57 53 98.5t128 41.5q71 0 117.5 -32.5t46.5 -78.5
q0 -77 -121 -127q74 -76 164 -191q30 54 64 147l-71 61v6h245v-6zM422 109q-100 128 -202 230q-54 -46 -54 -119q0 -65 39.5 -107.5t108.5 -42.5q60 0 108 39zM240 545q0 -11 2.5 -20t11 -20t14.5 -18t23 -24t26 -27q41 39 41 88q0 34 -17.5 54t-42.5 20q-26 0 -42 -15.5
t-16 -37.5z" />
    <glyph glyph-name="quotesingle" unicode="'" horiz-adv-x="180" 
d="M142 633q0 -18 -5.5 -44.5t-19.5 -79.5t-21 -83h-13q-7 30 -21 83t-19.5 79.5t-5.5 44.5q0 28 13.5 44.5t39.5 16.5q25 0 38.5 -16.5t13.5 -44.5z" />
    <glyph glyph-name="parenleft" unicode="(" horiz-adv-x="304" 
d="M51 283q0 78 21.5 152t58.5 133.5t74 102.5t79 81l13 -6q-128 -208 -128 -462q0 -221 128 -462l-13 -6q-233 214 -233 467z" />
    <glyph glyph-name="parenright" unicode=")" horiz-adv-x="304" 
d="M252 283q0 -253 -233 -467l-13 6q128 241 128 462q0 254 -128 462l13 6q42 -38 79 -81t74 -102.5t58.5 -133.5t21.5 -152z" />
    <glyph glyph-name="asterisk" unicode="*" horiz-adv-x="323" 
d="M76 393l-6 3l33 105l-99 34v6l105 19l-24 106l6 3l77 -81l82 72l5 -3l-38 -102l103 -32v-7l-104 -21l22 -103l-5 -2l-74 78z" />
    <glyph glyph-name="plus" unicode="+" horiz-adv-x="477" 
d="M38 273h172v177h58v-177h171v-52h-171v-179h-58v179h-172v52z" />
    <glyph glyph-name="comma" unicode="," horiz-adv-x="222" 
d="M34 73q0 30 19.5 48.5t51.5 18.5q35 0 58.5 -25.5t23.5 -69.5q0 -61 -39.5 -110t-99.5 -78l-13 6q63 83 75 149q0 -1 -1 -1h-4q-31 0 -51 16.5t-20 45.5z" />
    <glyph glyph-name="hyphen" unicode="-" horiz-adv-x="282" 
d="M42 296h198v-102h-198v102z" />
    <glyph glyph-name="period" unicode="." horiz-adv-x="218" 
d="M35 59q0 32 21.5 52.5t52.5 20.5q32 0 53 -20.5t21 -52.5q0 -31 -21 -52t-53 -21q-31 0 -52.5 21t-21.5 52z" />
    <glyph glyph-name="slash" unicode="/" horiz-adv-x="346" 
d="M328 744l-299 -980l-50 15l297 980z" />
    <glyph glyph-name="zero" unicode="0" horiz-adv-x="508" 
d="M26 214q0 95 66.5 162t161.5 67q97 0 163 -65t66 -161t-66.5 -162.5t-162.5 -66.5q-99 0 -163.5 64t-64.5 162zM113 216q0 -66 41 -110t101 -44t100.5 44t40.5 110q0 65 -41 108.5t-101 43.5q-61 0 -101 -43.5t-40 -108.5z" />
    <glyph glyph-name="one" unicode="1" horiz-adv-x="284" 
d="M20 425v6h243v-6l-53 -51v-318l53 -50v-6h-243v6l56 50v318z" />
    <glyph glyph-name="two" unicode="2" horiz-adv-x="422" 
d="M34 331q19 44 59 78t105 34q63 0 100 -33t37 -87q0 -51 -40.5 -98.5t-128.5 -113.5h260l-49 -111h-358v6q87 96 129.5 163t42.5 118q0 33 -18.5 52.5t-52.5 19.5q-39 0 -77 -35z" />
    <glyph glyph-name="three" unicode="3" horiz-adv-x="364" 
d="M29 100q140 124 140 199q0 63 -59 63q-41 0 -65 -29l-10 7q43 104 146 104q57 0 87.5 -29t30.5 -73q0 -85 -138 -167q13 3 31 3q68 0 108.5 -37t40.5 -97q0 -88 -82 -161t-249 -141l-8 12q100 84 145 143.5t45 114.5q0 40 -24.5 64t-68.5 24q-37 0 -61 -12z" />
    <glyph glyph-name="four" unicode="4" horiz-adv-x="497" 
d="M392 442v-353h94v-89h-94v-171l-127 -50v221h-265v7l324 435h68zM265 89v191l-141 -191h141z" />
    <glyph glyph-name="five" unicode="5" horiz-adv-x="351" 
d="M328 431l-55 -103h-143q0 -11 -4 -11q169 -138 169 -260q0 -95 -87.5 -168.5t-224.5 -111.5l-6 12q77 46 130 106t53 115q0 36 -20.5 76.5t-40.5 63.5t-51 54q10 31 46.5 114.5t53.5 112.5h180z" />
    <glyph glyph-name="six" unicode="6" horiz-adv-x="508" 
d="M485 682q-149 -71 -230 -186t-81 -258q0 -86 33.5 -141.5t69.5 -55.5q31 0 53.5 36.5t22.5 86.5q0 53 -29 85t-77 32q-22 0 -45 -10l-5 5q58 70 131 70q68 0 111.5 -43.5t43.5 -116.5q0 -89 -63.5 -143t-148.5 -54q-59 0 -111.5 28t-89 90.5t-36.5 147.5q0 88 41.5 166
t108 132t143 90t152.5 50z" />
    <glyph glyph-name="seven" unicode="7" horiz-adv-x="457" 
d="M60 431h378v-6l-273 -671l-57 12l226 561h-319z" />
    <glyph glyph-name="eight" unicode="8" horiz-adv-x="427" 
d="M217 671q71 0 119 -38t48 -91q0 -73 -115 -156q55 -61 76.5 -87.5t38.5 -61t17 -69.5q0 -66 -55.5 -121.5t-138.5 -55.5q-78 0 -132.5 39.5t-54.5 105.5q0 48 33 91t94 90q-63 68 -87.5 111.5t-24.5 87.5q0 60 52.5 107.5t129.5 47.5zM279 130q0 31 -18 58t-73 87
q-8 9 -13 14q-43 -60 -44 -139q0 -50 22 -79.5t55 -29.5q31 0 51 26.5t20 62.5zM152 556q0 -27 20 -57t75 -89q35 57 36 126q0 41 -19 65.5t-49 24.5q-27 0 -45 -19t-18 -51z" />
    <glyph glyph-name="nine" unicode="9" horiz-adv-x="507" 
d="M45 -247q140 78 215 191t75 248q0 86 -36.5 141.5t-70.5 55.5q-29 0 -50 -36t-21 -83q0 -56 28.5 -88t74.5 -32q24 0 47 10l4 -5q-16 -27 -50 -48t-78 -21q-66 0 -111.5 43.5t-45.5 116.5q0 84 61 140t143 56q93 0 169 -68.5t76 -196.5q0 -86 -36 -160.5t-97 -127.5
t-134 -90t-156 -57z" />
    <glyph glyph-name="colon" unicode=":" horiz-adv-x="228" 
d="M39 370q0 32 21.5 52.5t52.5 20.5q32 0 53 -20.5t21 -52.5q0 -31 -21 -52t-53 -21q-31 0 -52.5 21t-21.5 52zM39 59q0 32 21.5 52.5t52.5 20.5q32 0 53 -20.5t21 -52.5q0 -31 -21 -52t-53 -21q-31 0 -52.5 21t-21.5 52z" />
    <glyph glyph-name="semicolon" unicode=";" horiz-adv-x="228" 
d="M37 73q0 30 19.5 48.5t51.5 18.5q35 0 58.5 -25.5t23.5 -69.5q0 -61 -39.5 -110t-99.5 -78l-13 6q63 83 75 149q0 -1 -1 -1h-4q-31 0 -51 16.5t-20 45.5zM39 370q0 32 21.5 52.5t52.5 20.5q32 0 53 -20.5t21 -52.5q0 -31 -21 -52t-53 -21q-31 0 -52.5 21t-21.5 52z" />
    <glyph glyph-name="less" unicode="&#x3c;" horiz-adv-x="435" 
d="M390 83l-352 137v51l352 139v-55l-286 -109l286 -108v-55z" />
    <glyph glyph-name="equal" unicode="=" horiz-adv-x="462" 
d="M44 162v52h374v-52h-374zM44 269v52h374v-52h-374z" />
    <glyph glyph-name="greater" unicode="&#x3e;" horiz-adv-x="435" 
d="M44 138l286 108l-286 109v55l352 -139v-51l-352 -137v55z" />
    <glyph glyph-name="question" unicode="?" horiz-adv-x="374" 
d="M362 538q0 -68 -68 -133q-46 -42 -87 -77q-18 -17 -24.5 -29.5t-6.5 -30.5q0 -40 4 -65h-19q-70 94 -70 143q0 24 35 65l69 76q34 37 34 71q0 29 -17 44.5t-40 15.5q-55 0 -135 -104h-8v145q61 14 132 14q93 0 147 -36.5t54 -98.5zM95 59q0 32 21.5 52.5t52.5 20.5
q32 0 53 -20.5t21 -52.5q0 -31 -21 -52t-53 -21q-31 0 -52.5 21t-21.5 52z" />
    <glyph glyph-name="at" unicode="@" horiz-adv-x="906" 
d="M593 51q82 18 138.5 81.5t56.5 174.5q0 53 -15 98t-47.5 83t-90.5 59.5t-136 21.5q-82 0 -153 -34.5t-116.5 -90t-71.5 -124.5t-26 -139q0 -152 90 -242t236 -90q163 0 296 110l14 -16q-21 -24 -47 -46.5t-67 -48t-98.5 -40.5t-121.5 -15q-173 0 -285 101t-112 266
q0 190 138.5 323.5t343.5 133.5q171 0 265.5 -83t94.5 -203q0 -106 -57 -182t-151.5 -110.5t-212.5 -27.5l26 127q-37 -51 -84 -88.5t-83 -37.5q-27 0 -50.5 29.5t-23.5 77.5q0 112 87.5 196t209.5 88l132 42zM384 100q15 0 46 25t65 67l34 165q-63 -4 -111 -75.5
t-48 -151.5q0 -30 14 -30z" />
    <glyph glyph-name="A" unicode="A" horiz-adv-x="655" 
d="M207 6v-6h-205v6l61 60l238 603h34l258 -603l60 -60v-6h-289v6l70 60l-61 143h-186l-53 -138zM209 264h141l-74 174z" />
    <glyph glyph-name="B" unicode="B" horiz-adv-x="615" 
d="M595 210q0 -95 -72.5 -152.5t-192.5 -57.5h-304v6l71 60v530l-71 61v5h283q103 0 164.5 -35.5t61.5 -107.5q0 -45 -36 -84t-81 -54q79 -13 128 -57.5t49 -113.5zM248 334v-266q32 -15 74 -15q47 0 82.5 40t35.5 104q0 69 -41.5 103t-109.5 34h-41zM248 610v-227h73
q26 0 50.5 34.5t24.5 83.5q0 55 -30 82t-81 27h-37z" />
    <glyph glyph-name="C" unicode="C" horiz-adv-x="669" 
d="M406 -11q-161 0 -268.5 92t-107.5 247q0 147 107.5 245.5t274.5 98.5q112 0 199 -25v-158h-8q-41 48 -101.5 86t-113.5 38q-74 0 -133 -76.5t-59 -191.5q0 -134 65 -215t151 -81q106 0 203 130h8v-149q-96 -41 -217 -41z" />
    <glyph glyph-name="D" unicode="D" horiz-adv-x="748" 
d="M344 662q103 0 187 -35t136.5 -108t52.5 -173q0 -149 -94 -247.5t-249 -98.5h-350v6l69 60v529l-69 62v5h317zM248 606v-532q40 -20 107 -20q86 0 144 83.5t58 197.5q0 130 -71.5 200.5t-181.5 70.5h-56z" />
    <glyph glyph-name="E" unicode="E" horiz-adv-x="559" 
d="M26 0v6l71 60v530l-71 61v5h471v-148h-6l-82 91h-162v-230h169l59 72h6v-199h-6l-59 72h-169v-262h181l84 116h7v-174h-493z" />
    <glyph glyph-name="F" unicode="F" horiz-adv-x="537" 
d="M475 447h6v-203h-6l-59 73h-169v-250l95 -61v-6h-316v6l71 60v530l-71 61v5h471v-152h-6l-84 95h-160v-232h169z" />
    <glyph glyph-name="G" unicode="G" horiz-adv-x="723" 
d="M654 39q-15 -3 -58 -17t-89 -23t-104 -9q-161 0 -267 94t-106 243q0 145 106.5 245.5t276.5 100.5q63 0 124.5 -9t88.5 -17v-155h-7q-49 51 -109.5 86.5t-115.5 35.5q-78 0 -138.5 -73t-60.5 -195q0 -131 68 -214t158 -83q56 0 88 22v207l-80 60v6h281v-6l-56 -60v-239z
" />
    <glyph glyph-name="H" unicode="H" horiz-adv-x="800" 
d="M249 365h303v231l-70 60v6h291v-6l-70 -60v-530l70 -60v-6h-291v6l70 60v241h-303v-241l71 -60v-6h-294v6l71 60v530l-71 60v6h294v-6l-71 -60v-231z" />
    <glyph glyph-name="I" unicode="I" horiz-adv-x="345" 
d="M26 0v6l71 60v530l-71 60v6h292v-6l-70 -60v-530l70 -60v-6h-292z" />
    <glyph glyph-name="J" unicode="J" horiz-adv-x="333" 
d="M21 657v5h291v-5l-69 -61v-495q0 -71 -59 -163t-158 -155l-10 8q75 138 75 365v440z" />
    <glyph glyph-name="K" unicode="K" horiz-adv-x="724" 
d="M26 0v6l71 60v530l-71 61v5h293v-5l-71 -61v-530l71 -60v-6h-293zM720 0h-310v6l70 60l-183 258h-34l235 272l-70 61v5h242v-5l-89 -60l-168 -186l239 -345l68 -60v-6z" />
    <glyph glyph-name="L" unicode="L" horiz-adv-x="590" 
d="M551 205h7v-205h-532v6l71 60v530l-71 61v5h292v-5l-71 -61v-538h188z" />
    <glyph glyph-name="M" unicode="M" horiz-adv-x="885" 
d="M855 657l-69 -64v-525l71 -62v-6h-297v6l72 62v409l-231 -430h-15l-224 429v-408l71 -62v-6h-208v6l71 62v501q-53 75 -60 88v5h192l216 -410l212 410h199v-5z" />
    <glyph glyph-name="N" unicode="N" horiz-adv-x="775" 
d="M754 662v-5l-71 -63v-594h-64l-451 497v-429l98 -62v-6h-241v6l72 62v506q-13 13 -33.5 34t-33 34t-13.5 15v5h208l387 -431v363l-92 63v5h234z" />
    <glyph glyph-name="O" unicode="O" horiz-adv-x="760" 
d="M30 322q0 151 103.5 251.5t244.5 100.5q148 0 250 -92t102 -240q0 -154 -104 -254t-242 -100q-146 0 -250 92.5t-104 241.5zM195 330q0 -124 57 -202.5t130 -78.5t128.5 78.5t55.5 202.5q0 126 -58.5 205.5t-129.5 79.5q-72 0 -127.5 -80t-55.5 -205z" />
    <glyph glyph-name="P" unicode="P" horiz-adv-x="589" 
d="M567 481q0 -55 -26 -97.5t-68.5 -67.5t-91 -38t-100.5 -14v13q56 21 96 69.5t40 120.5q0 67 -40 104.5t-102 37.5h-27v-543l84 -60v-6h-306v6l71 60v530l-71 61v5h276q125 0 195 -47t70 -134z" />
    <glyph glyph-name="Q" unicode="Q" horiz-adv-x="759" 
d="M730 342q0 -235 -246 -326q117 -57 168 -80t123.5 -50.5t127.5 -36t122 -8.5q27 0 51 2l2 -8q-29 -23 -96.5 -50t-140.5 -27q-79 0 -187.5 46.5t-372.5 188.5q-43 22 -71 38.5t-66 47t-60 62t-38 78.5t-16 103q0 151 104 251.5t244 100.5q146 0 249 -92t103 -240z
M195 330q0 -124 57 -202t132 -78q72 0 127 77t55 203q0 127 -57.5 206t-130.5 79t-128 -79t-55 -206z" />
    <glyph glyph-name="R" unicode="R" horiz-adv-x="672" 
d="M26 0v6l71 60v530l-71 61v5h283q110 0 176 -36.5t66 -115.5q0 -51 -33.5 -92t-78.5 -65l107 -187q62 -107 135 -160v-6q-28 -7 -77 -7q-82 0 -121.5 26.5t-70.5 85.5l-112 212h-53v-251l77 -60l1 -6h-299zM247 608v-240h93q25 0 47.5 35t22.5 83q0 62 -33.5 92t-82.5 30
h-47z" />
    <glyph glyph-name="S" unicode="S" horiz-adv-x="491" 
d="M273 673q90 0 141 -17v-148h-7q-89 109 -151 109q-26 0 -46 -18.5t-20 -47.5q0 -39 21.5 -64t85.5 -73q88 -67 125 -114t37 -115q0 -84 -64 -139.5t-168 -55.5q-105 0 -181 37q-13 88 -8 212h9q81 -187 179 -187q37 0 62 25.5t25 66.5q0 43 -23 71.5t-86 74.5
q-79 58 -113.5 106.5t-34.5 106.5q0 80 60.5 125t156.5 45z" />
    <glyph glyph-name="T" unicode="T" horiz-adv-x="670" 
d="M643 662v-164h-7l-97 107h-128v-538l81 -61v-6h-316v6l82 61v538h-129l-96 -107h-6v164h616z" />
    <glyph glyph-name="U" unicode="U" horiz-adv-x="753" 
d="M664 238q0 -40 -15 -81t-45.5 -79.5t-86.5 -63t-128 -24.5q-148 0 -224 70.5t-76 173.5v362l-70 61v5h304v-5l-81 -61v-354q0 -75 44.5 -121t137.5 -46q78 0 124 49t46 118v354l-80 61v5h220v-5l-70 -61v-358z" />
    <glyph glyph-name="V" unicode="V" horiz-adv-x="651" 
d="M444 657v5h205v-5l-60 -61l-233 -602h-34l-260 602l-60 61v5h303v-5l-72 -61l147 -363l136 359z" />
    <glyph glyph-name="W" unicode="W" horiz-adv-x="990" 
d="M540 596l51 -120l54 120l-42 61v5h153v-5l-48 -61l-88 -187l90 -207l146 394l-51 61v5h183v-5l-61 -61l-228 -603h-34l-151 330l-146 -330h-34l-272 603l-60 61v5h274v-5l-54 -61l172 -390l86 190l-91 200l-58 61v5h255v-5z" />
    <glyph glyph-name="X" unicode="X" horiz-adv-x="689" 
d="M4 0v6l80 60l186 250l-193 280l-67 61v5h316v-5l-69 -61l117 -174l118 170l-70 65v5h233v-5l-79 -61l-163 -232l202 -298l70 -60v-6h-313v6l71 60l-132 191l-142 -191l72 -60v-6h-237z" />
    <glyph glyph-name="Y" unicode="Y" horiz-adv-x="624" 
d="M417 657v5h205v-5l-61 -61l-164 -264v-263l69 -63v-6h-291v6l70 63v244l-183 283l-60 61v5h300v-5l-70 -61l129 -207l126 203z" />
    <glyph glyph-name="Z" unicode="Z" horiz-adv-x="631" 
d="M220 61h262l109 147h7v-208h-574v9l365 597h-228l-102 -128h-7v184h538v-8z" />
    <glyph glyph-name="bracketleft" unicode="[" horiz-adv-x="276" 
d="M264 710h-83v-839h83v-33h-193v906h193v-34z" />
    <glyph glyph-name="backslash" unicode="\" horiz-adv-x="346" 
d="M368 -221l-51 -15l-298 980l51 15z" />
    <glyph glyph-name="bracketright" unicode="]" horiz-adv-x="276" 
d="M95 710h-83v34h193v-906h-193v33h83v839z" />
    <glyph glyph-name="asciicircum" unicode="^" horiz-adv-x="421" 
d="M41 286l-10 6l176 382h7l176 -382l-10 -6l-170 186z" />
    <glyph glyph-name="underscore" unicode="_" horiz-adv-x="378" 
d="M-5 -130v53h388v-53h-388z" />
    <glyph glyph-name="grave" unicode="`" 
d="M286 487l-181 158l96 70l93 -224z" />
    <glyph glyph-name="a" unicode="a" horiz-adv-x="460" 
d="M266 315q0 24 -17.5 39t-46.5 15q-26 0 -50 -17v-81l-118 40v6q104 127 221 127q73 0 108 -35.5t35 -73.5q0 -27 -1.5 -130t-1.5 -114q31 -18 67 -30v-6l-84 -77q-70 23 -108 67q-62 -58 -113 -58q-59 0 -96.5 34.5t-37.5 82.5q0 28 12 51t27 27l204 50v83zM265 77
q0 3 0.5 40.5t0.5 67.5q-83 -19 -109 -32q-7 -5 -7 -26q0 -27 18 -44t50 -17q25 0 47 11z" />
    <glyph glyph-name="b" unicode="b" horiz-adv-x="516" 
d="M-7 653v6q97 43 195 67v-345q76 62 138 62q64 0 114 -50.5t50 -143.5q0 -85 -39.5 -145t-94 -85.5t-115.5 -25.5q-17 0 -84 3.5t-100 3.5h-5v606zM245 361q-38 0 -57 -17v-278q23 -17 53 -17q48 0 78.5 44t30.5 115t-27.5 112t-77.5 41z" />
    <glyph glyph-name="c" unicode="c" horiz-adv-x="440" 
d="M279 444q68 0 123 -11v-133h-8q-93 87 -146 87q-36 0 -67 -40t-31 -100q0 -73 43 -118t118 -45q68 0 111 23l6 -7q-74 -110 -188 -110q-91 0 -154 59.5t-63 157.5q0 101 70.5 169t185.5 68z" />
    <glyph glyph-name="d" unicode="d" horiz-adv-x="531" 
d="M260 651v6q18 8 86.5 32t117.5 37v-640l72 -41v-7q-27 -7 -77 -19q-72 -18 -125 -30v62q-75 -62 -121 -62q-73 0 -130.5 57t-57.5 149q0 102 68 170.5t189 68.5q10 0 26 -0.5t21 -0.5v171zM287 74q25 0 42 12v275q-18 21 -54 21q-48 0 -79 -43t-31 -110q0 -69 34 -112
t88 -43z" />
    <glyph glyph-name="e" unicode="e" horiz-adv-x="435" 
d="M148 256q0 -83 43.5 -128.5t122.5 -45.5q58 0 109 20l4 -7q-26 -37 -77 -71t-117 -34q-93 0 -151.5 60.5t-58.5 157.5q0 100 66.5 167.5t146.5 67.5q127 0 182 -169v-4h-270v-14zM231 391q-23 0 -43.5 -19.5t-31.5 -55.5h135q-3 40 -21.5 57.5t-38.5 17.5z" />
    <glyph glyph-name="f" unicode="f" horiz-adv-x="339" 
d="M299 6v-6h-285v6l56 50v306h-74v6l74 57v28q0 113 81.5 188t199.5 75q57 0 103 -12l-42 -98q-83 48 -122 48q-29 0 -57.5 -38t-28.5 -109v-79h147l-47 -66h-100v-301z" />
    <glyph glyph-name="g" unicode="g" horiz-adv-x="478" 
d="M30 305q0 58 53.5 99t135.5 41q47 0 91 -14h155v-56h-83q29 -32 29 -66q0 -62 -49.5 -103t-142.5 -41q-31 0 -60 6q-20 -20 -20 -38q0 -28 28 -28h189q30 0 67 -36t37 -96q0 -90 -80 -158.5t-193 -68.5q-80 0 -127 29.5t-47 70.5q0 33 30 73t66 68q-72 28 -72 98
q0 36 15 51l71 47q-93 39 -93 122zM142 -21q-13 -13 -24 -37.5t-11 -46.5q0 -28 31.5 -48t88.5 -20q59 0 97.5 27.5t38.5 67.5q0 28 -20 42.5t-45 14.5h-156zM156 305q0 -38 20 -66t45 -28q27 0 45.5 27.5t18.5 66.5t-18.5 67t-45.5 28t-46 -28t-19 -67z" />
    <glyph glyph-name="h" unicode="h" horiz-adv-x="556" 
d="M14 0v6l56 50v550l-59 47v6q17 8 81 31t112 36v-360q81 77 153 77q58 0 96 -35.5t38 -69.5v-282l56 -50v-6h-244v6l54 50v243q0 23 -19.5 40.5t-55.5 17.5q-43 0 -78 -32v-269l55 -50v-6h-245z" />
    <glyph glyph-name="i" unicode="i" horiz-adv-x="272" 
d="M14 0v6l56 50v282l-54 43v6q79 32 188 59v-390l56 -50v-6h-246zM64 574q0 30 20.5 50t49.5 20q30 0 50.5 -20t20.5 -50q0 -29 -20.5 -48.5t-50.5 -19.5q-29 0 -49.5 19.5t-20.5 48.5z" />
    <glyph glyph-name="j" unicode="j" horiz-adv-x="250" 
d="M125 506q-30 0 -50.5 19.5t-20.5 48.5q0 30 20.5 50t50.5 20t50.5 -20t20.5 -50q0 -29 -20.5 -48.5t-50.5 -19.5zM6 381v7q43 19 189 59v-402q0 -47 -44 -126t-141 -157l-9 8q59 126 59 267v302z" />
    <glyph glyph-name="k" unicode="k" horiz-adv-x="534" 
d="M204 56l52 -50v-6h-241v6l55 50v549l-59 47v6q83 37 193 66v-668zM217 215v6l112 147l-60 57v6h241v-7l-104 -57l-83 -86l106 -153q55 -79 104 -122v-6q-45 -12 -83 -12q-49 0 -78 19.5t-63 70.5z" />
    <glyph glyph-name="l" unicode="l" horiz-adv-x="272" 
d="M204 56l56 -50v-6h-246v6l56 50v550l-59 47v6q22 10 84 32.5t109 34.5v-670z" />
    <glyph glyph-name="m" unicode="m" horiz-adv-x="815" 
d="M204 363q80 80 146 80q47 0 79 -24.5t43 -57.5q87 82 152 82q56 0 91 -33t35 -69v-284l56 -51v-6h-241v6l51 51v236q0 61 -66 61q-43 0 -73 -30v-267l52 -51v-6h-237v6l51 51v236q0 28 -16.5 44.5t-50.5 16.5q-39 0 -72 -28v-270l52 -51v-5h-242v6l56 51v281l-54 43v6
q79 32 188 59v-83z" />
    <glyph glyph-name="n" unicode="n" horiz-adv-x="556" 
d="M14 0v6l56 50v282l-54 43v6q79 32 188 59v-80q81 77 153 77q58 0 96 -35.5t38 -69.5v-282l56 -50v-6h-244v6l54 50v243q0 23 -19.5 40.5t-55.5 17.5q-46 0 -78 -32v-269l55 -50v-6h-245z" />
    <glyph glyph-name="o" unicode="o" horiz-adv-x="521" 
d="M22 210q0 105 74 169t165 64q59 0 112 -23.5t90 -75.5t37 -123q0 -105 -75 -169t-167 -64q-91 0 -163.5 59t-72.5 163zM168 216q0 -73 28 -123t65 -50q36 0 64.5 51t28.5 122q0 74 -27.5 123.5t-65.5 49.5q-37 0 -65 -50.5t-28 -122.5z" />
    <glyph glyph-name="p" unicode="p" horiz-adv-x="524" 
d="M274 -238v-6h-271v6l55 50v527l-54 42v7q135 48 189 61v-72q73 66 137 66q73 0 120.5 -53t47.5 -144q0 -112 -67 -181t-180 -69q-38 0 -58 3v-187zM251 360q-33 0 -58 -16v-279q22 -14 49 -14q50 0 82 46t32 120q0 67 -27 105t-78 38z" />
    <glyph glyph-name="q" unicode="q" horiz-adv-x="522" 
d="M523 -238v-6h-271v6l81 50v236q-66 -59 -123 -59q-77 0 -131 59t-54 148q0 103 66 173.5t174 70.5q62 0 104 -18l98 43v-653zM287 73q26 0 46 11v285q-24 15 -53 15q-50 0 -80.5 -42.5t-30.5 -112.5t32 -113t86 -43z" />
    <glyph glyph-name="r" unicode="r" horiz-adv-x="389" 
d="M16 381v6q79 32 188 59v-98q69 97 98 97q35 0 79 -17l-42 -126q-53 28 -85 28q-30 0 -50 -18v-252l87 -54v-6h-277v6l56 51v281z" />
    <glyph glyph-name="s" unicode="s" horiz-adv-x="366" 
d="M210 443q37 0 102 -13v-109h-6q-76 72 -116 72q-15 0 -25.5 -9.5t-10.5 -25.5q0 -20 14.5 -33.5t54.5 -39.5q40 -25 59 -39t38.5 -44.5t19.5 -67.5q0 -63 -50 -103.5t-131 -40.5q-61 0 -123 23q-8 51 -8 158h8q58 -122 129 -122q23 0 36.5 13t13.5 34q0 23 -15 38.5
t-55 41.5q-52 32 -77.5 64.5t-25.5 78.5q0 55 44.5 89.5t123.5 34.5z" />
    <glyph glyph-name="t" unicode="t" horiz-adv-x="391" 
d="M197 360v-215q0 -66 87 -66q50 0 80 14l4 -6q-14 -20 -32 -38.5t-56.5 -38.5t-79.5 -20q-67 0 -103 35t-36 78v257h-58v7l194 154v-92h199l-44 -69h-155z" />
    <glyph glyph-name="u" unicode="u" horiz-adv-x="539" 
d="M6 381v6q59 26 187 59v-310q0 -27 16.5 -43.5t49.5 -16.5q40 0 78 29v233l-65 43v6q55 23 200 59v-364l66 -37v-7q-48 -12 -83 -21q-87 -21 -118 -28v77q-79 -76 -146 -76q-60 0 -96 35t-36 74v239z" />
    <glyph glyph-name="v" unicode="v" horiz-adv-x="452" 
d="M409 377l-149 -354q-2 -3 -4 -10t-4 -11q-4 -8 -5 -12h-31q-1 2 -3 7t-3 7l-12 27l-156 346l-48 48v6h249v-6l-51 -48l77 -192l75 192l-51 48v6h165v-6z" />
    <glyph glyph-name="w" unicode="w" horiz-adv-x="698" 
d="M260 31q-2 -8 -10 -25q-4 -8 -5 -12h-30q-1 2 -3 7t-4 8q-13 29 -18 40l-148 328l-48 48v6h237v-6l-46 -48l80 -191l63 161l-12 30l-45 48v6h228v-6l-48 -48l71 -191l69 191l-51 48v6h164v-6l-49 -48l-135 -349q-2 -4 -10 -24q-1 -2 -4 -10h-30q-1 5 -6 13q-4 9 -16 37
l-96 230z" />
    <glyph glyph-name="x" unicode="x" horiz-adv-x="482" 
d="M478 6v-6h-238v6l49 49l-78 105l-77 -105l51 -49v-6h-178v6l55 50l116 150l-126 171l-47 48l1 6h247v-6l-47 -48l69 -99l68 99l-48 48v6h174v-6l-56 -50l-107 -141l126 -179z" />
    <glyph glyph-name="y" unicode="y" horiz-adv-x="449" 
d="M264 21q-70 -177 -82 -265h-139v5q90 72 157 242l5 12l-162 361l-48 49v6h247v-6l-51 -49l80 -193l72 193l-51 49v6h163v-6l-49 -49z" />
    <glyph glyph-name="z" unicode="z" horiz-adv-x="426" 
d="M405 145v-145h-391v14l217 366h-116l-77 -82h-6v133h363v-14l-217 -361h136l85 89h6z" />
    <glyph glyph-name="braceleft" unicode="{" horiz-adv-x="295" 
d="M163 -40q0 -86 113 -132l-6 -10q-111 17 -163 61t-52 96q0 36 39.5 119t39.5 109q0 69 -111 73v29q112 4 112 73q0 27 -40.5 105.5t-40.5 113.5q0 51 51.5 94t164.5 62l6 -10q-114 -45 -114 -131q0 -29 31.5 -110t31.5 -109q0 -37 -35 -65.5t-98 -36.5q65 -8 99 -36.5
t34 -66.5q0 -30 -31 -113t-31 -115z" />
    <glyph glyph-name="bar" unicode="|" horiz-adv-x="261" 
d="M103 749h55v-977h-55v977z" />
    <glyph glyph-name="braceright" unicode="}" horiz-adv-x="294" 
d="M131 -40q0 32 -31 115t-31 113q0 38 34 66.5t99 36.5q-63 8 -98 36.5t-35 65.5q0 28 31.5 109t31.5 110q0 86 -114 131l6 10q113 -19 164.5 -62t51.5 -94q0 -35 -40.5 -113.5t-40.5 -105.5q0 -69 112 -73v-29q-111 -4 -111 -73q0 -26 39.5 -109t39.5 -119q0 -52 -52 -96
t-163 -61l-6 10q113 46 113 132z" />
    <glyph glyph-name="asciitilde" unicode="~" horiz-adv-x="475" 
d="M339 309q52 0 101 97l7 -3q-6 -99 -43.5 -156t-79.5 -57q-32 0 -99 37t-91 37q-27 0 -53.5 -27.5t-46.5 -68.5l-6 3q8 99 43.5 156.5t78.5 57.5q32 0 99.5 -38t89.5 -38z" />
    <glyph glyph-name="exclamdown" unicode="&#xa1;" horiz-adv-x="237" 
d="M40 -233q7 45 19.5 128t27.5 186t21 145h21q6 -42 21 -145.5t27.5 -186t19.5 -127.5h-157zM192 370q0 -32 -21 -52.5t-53 -20.5t-53 20.5t-21 52.5q0 31 21 52t53 21t53 -21t21 -52z" />
    <glyph glyph-name="cent" unicode="&#xa2;" horiz-adv-x="449" 
d="M316 524l-9 -80q22 -1 44.5 -3.5t39 -4.5t20.5 -2v-134h-8q-59 55 -104 75l-32 -289q19 -5 48 -5q78 0 115 24l6 -8q-25 -38 -70 -70.5t-109 -35.5l-9 -84h-48l9 86q-81 10 -133.5 67.5t-52.5 147.5q0 96 64.5 163t172.5 73l9 80h47zM150 247q0 -102 72 -143l31 283h-2
q-39 0 -70 -39.5t-31 -100.5z" />
    <glyph glyph-name="sterling" unicode="&#xa3;" horiz-adv-x="531" 
d="M-8 -13q16 29 45.5 75t43 74.5t20.5 63.5q6 34 9 86h-91v51h94l3 122q2 99 73 156.5t167 57.5q78 0 126 -17v-147h-8q-83 108 -137 108t-63 -95q-4 -30 -10.5 -93.5t-9.5 -91.5h144v-51h-151l-4 -25q-19 -81 -99 -138q36 14 61 14q33 0 91 -15.5t90 -15.5q71 0 131 83
l8 -2q-15 -88 -58.5 -143t-103.5 -55q-35 0 -108.5 31t-111.5 31q-65 0 -142 -70z" />
    <glyph glyph-name="yen" unicode="&#xa5;" horiz-adv-x="603" 
d="M394 657v5h207v-5l-61 -61l-139 -222h145v-48h-160v-55h160v-49h-160v-153l70 -63v-6h-291l-1 6l70 63v153h-160v49h160v55h-160v48h132l-143 222l-61 61v5h299v-5l-70 -61l118 -191l115 187z" />
    <glyph glyph-name="brokenbar" unicode="&#xa6;" horiz-adv-x="261" 
d="M103 749h55v-434h-55v434zM103 217h55v-446h-55v446z" />
    <glyph glyph-name="section" unicode="&#xa7;" horiz-adv-x="493" 
d="M28 275q0 88 110 130q-48 58 -48 122q0 65 52.5 105.5t135.5 40.5q36 0 112 -12v-130h-9q-81 92 -130 92q-23 0 -39.5 -15.5t-16.5 -40.5q0 -31 24 -59t109 -106q78 -71 107.5 -112t29.5 -92t-32 -83t-76 -47q50 -59 50 -123q0 -73 -55 -123.5t-148 -50.5q-86 0 -144 31
q-12 85 -6 190h9q24 -63 66.5 -113.5t88.5 -50.5q35 0 57 21t22 56q0 36 -26 67t-114 107q-76 66 -102.5 108t-26.5 88zM250 172q82 -77 83 -78q24 24 24 52q0 35 -19.5 61t-92.5 93q-60 55 -86 82q-30 -22 -30 -56q0 -29 24.5 -59.5t96.5 -94.5z" />
    <glyph glyph-name="dieresis" unicode="&#xa8;" 
d="M293 635q26 0 44.5 -18.5t18.5 -46.5q0 -27 -18 -44.5t-45 -17.5q-28 0 -46.5 17.5t-18.5 44.5q0 28 18.5 46.5t46.5 18.5zM108 635q27 0 45.5 -18.5t18.5 -46.5q0 -27 -18.5 -45t-45.5 -18q-28 0 -46 18t-18 45q0 28 18 46.5t46 18.5z" />
    <glyph glyph-name="copyright" unicode="&#xa9;" horiz-adv-x="742" 
d="M371 629q-122 0 -203 -86.5t-81 -210.5q0 -122 83.5 -209.5t200.5 -87.5q122 0 203 86t81 211q0 121 -83 209t-201 88zM393 156q-91 0 -150.5 50t-59.5 130q0 77 58.5 130.5t154.5 53.5q36 0 111 -16v-110h-7q-65 81 -116 81q-35 0 -62 -36t-27 -94q0 -65 31.5 -104
t72.5 -39q57 0 108 76h7v-95q-51 -27 -121 -27zM371 674q141 0 240.5 -100.5t99.5 -241.5q0 -144 -98 -243t-242 -99q-145 0 -242.5 98.5t-97.5 243.5q0 144 98 243t242 99z" />
    <glyph glyph-name="ordfeminine" unicode="&#xaa;" horiz-adv-x="339" 
d="M186 580q0 16 -10.5 26t-30.5 10q-21 0 -32 -11v-52l-90 32v4q73 85 158 85q53 0 80 -24.5t27 -49.5q0 -19 -1 -88t-1 -76q12 -9 44 -20v-5l-65 -53q-43 13 -74 48q-46 -44 -76 -44q-44 0 -72.5 24.5t-28.5 57.5q0 20 8.5 36.5t18.5 19.5q76 14 145 32v48zM158 423
q15 0 27 5q1 15 1 73q-57 -20 -69 -20q-5 -5 -5 -20q0 -16 12.5 -27t33.5 -11z" />
    <glyph glyph-name="guillemotleft" unicode="&#xab;" horiz-adv-x="419" 
d="M367 55l-161 170v6l161 168l15 -6l-63 -166l63 -166zM35 225v6l161 168l14 -6l-62 -166l62 -166l-14 -6z" />
    <glyph glyph-name="registered" unicode="&#xae;" horiz-adv-x="409" 
d="M205 685q77 0 129.5 -53t52.5 -128t-52.5 -128t-129.5 -53t-130 52.5t-53 128.5t53 128.5t130 52.5zM205 653q-62 0 -103 -43t-41 -106t41.5 -106t102.5 -43q62 0 103 42.5t41 106.5q0 63 -41 106t-103 43zM115 421v5l21 19v133l-21 19v5h104q32 0 48 -12t16 -31
q0 -27 -30 -43l28 -48q17 -27 30 -41v-5q-14 -2 -28 -2q-22 0 -32.5 6.5t-19.5 22.5l-27 52h-15v-56l24 -19v-5h-98zM189 579v-55h26q6 0 10.5 7.5t4.5 18.5q0 29 -29 29h-12z" />
    <glyph glyph-name="macron" unicode="&#xaf;" 
d="M85 594h231v-74h-231v74z" />
    <glyph glyph-name="degree" unicode="&#xb0;" horiz-adv-x="281" 
d="M140 432q-52 0 -86 34t-34 85t34 85t86 34q53 0 87 -33t34 -84q0 -52 -34.5 -86.5t-86.5 -34.5zM205 552q0 29 -18.5 48.5t-46.5 19.5t-46 -19.5t-18 -48.5q0 -31 18 -50.5t46 -19.5t46.5 19.5t18.5 50.5z" />
    <glyph glyph-name="twosuperior" unicode="&#xb2;" horiz-adv-x="276" 
d="M246 545h7v-127h-242v18q64 72 89 110t25 65q0 21 -12 33t-31 12q-29 0 -56 -27l-10 5q12 35 41.5 61.5t78.5 26.5q45 0 71 -21t26 -59q0 -73 -139 -153h109z" />
    <glyph glyph-name="threesuperior" unicode="&#xb3;" horiz-adv-x="233" 
d="M23 568q36 22 52 37.5t16 32.5q0 30 -32 30q-18 0 -44 -15l-7 6q12 25 39 44t68 19q38 0 57 -14.5t19 -37.5q0 -45 -79 -67q3 0 7 0.5t6 0.5q43 0 68.5 -19.5t25.5 -51.5q0 -48 -46.5 -80.5t-163.5 -43.5l-4 10q101 47 101 100q0 40 -54 40q-11 0 -25 -2z" />
    <glyph glyph-name="acute" unicode="&#xb4;" 
d="M114 485l-8 5l93 223l96 -69z" />
    <glyph glyph-name="paragraph" unicode="&#xb6;" horiz-adv-x="507" 
d="M219 336q-91 0 -146 46t-55 121q0 71 48.5 115t134.5 44h87v-662h-137v6l70 60v270h-2zM410 596v-530l71 -60v-6h-138v662h138v-6z" />
    <glyph glyph-name="periodcentered" unicode="&#xb7;" horiz-adv-x="218" 
d="M35 252q0 32 21.5 52.5t52.5 20.5q32 0 53 -20.5t21 -52.5q0 -31 -21 -51.5t-53 -20.5q-31 0 -52.5 20.5t-21.5 51.5z" />
    <glyph glyph-name="cedilla" unicode="&#xb8;" 
d="M238 0l-30 -59q42 -9 71 -30t29 -55q0 -45 -49.5 -78t-160.5 -39l-5 12q113 45 113 87q0 16 -21 27t-43 14l-2 3q6 11 15.5 30.5t13.5 27.5q29 56 29 60h40z" />
    <glyph glyph-name="onesuperior" unicode="&#xb9;" horiz-adv-x="198" 
d="M13 418v5l38 32v192l-40 25v5q2 2 70 25.5t72 23.5v-271l37 -32v-5h-177z" />
    <glyph glyph-name="ordmasculine" unicode="&#xba;" horiz-adv-x="363" 
d="M14 514q0 70 52 114.5t116 44.5q67 0 117.5 -40.5t50.5 -110.5q0 -71 -52 -115.5t-118 -44.5t-116 41t-50 111zM125 519q0 -46 17 -80.5t39 -34.5q21 0 39 35t18 80q0 48 -17 80.5t-40 32.5q-22 0 -39 -34t-17 -79z" />
    <glyph glyph-name="guillemotright" unicode="&#xbb;" horiz-adv-x="419" 
d="M213 225l-161 -170l-15 6l63 166l-63 166l15 6l161 -168v-6zM384 231v-6l-161 -170l-14 6l62 166l-62 166l14 6z" />
    <glyph glyph-name="onequarter" unicode="&#xbc;" horiz-adv-x="558" 
d="M24 365v5l38 32v192l-40 25v5q2 2 70 25.5t72 23.5v-271l37 -32v-5h-177zM460 662h67l-443 -662h-66zM528 5v-5h-168v5l36 31v35h-132v16l145 212h83v-173h61l-34 -55h-27v-35zM396 126v98l-67 -98h67z" />
    <glyph glyph-name="onehalf" unicode="&#xbd;" horiz-adv-x="570" 
d="M460 662h67l-443 -662h-66zM24 365v5l38 32v192l-40 25v5q2 2 70 25.5t72 23.5v-271l37 -32v-5h-177zM537 127h7v-127h-242v18q64 72 89 110t25 65q0 21 -12 33t-31 12q-29 0 -56 -27l-10 5q12 35 41.5 61.5t78.5 26.5q45 0 71 -21t26 -59q0 -73 -139 -153h109z" />
    <glyph glyph-name="threequarters" unicode="&#xbe;" horiz-adv-x="560" 
d="M454 662h67l-443 -662h-66zM33 515q36 22 52 37.5t16 32.5q0 30 -32 30q-18 0 -44 -15l-7 6q12 25 39 44t68 19q38 0 57 -14.5t19 -37.5q0 -45 -79 -67q3 0 7 0.5t6 0.5q43 0 68.5 -19.5t25.5 -51.5q0 -48 -46.5 -80.5t-163.5 -43.5l-4 10q101 47 101 100q0 40 -54 40
q-11 0 -25 -2zM522 5v-5h-168v5l36 31v35h-132v16l145 212h83v-173h61l-34 -55h-27v-35zM390 126v98l-67 -98h67z" />
    <glyph glyph-name="questiondown" unicode="&#xbf;" horiz-adv-x="374" 
d="M12 -109q0 68 68 133q46 42 87 77q18 17 24.5 29.5t6.5 30.5q0 40 -4 65h19q70 -94 70 -143q0 -24 -35 -65l-69 -76q-34 -37 -34 -71q0 -29 17 -44.5t40 -15.5q55 0 135 104h8v-145q-61 -14 -132 -14q-93 0 -147 36.5t-54 98.5zM279 370q0 -32 -21.5 -52.5t-52.5 -20.5
q-32 0 -53 20.5t-21 52.5q0 31 21 52t53 21q31 0 52.5 -21t21.5 -52z" />
    <glyph glyph-name="Agrave" unicode="&#xc0;" horiz-adv-x="655" 
d="M207 6v-6h-205v6l61 60l238 603h34l258 -603l60 -60v-6h-289v6l70 60l-61 143h-186l-53 -138zM209 264h141l-74 174zM438 704l-253 41l39 107l218 -140z" />
    <glyph glyph-name="Aacute" unicode="&#xc1;" horiz-adv-x="655" 
d="M207 6v-6h-205v6l61 60l238 603h34l258 -603l60 -60v-6h-289v6l70 60l-61 143h-186l-53 -138zM209 264h141l-74 174zM199 704l-4 8l217 140l41 -107z" />
    <glyph glyph-name="Acircumflex" unicode="&#xc2;" horiz-adv-x="655" 
d="M207 6v-6h-205v6l61 60l238 603h34l258 -603l60 -60v-6h-289v6l70 60l-61 143h-186l-53 -138zM209 264h141l-74 174zM319 854l152 -153l-4 -6l-148 50l-149 -50l-5 6z" />
    <glyph glyph-name="Atilde" unicode="&#xc3;" horiz-adv-x="655" 
d="M207 6v-6h-205v6l61 60l238 603h34l258 -603l60 -60v-6h-289v6l70 60l-61 143h-186l-53 -138zM209 264h141l-74 174zM266 820q12 0 68 -9.5t71 -9.5q27 0 74 47l7 -2q-12 -50 -39 -89.5t-50 -39.5q-15 0 -70 9t-69 9q-27 0 -74 -47l-7 2q12 48 39.5 89t49.5 41z" />
    <glyph glyph-name="Adieresis" unicode="&#xc4;" horiz-adv-x="655" 
d="M207 6v-6h-205v6l61 60l238 603h34l258 -603l60 -60v-6h-289v6l70 60l-61 143h-186l-53 -138zM209 264h141l-74 174zM215 701q-28 0 -47 18t-19 46t19 46.5t47 18.5q27 0 46 -19t19 -46t-19 -45.5t-46 -18.5zM489 765q0 -27 -19 -45.5t-46 -18.5t-46 18.5t-19 45.5
q0 28 19 46.5t46 18.5t46 -18.5t19 -46.5z" />
    <glyph glyph-name="Aring" unicode="&#xc5;" horiz-adv-x="655" 
d="M207 6v-6h-205v6l61 60l238 603h34l258 -603l60 -60v-6h-289v6l70 60l-61 143h-186l-53 -138zM209 264h141l-74 174zM271 781q0 -21 13 -35.5t34 -14.5q20 0 33.5 14.5t13.5 35.5t-13.5 35.5t-33.5 14.5q-21 0 -34 -14.5t-13 -35.5zM228 781q0 36 27 62.5t63 26.5
t63 -26.5t27 -62.5q0 -37 -27 -63t-63 -26q-37 0 -63.5 25.5t-26.5 63.5z" />
    <glyph glyph-name="AE" unicode="&#xc6;" horiz-adv-x="879" 
d="M292 657v5h526v-148h-6l-82 91h-155v-231h162l59 72h6v-198h-6l-59 71h-162v-261h174l84 116h8v-174h-487v6l70 60v217h-172l-122 -212l73 -65v-6h-205v6l60 60l304 530zM283 338h141v244z" />
    <glyph glyph-name="Ccedilla" unicode="&#xc7;" horiz-adv-x="669" 
d="M406 -11h-12l-24 -48q42 -9 71 -30t29 -55q0 -45 -49.5 -78t-160.5 -39l-5 12q113 45 113 87q0 16 -21 27t-43 14l-2 3l29 58q3 7 10 21l10 20q1 3 3 6.5t2 4.5q-48 4 -97 20q-104 35 -166.5 117.5t-62.5 198.5q0 147 107.5 245.5t274.5 98.5q112 0 199 -25v-158h-8
q-41 48 -101.5 86t-113.5 38q-74 0 -133 -76.5t-59 -191.5q0 -134 65 -215t151 -81q106 0 203 130h8v-149q-96 -41 -217 -41z" />
    <glyph glyph-name="Egrave" unicode="&#xc8;" horiz-adv-x="559" 
d="M409 704l-253 41l39 107l218 -140zM26 0v6l71 60v530l-71 61v5h471v-148h-6l-82 91h-162v-230h169l59 72h6v-199h-6l-59 72h-169v-262h181l84 116h7v-174h-493z" />
    <glyph glyph-name="Eacute" unicode="&#xc9;" horiz-adv-x="559" 
d="M171 704l-4 8l217 140l41 -107zM26 0v6l71 60v530l-71 61v5h471v-148h-6l-82 91h-162v-230h169l59 72h6v-199h-6l-59 72h-169v-262h181l84 116h7v-174h-493z" />
    <glyph glyph-name="Ecircumflex" unicode="&#xca;" horiz-adv-x="559" 
d="M287 854l152 -153l-4 -6l-148 50l-149 -50l-5 6zM26 0v6l71 60v530l-71 61v5h471v-148h-6l-82 91h-162v-230h169l59 72h6v-199h-6l-59 72h-169v-262h181l84 116h7v-174h-493z" />
    <glyph glyph-name="Edieresis" unicode="&#xcb;" horiz-adv-x="559" 
d="M26 0v6l71 60v530l-71 61v5h471v-148h-6l-82 91h-162v-230h169l59 72h6v-199h-6l-59 72h-169v-262h181l84 116h7v-174h-493zM187 701q-28 0 -47 18t-19 46t19 46.5t47 18.5q27 0 46 -19t19 -46t-19 -45.5t-46 -18.5zM461 765q0 -27 -19 -45.5t-46 -18.5t-46 18.5
t-19 45.5q0 28 19 46.5t46 18.5t46 -18.5t19 -46.5z" />
    <glyph glyph-name="Igrave" unicode="&#xcc;" horiz-adv-x="345" 
d="M26 0v6l71 60v530l-71 60v6h292v-6l-70 -60v-530l70 -60v-6h-292zM295 704l-253 41l39 107l218 -140z" />
    <glyph glyph-name="Iacute" unicode="&#xcd;" horiz-adv-x="345" 
d="M26 0v6l71 60v530l-71 60v6h292v-6l-70 -60v-530l70 -60v-6h-292zM52 704l-4 8l217 140l41 -107z" />
    <glyph glyph-name="Icircumflex" unicode="&#xce;" horiz-adv-x="345" 
d="M26 0v6l71 60v530l-71 60v6h292v-6l-70 -60v-530l70 -60v-6h-292zM174 854l152 -153l-4 -6l-148 50l-149 -50l-5 6z" />
    <glyph glyph-name="Idieresis" unicode="&#xcf;" horiz-adv-x="345" 
d="M26 0v6l71 60v530l-71 60v6h292v-6l-70 -60v-530l70 -60v-6h-292zM69 701q-28 0 -47 18t-19 46t19 46.5t47 18.5q27 0 46 -19t19 -46t-19 -45.5t-46 -18.5zM343 765q0 -27 -19 -45.5t-46 -18.5t-46 18.5t-19 45.5q0 28 19 46.5t46 18.5t46 -18.5t19 -46.5z" />
    <glyph glyph-name="Eth" unicode="&#xd0;" horiz-adv-x="748" 
d="M13 363h83v232l-70 62v5h318q103 0 187 -35t136.5 -108t52.5 -173q0 -149 -94.5 -247.5t-248.5 -98.5h-351v6l70 60v244h-83v53zM248 310v-236q40 -20 106 -20q87 0 145 83t58 198q0 130 -72 200.5t-182 70.5h-55v-243h173v-53h-173z" />
    <glyph glyph-name="Ntilde" unicode="&#xd1;" horiz-adv-x="775" 
d="M350 820q12 0 68 -9.5t71 -9.5q27 0 74 47l7 -2q-12 -50 -39 -89.5t-50 -39.5q-15 0 -70 9t-69 9q-27 0 -74 -47l-7 2q12 48 39.5 89t49.5 41zM754 662v-5l-71 -63v-594h-64l-451 497v-429l98 -62v-6h-241v6l72 62v506q-13 13 -33.5 34t-33 34t-13.5 15v5h208l387 -431
v363l-92 63v5h234z" />
    <glyph glyph-name="Ograve" unicode="&#xd2;" horiz-adv-x="760" 
d="M502 704l-253 41l39 107l218 -140zM30 322q0 151 103.5 251.5t244.5 100.5q148 0 250 -92t102 -240q0 -154 -104 -254t-242 -100q-146 0 -250 92.5t-104 241.5zM195 330q0 -124 57 -202.5t130 -78.5t128.5 78.5t55.5 202.5q0 126 -58.5 205.5t-129.5 79.5
q-72 0 -127.5 -80t-55.5 -205z" />
    <glyph glyph-name="Oacute" unicode="&#xd3;" horiz-adv-x="760" 
d="M259 704l-4 8l217 140l41 -107zM30 322q0 151 103.5 251.5t244.5 100.5q148 0 250 -92t102 -240q0 -154 -104 -254t-242 -100q-146 0 -250 92.5t-104 241.5zM195 330q0 -124 57 -202.5t130 -78.5t128.5 78.5t55.5 202.5q0 126 -58.5 205.5t-129.5 79.5q-72 0 -127.5 -80
t-55.5 -205z" />
    <glyph glyph-name="Ocircumflex" unicode="&#xd4;" horiz-adv-x="760" 
d="M380 854l152 -153l-4 -6l-148 50l-149 -50l-5 6zM30 322q0 151 103.5 251.5t244.5 100.5q148 0 250 -92t102 -240q0 -154 -104 -254t-242 -100q-146 0 -250 92.5t-104 241.5zM195 330q0 -124 57 -202.5t130 -78.5t128.5 78.5t55.5 202.5q0 126 -58.5 205.5t-129.5 79.5
q-72 0 -127.5 -80t-55.5 -205z" />
    <glyph glyph-name="Otilde" unicode="&#xd5;" horiz-adv-x="760" 
d="M329 820q12 0 68 -9.5t71 -9.5q27 0 74 47l7 -2q-12 -50 -39 -89.5t-50 -39.5q-14 0 -69 9t-70 9q-27 0 -74 -47l-7 2q12 48 39.5 89t49.5 41zM30 322q0 151 103.5 251.5t244.5 100.5q148 0 250 -92t102 -240q0 -154 -104 -254t-242 -100q-146 0 -250 92.5t-104 241.5z
M195 330q0 -124 57 -202.5t130 -78.5t128.5 78.5t55.5 202.5q0 126 -58.5 205.5t-129.5 79.5q-72 0 -127.5 -80t-55.5 -205z" />
    <glyph glyph-name="Odieresis" unicode="&#xd6;" horiz-adv-x="760" 
d="M276 701q-28 0 -47 18t-19 46t19 46.5t47 18.5q27 0 46 -19t19 -46t-19 -45.5t-46 -18.5zM550 765q0 -27 -19 -45.5t-46 -18.5t-46 18.5t-19 45.5q0 28 19 46.5t46 18.5t46 -18.5t19 -46.5zM30 322q0 151 103.5 251.5t244.5 100.5q148 0 250 -92t102 -240
q0 -154 -104 -254t-242 -100q-146 0 -250 92.5t-104 241.5zM195 330q0 -124 57 -202.5t130 -78.5t128.5 78.5t55.5 202.5q0 126 -58.5 205.5t-129.5 79.5q-72 0 -127.5 -80t-55.5 -205z" />
    <glyph glyph-name="multiply" unicode="&#xd7;" horiz-adv-x="416" 
d="M40 107l131 138l-131 138l40 39l129 -137l129 137l38 -37l-131 -138l131 -139l-38 -37l-131 136l-129 -136z" />
    <glyph glyph-name="Oslash" unicode="&#xd8;" horiz-adv-x="760" 
d="M30 322q0 151 103.5 251.5t244.5 100.5q90 0 168 -37l56 85l49 -30l-56 -84q135 -98 135 -266q0 -154 -104 -254t-242 -100q-93 0 -172 40l-66 -100l-47 29l65 99q-63 44 -98.5 112.5t-35.5 153.5zM566 330q0 98 -39 174l-261 -394q50 -61 116 -61q73 0 128.5 78.5
t55.5 202.5zM195 330q0 -98 37 -170l260 395q-54 60 -114 60q-72 0 -127.5 -80t-55.5 -205z" />
    <glyph glyph-name="Ugrave" unicode="&#xd9;" horiz-adv-x="753" 
d="M526 704l-253 41l39 107l218 -140zM664 238q0 -40 -15 -81t-45.5 -79.5t-86.5 -63t-128 -24.5q-148 0 -224 70.5t-76 173.5v362l-70 61v5h304v-5l-81 -61v-354q0 -75 44.5 -121t137.5 -46q78 0 124 49t46 118v354l-80 61v5h220v-5l-70 -61v-358z" />
    <glyph glyph-name="Uacute" unicode="&#xda;" horiz-adv-x="753" 
d="M280 704l-4 8l217 140l41 -107zM664 238q0 -40 -15 -81t-45.5 -79.5t-86.5 -63t-128 -24.5q-148 0 -224 70.5t-76 173.5v362l-70 61v5h304v-5l-81 -61v-354q0 -75 44.5 -121t137.5 -46q78 0 124 49t46 118v354l-80 61v5h220v-5l-70 -61v-358z" />
    <glyph glyph-name="Ucircumflex" unicode="&#xdb;" horiz-adv-x="753" 
d="M404 854l152 -153l-4 -6l-148 50l-149 -50l-5 6zM664 238q0 -40 -15 -81t-45.5 -79.5t-86.5 -63t-128 -24.5q-148 0 -224 70.5t-76 173.5v362l-70 61v5h304v-5l-81 -61v-354q0 -75 44.5 -121t137.5 -46q78 0 124 49t46 118v354l-80 61v5h220v-5l-70 -61v-358z" />
    <glyph glyph-name="Udieresis" unicode="&#xdc;" horiz-adv-x="753" 
d="M664 238q0 -40 -15 -81t-45.5 -79.5t-86.5 -63t-128 -24.5q-148 0 -224 70.5t-76 173.5v362l-70 61v5h304v-5l-81 -61v-354q0 -75 44.5 -121t137.5 -46q78 0 124 49t46 118v354l-80 61v5h220v-5l-70 -61v-358zM302 701q-28 0 -47 18t-19 46t19 46.5t47 18.5q27 0 46 -19
t19 -46t-19 -45.5t-46 -18.5zM576 765q0 -27 -19 -45.5t-46 -18.5t-46 18.5t-19 45.5q0 28 19 46.5t46 18.5t46 -18.5t19 -46.5z" />
    <glyph glyph-name="Yacute" unicode="&#xdd;" horiz-adv-x="624" 
d="M417 657v5h205v-5l-61 -61l-164 -264v-263l69 -63v-6h-291v6l70 63v244l-183 283l-60 61v5h300v-5l-70 -61l129 -207l126 203zM226 704l-4 8l217 140l41 -107z" />
    <glyph glyph-name="Thorn" unicode="&#xde;" horiz-adv-x="599" 
d="M248 513h59q271 0 271 -152q0 -60 -45.5 -102t-110 -59t-141.5 -17v13q147 48 147 154q0 56 -39.5 83t-106.5 27h-34v-394l82 -60v-6h-304v6l71 60v530l-71 60v6h293v-6l-71 -60v-83z" />
    <glyph glyph-name="germandbls" unicode="&#xdf;" horiz-adv-x="563" 
d="M326 720q82 0 129 -40.5t47 -97.5q0 -32 -21 -61.5t-45.5 -47.5t-45.5 -40t-21 -40q0 -16 14 -32.5t58 -52.5q58 -45 83.5 -81t25.5 -86q0 -64 -49.5 -107.5t-128.5 -43.5q-58 0 -104 23q-8 58 -6 141h8q47 -105 104 -105q23 0 37.5 16.5t14.5 40.5q0 25 -14 44t-53 50
q-52 41 -72.5 70t-20.5 66q0 28 17 58t37 52t37 56t17 71q0 41 -23 63.5t-51 22.5q-37 0 -68.5 -37.5t-31.5 -111.5v-454l49 -50v-6h-238v6l56 50v306h-73v6l73 57v38q0 110 76.5 183.5t182.5 73.5z" />
    <glyph glyph-name="agrave" unicode="&#xe0;" horiz-adv-x="460" 
d="M266 315q0 24 -17.5 39t-46.5 15q-26 0 -50 -17v-81l-118 40v6q104 127 221 127q73 0 108 -35.5t35 -73.5q0 -27 -1.5 -130t-1.5 -114q31 -18 67 -30v-6l-84 -77q-70 23 -108 67q-62 -58 -113 -58q-59 0 -96.5 34.5t-37.5 82.5q0 28 12 51t27 27l204 50v83zM265 77
q0 3 0.5 40.5t0.5 67.5q-83 -19 -109 -32q-7 -5 -7 -26q0 -27 18 -44t50 -17q25 0 47 11zM289 487l-181 158l96 70l93 -224z" />
    <glyph glyph-name="aacute" unicode="&#xe1;" horiz-adv-x="460" 
d="M266 315q0 24 -17.5 39t-46.5 15q-26 0 -50 -17v-81l-118 40v6q104 127 221 127q73 0 108 -35.5t35 -73.5q0 -27 -1.5 -130t-1.5 -114q31 -18 67 -30v-6l-84 -77q-70 23 -108 67q-62 -58 -113 -58q-59 0 -96.5 34.5t-37.5 82.5q0 28 12 51t27 27l204 50v83zM265 77
q0 3 0.5 40.5t0.5 67.5q-83 -19 -109 -32q-7 -5 -7 -26q0 -27 18 -44t50 -17q25 0 47 11zM170 485l-8 5l93 223l96 -69z" />
    <glyph glyph-name="acircumflex" unicode="&#xe2;" horiz-adv-x="460" 
d="M266 315q0 24 -17.5 39t-46.5 15q-26 0 -50 -17v-81l-118 40v6q104 127 221 127q73 0 108 -35.5t35 -73.5q0 -27 -1.5 -130t-1.5 -114q31 -18 67 -30v-6l-84 -77q-70 23 -108 67q-62 -58 -113 -58q-59 0 -96.5 34.5t-37.5 82.5q0 28 12 51t27 27l204 50v83zM265 77
q0 3 0.5 40.5t0.5 67.5q-83 -19 -109 -32q-7 -5 -7 -26q0 -27 18 -44t50 -17q25 0 47 11zM223 712l121 -229l-8 -5l-113 94l-113 -94l-8 5z" />
    <glyph glyph-name="atilde" unicode="&#xe3;" horiz-adv-x="460" 
d="M266 315q0 24 -17.5 39t-46.5 15q-26 0 -50 -17v-81l-118 40v6q104 127 221 127q73 0 108 -35.5t35 -73.5q0 -27 -1.5 -130t-1.5 -114q31 -18 67 -30v-6l-84 -77q-70 23 -108 67q-62 -58 -113 -58q-59 0 -96.5 34.5t-37.5 82.5q0 28 12 51t27 27l204 50v83zM265 77
q0 3 0.5 40.5t0.5 67.5q-83 -19 -109 -32q-7 -5 -7 -26q0 -27 18 -44t50 -17q25 0 47 11zM172 626q11 0 60.5 -13t61.5 -13q21 0 64 56l7 -3q-6 -55 -28 -96.5t-47 -41.5q-15 0 -63 12.5t-60 12.5q-22 0 -65 -55l-7 2q9 53 31.5 96t45.5 43z" />
    <glyph glyph-name="adieresis" unicode="&#xe4;" horiz-adv-x="460" 
d="M266 315q0 24 -17.5 39t-46.5 15q-26 0 -50 -17v-81l-118 40v6q104 127 221 127q73 0 108 -35.5t35 -73.5q0 -27 -1.5 -130t-1.5 -114q31 -18 67 -30v-6l-84 -77q-70 23 -108 67q-62 -58 -113 -58q-59 0 -96.5 34.5t-37.5 82.5q0 28 12 51t27 27l204 50v83zM265 77
q0 3 0.5 40.5t0.5 67.5q-83 -19 -109 -32q-7 -5 -7 -26q0 -27 18 -44t50 -17q25 0 47 11zM321 635q26 0 44.5 -18.5t18.5 -46.5q0 -27 -18 -44.5t-45 -17.5q-28 0 -46.5 17.5t-18.5 44.5q0 28 18.5 46.5t46.5 18.5zM136 635q27 0 45.5 -18.5t18.5 -46.5q0 -27 -18.5 -45
t-45.5 -18q-28 0 -46 18t-18 45q0 28 18 46.5t46 18.5z" />
    <glyph glyph-name="aring" unicode="&#xe5;" horiz-adv-x="460" 
d="M266 315q0 24 -17.5 39t-46.5 15q-26 0 -50 -17v-81l-118 40v6q104 127 221 127q73 0 108 -35.5t35 -73.5q0 -27 -1.5 -130t-1.5 -114q31 -18 67 -30v-6l-84 -77q-70 23 -108 67q-62 -58 -113 -58q-59 0 -96.5 34.5t-37.5 82.5q0 28 12 51t27 27l204 50v83zM265 77
q0 3 0.5 40.5t0.5 67.5q-83 -19 -109 -32q-7 -5 -7 -26q0 -27 18 -44t50 -17q25 0 47 11zM181 579q0 -21 13 -35.5t34 -14.5q20 0 33.5 14.5t13.5 35.5t-13.5 35.5t-33.5 14.5q-21 0 -34 -14.5t-13 -35.5zM138 579q0 36 27 62.5t63 26.5t63 -26.5t27 -62.5q0 -37 -27 -63
t-63 -26q-37 0 -63.5 25.5t-26.5 63.5z" />
    <glyph glyph-name="ae" unicode="&#xe6;" horiz-adv-x="666" 
d="M60 183q100 26 203 54v79q0 24 -16.5 38.5t-45.5 14.5q-26 0 -50 -17v-81l-118 40v6q18 22 31 35.5t42.5 39t67 39t78.5 13.5q68 0 102 -49q55 48 121 48q114 0 179 -149v-5l-263 -68q8 -67 48.5 -103.5t109.5 -36.5q54 0 108 21l4 -7q-26 -37 -77 -71t-117 -34
q-99 0 -156 70q-27 -31 -66.5 -52t-79.5 -21q-64 0 -103.5 34t-39.5 83q0 29 11.5 52t26.5 27zM216 66q41 0 72 29q-23 41 -26 95q-94 -30 -105 -35q-8 -6 -8 -28q0 -27 17 -44t50 -17zM470 391q-27 0 -52.5 -33t-28.5 -90l140 42q-3 37 -20.5 59t-38.5 22z" />
    <glyph glyph-name="ccedilla" unicode="&#xe7;" horiz-adv-x="440" 
d="M279 444q68 0 123 -11v-133h-8q-93 87 -146 87q-36 0 -67 -40t-31 -100q0 -73 43 -118t118 -45q68 0 111 23l6 -7q-48 -71 -121 -99q-29 -10 -59 -11l-25 -49q42 -9 71 -30t29 -55q0 -45 -49.5 -78t-160.5 -39l-5 12q113 45 113 87q0 16 -21 27t-43 14l-2 3l29 58
q4 7 10.5 21t9.5 20q1 2 2.5 5.5t2.5 5.5q-31 5 -53 13q-60 23 -96.5 75.5t-36.5 126.5q0 101 70.5 169t185.5 68z" />
    <glyph glyph-name="egrave" unicode="&#xe8;" horiz-adv-x="435" 
d="M148 256q0 -83 43.5 -128.5t122.5 -45.5q58 0 109 20l4 -7q-26 -37 -77 -71t-117 -34q-93 0 -151.5 60.5t-58.5 157.5q0 100 66.5 167.5t146.5 67.5q127 0 182 -169v-4h-270v-14zM231 391q-23 0 -43.5 -19.5t-31.5 -55.5h135q-3 40 -21.5 57.5t-38.5 17.5zM287 487
l-181 158l96 70l93 -224z" />
    <glyph glyph-name="eacute" unicode="&#xe9;" horiz-adv-x="435" 
d="M165 485l-8 5l93 223l96 -69zM148 256q0 -83 43.5 -128.5t122.5 -45.5q58 0 109 20l4 -7q-26 -37 -77 -71t-117 -34q-93 0 -151.5 60.5t-58.5 157.5q0 100 66.5 167.5t146.5 67.5q127 0 182 -169v-4h-270v-14zM231 391q-23 0 -43.5 -19.5t-31.5 -55.5h135
q-3 40 -21.5 57.5t-38.5 17.5z" />
    <glyph glyph-name="ecircumflex" unicode="&#xea;" horiz-adv-x="435" 
d="M226 712l121 -229l-8 -5l-113 94l-113 -94l-8 5zM148 256q0 -83 43.5 -128.5t122.5 -45.5q58 0 109 20l4 -7q-26 -37 -77 -71t-117 -34q-93 0 -151.5 60.5t-58.5 157.5q0 100 66.5 167.5t146.5 67.5q127 0 182 -169v-4h-270v-14zM231 391q-23 0 -43.5 -19.5t-31.5 -55.5
h135q-3 40 -21.5 57.5t-38.5 17.5z" />
    <glyph glyph-name="edieresis" unicode="&#xeb;" horiz-adv-x="435" 
d="M320 635q26 0 44.5 -18.5t18.5 -46.5q0 -27 -18 -44.5t-45 -17.5q-28 0 -46.5 17.5t-18.5 44.5q0 28 18.5 46.5t46.5 18.5zM135 635q27 0 45.5 -18.5t18.5 -46.5q0 -27 -18.5 -45t-45.5 -18q-28 0 -46 18t-18 45q0 28 18 46.5t46 18.5zM148 256q0 -83 43.5 -128.5
t122.5 -45.5q58 0 109 20l4 -7q-26 -37 -77 -71t-117 -34q-93 0 -151.5 60.5t-58.5 157.5q0 100 66.5 167.5t146.5 67.5q127 0 182 -169v-4h-270v-14zM231 391q-23 0 -43.5 -19.5t-31.5 -55.5h135q-3 40 -21.5 57.5t-38.5 17.5z" />
    <glyph glyph-name="igrave" unicode="&#xec;" horiz-adv-x="272" 
d="M14 0v6l56 50v282l-54 43v6q79 32 188 59v-390l56 -50v-6h-246zM194 487l-181 158l96 70l93 -224z" />
    <glyph glyph-name="iacute" unicode="&#xed;" horiz-adv-x="272" 
d="M73 485l-8 5l93 223l96 -69zM14 0v6l56 50v282l-54 43v6q79 32 188 59v-390l56 -50v-6h-246z" />
    <glyph glyph-name="icircumflex" unicode="&#xee;" horiz-adv-x="272" 
d="M129 712l121 -229l-8 -5l-113 94l-113 -94l-8 5zM14 0v6l56 50v282l-54 43v6q79 32 188 59v-390l56 -50v-6h-246z" />
    <glyph glyph-name="idieresis" unicode="&#xef;" horiz-adv-x="272" 
d="M14 0v6l56 50v282l-54 43v6q79 32 188 59v-390l56 -50v-6h-246zM223 635q27 0 45.5 -18.5t18.5 -46.5q0 -27 -18.5 -44.5t-45.5 -17.5q-28 0 -46 17.5t-18 44.5q0 28 18 46.5t46 18.5zM47 635q27 0 45.5 -18.5t18.5 -46.5q0 -27 -18.5 -45t-45.5 -18q-28 0 -46.5 18
t-18.5 45q0 28 18.5 46.5t46.5 18.5z" />
    <glyph glyph-name="eth" unicode="&#xf0;" horiz-adv-x="512" 
d="M64 720q110 -26 205 -86l110 64l26 -45l-90 -52q172 -133 172 -332q0 -129 -69 -205t-163 -76q-95 0 -165.5 60.5t-70.5 169.5q0 97 56.5 157t144.5 60q59 0 98 -31q-25 73 -86 150l-136 -78l-26 43l128 74q-57 62 -141 119zM345 252q0 50 -13 104q-31 24 -71 24
q-47 0 -72.5 -42t-25.5 -115q0 -78 29.5 -129t65.5 -51q34 0 60.5 57.5t26.5 151.5z" />
    <glyph glyph-name="ntilde" unicode="&#xf1;" horiz-adv-x="556" 
d="M14 0v6l56 50v282l-54 43v6q79 32 188 59v-80q81 77 153 77q58 0 96 -35.5t38 -69.5v-282l56 -50v-6h-244v6l54 50v243q0 23 -19.5 40.5t-55.5 17.5q-46 0 -78 -32v-269l55 -50v-6h-245zM229 626q11 0 60.5 -13t61.5 -13q21 0 64 56l7 -3q-6 -55 -28 -96.5t-47 -41.5
q-15 0 -63 12.5t-60 12.5q-22 0 -65 -55l-7 2q9 53 31.5 96t45.5 43z" />
    <glyph glyph-name="ograve" unicode="&#xf2;" horiz-adv-x="521" 
d="M22 210q0 105 74 169t165 64q59 0 112 -23.5t90 -75.5t37 -123q0 -105 -75 -169t-167 -64q-91 0 -163.5 59t-72.5 163zM168 216q0 -73 28 -123t65 -50q36 0 64.5 51t28.5 122q0 74 -27.5 123.5t-65.5 49.5q-37 0 -65 -50.5t-28 -122.5zM307 487l-181 158l96 70l93 -224z
" />
    <glyph glyph-name="oacute" unicode="&#xf3;" horiz-adv-x="521" 
d="M202 485l-8 5l93 223l96 -69zM22 210q0 105 74 169t165 64q59 0 112 -23.5t90 -75.5t37 -123q0 -105 -75 -169t-167 -64q-91 0 -163.5 59t-72.5 163zM168 216q0 -73 28 -123t65 -50q36 0 64.5 51t28.5 122q0 74 -27.5 123.5t-65.5 49.5q-37 0 -65 -50.5t-28 -122.5z" />
    <glyph glyph-name="ocircumflex" unicode="&#xf4;" horiz-adv-x="521" 
d="M260 712l121 -229l-8 -5l-113 94l-113 -94l-8 5zM22 210q0 105 74 169t165 64q59 0 112 -23.5t90 -75.5t37 -123q0 -105 -75 -169t-167 -64q-91 0 -163.5 59t-72.5 163zM168 216q0 -73 28 -123t65 -50q36 0 64.5 51t28.5 122q0 74 -27.5 123.5t-65.5 49.5
q-37 0 -65 -50.5t-28 -122.5z" />
    <glyph glyph-name="otilde" unicode="&#xf5;" horiz-adv-x="521" 
d="M22 210q0 105 74 169t165 64q59 0 112 -23.5t90 -75.5t37 -123q0 -105 -75 -169t-167 -64q-91 0 -163.5 59t-72.5 163zM168 216q0 -73 28 -123t65 -50q36 0 64.5 51t28.5 122q0 74 -27.5 123.5t-65.5 49.5q-37 0 -65 -50.5t-28 -122.5zM206 626q11 0 60.5 -13t61.5 -13
q21 0 64 56l7 -3q-6 -55 -28 -96.5t-47 -41.5q-15 0 -63 12.5t-60 12.5q-22 0 -65 -55l-7 2q9 53 31.5 96t45.5 43z" />
    <glyph glyph-name="odieresis" unicode="&#xf6;" horiz-adv-x="521" 
d="M353 635q26 0 44.5 -18.5t18.5 -46.5q0 -27 -18 -44.5t-45 -17.5q-28 0 -46.5 17.5t-18.5 44.5q0 28 18.5 46.5t46.5 18.5zM168 635q27 0 45.5 -18.5t18.5 -46.5q0 -27 -18.5 -45t-45.5 -18q-28 0 -46 18t-18 45q0 28 18 46.5t46 18.5zM22 210q0 105 74 169t165 64
q59 0 112 -23.5t90 -75.5t37 -123q0 -105 -75 -169t-167 -64q-91 0 -163.5 59t-72.5 163zM168 216q0 -73 28 -123t65 -50q36 0 64.5 51t28.5 122q0 74 -27.5 123.5t-65.5 49.5q-37 0 -65 -50.5t-28 -122.5z" />
    <glyph glyph-name="divide" unicode="&#xf7;" horiz-adv-x="472" 
d="M169 79q0 28 19 47t48 19t48 -19t19 -47q0 -27 -19 -46t-48 -19t-48 19t-19 46zM169 408q0 29 19 48t48 19t48 -19t19 -48q0 -27 -19 -45.5t-48 -18.5t-48 18.5t-19 45.5zM38 273h396v-53h-396v53z" />
    <glyph glyph-name="oslash" unicode="&#xf8;" horiz-adv-x="521" 
d="M22 210q0 105 74 169t165 64q51 0 96 -19l44 72l42 -25l-42 -69q98 -63 98 -181q0 -105 -74.5 -169t-165.5 -64q-54 0 -99 19l-45 -74l-43 23l45 74q-95 61 -95 180zM361 216q0 57 -15 96l-144 -237q24 -32 59 -32q39 0 69.5 50.5t30.5 122.5zM162 216q0 -55 13 -91
l144 236q-25 28 -58 28q-40 0 -69.5 -50t-29.5 -123z" />
    <glyph glyph-name="ugrave" unicode="&#xf9;" horiz-adv-x="539" 
d="M6 381v6q59 26 187 59v-310q0 -27 16.5 -43.5t49.5 -16.5q40 0 78 29v233l-65 43v6q55 23 200 59v-364l66 -37v-7q-48 -12 -83 -21q-87 -21 -118 -28v77q-79 -76 -146 -76q-60 0 -96 35t-36 74v239zM323 487l-181 158l96 70l93 -224z" />
    <glyph glyph-name="uacute" unicode="&#xfa;" horiz-adv-x="539" 
d="M223 485l-8 5l93 223l96 -69zM6 381v6q59 26 187 59v-310q0 -27 16.5 -43.5t49.5 -16.5q40 0 78 29v233l-65 43v6q55 23 200 59v-364l66 -37v-7q-48 -12 -83 -21q-87 -21 -118 -28v77q-79 -76 -146 -76q-60 0 -96 35t-36 74v239z" />
    <glyph glyph-name="ucircumflex" unicode="&#xfb;" horiz-adv-x="539" 
d="M261 712l121 -229l-8 -5l-113 94l-113 -94l-8 5zM6 381v6q59 26 187 59v-310q0 -27 16.5 -43.5t49.5 -16.5q40 0 78 29v233l-65 43v6q55 23 200 59v-364l66 -37v-7q-48 -12 -83 -21q-87 -21 -118 -28v77q-79 -76 -146 -76q-60 0 -96 35t-36 74v239z" />
    <glyph glyph-name="udieresis" unicode="&#xfc;" horiz-adv-x="539" 
d="M352 635q26 0 44.5 -18.5t18.5 -46.5q0 -27 -18 -44.5t-45 -17.5q-28 0 -46.5 17.5t-18.5 44.5q0 28 18.5 46.5t46.5 18.5zM167 635q27 0 45.5 -18.5t18.5 -46.5q0 -27 -18.5 -45t-45.5 -18q-28 0 -46 18t-18 45q0 28 18 46.5t46 18.5zM6 381v6q59 26 187 59v-310
q0 -27 16.5 -43.5t49.5 -16.5q40 0 78 29v233l-65 43v6q55 23 200 59v-364l66 -37v-7q-48 -12 -83 -21q-87 -21 -118 -28v77q-79 -76 -146 -76q-60 0 -96 35t-36 74v239z" />
    <glyph glyph-name="yacute" unicode="&#xfd;" horiz-adv-x="449" 
d="M264 21q-70 -177 -82 -265h-139v5q90 72 157 242l5 12l-162 361l-48 49v6h247v-6l-51 -49l80 -193l72 193l-51 49v6h163v-6l-49 -49zM208 485l-8 5l93 223l96 -69z" />
    <glyph glyph-name="thorn" unicode="&#xfe;" horiz-adv-x="521" 
d="M-7 653v6q97 43 195 67v-349q73 66 136 66q73 0 120.5 -53t47.5 -144q0 -112 -67.5 -181t-178.5 -69q-39 0 -58 1v-185l80 -50v-6h-271v6l55 50v794zM246 360q-37 0 -58 -16v-279q18 -14 49 -14q49 0 81 46t32 120q0 67 -27 105t-77 38z" />
    <glyph glyph-name="ydieresis" unicode="&#xff;" horiz-adv-x="449" 
d="M264 21q-70 -177 -82 -265h-139v5q90 72 157 242l5 12l-162 361l-48 49v6h247v-6l-51 -49l80 -193l72 193l-51 49v6h163v-6l-49 -49zM337 635q26 0 44.5 -18.5t18.5 -46.5q0 -27 -18 -44.5t-45 -17.5q-28 0 -46.5 17.5t-18.5 44.5q0 28 18.5 46.5t46.5 18.5zM152 635
q27 0 45.5 -18.5t18.5 -46.5q0 -27 -18.5 -45t-45.5 -18q-28 0 -46 18t-18 45q0 28 18 46.5t46 18.5z" />
    <glyph glyph-name="Amacron" unicode="&#x100;" horiz-adv-x="655" 
d="M207 6v-6h-205v6l61 60l238 603h34l258 -603l60 -60v-6h-289v6l70 60l-61 143h-186l-53 -138zM209 264h141l-74 174zM187 787h263v-73h-263v73z" />
    <glyph glyph-name="amacron" unicode="&#x101;" horiz-adv-x="460" 
d="M266 315q0 24 -17.5 39t-46.5 15q-26 0 -50 -17v-81l-118 40v6q104 127 221 127q73 0 108 -35.5t35 -73.5q0 -27 -1.5 -130t-1.5 -114q31 -18 67 -30v-6l-84 -77q-70 23 -108 67q-62 -58 -113 -58q-59 0 -96.5 34.5t-37.5 82.5q0 28 12 51t27 27l204 50v83zM265 77
q0 3 0.5 40.5t0.5 67.5q-83 -19 -109 -32q-7 -5 -7 -26q0 -27 18 -44t50 -17q25 0 47 11zM107 594h231v-74h-231v74z" />
    <glyph glyph-name="Abreve" unicode="&#x102;" horiz-adv-x="655" 
d="M207 6v-6h-205v6l61 60l238 603h34l258 -603l60 -60v-6h-289v6l70 60l-61 143h-186l-53 -138zM209 264h141l-74 174zM319 701q-59 0 -91 41t-32 95l7 1q40 -58 116 -58t116 58l7 -1q0 -53 -32 -94.5t-91 -41.5z" />
    <glyph glyph-name="abreve" unicode="&#x103;" horiz-adv-x="460" 
d="M266 315q0 24 -17.5 39t-46.5 15q-26 0 -50 -17v-81l-118 40v6q104 127 221 127q73 0 108 -35.5t35 -73.5q0 -27 -1.5 -130t-1.5 -114q31 -18 67 -30v-6l-84 -77q-70 23 -108 67q-62 -58 -113 -58q-59 0 -96.5 34.5t-37.5 82.5q0 28 12 51t27 27l204 50v83zM265 77
q0 3 0.5 40.5t0.5 67.5q-83 -19 -109 -32q-7 -5 -7 -26q0 -27 18 -44t50 -17q25 0 47 11zM222 575q35 0 61.5 22.5t38.5 49.5l8 -1q2 -63 -26.5 -106t-81.5 -43t-81.5 42.5t-26.5 106.5l8 1q12 -27 38.5 -49.5t61.5 -22.5z" />
    <glyph glyph-name="Aogonek" unicode="&#x104;" horiz-adv-x="655" 
d="M462 0l-89 209h-186l-53 -138l73 -65v-6h-205v6l61 60l238 603h34l258 -603l60 -60v-6h-161q-65 -70 -65 -124q0 -28 18.5 -45.5t51.5 -17.5q29 0 54 9l4 -5q-17 -25 -55 -49t-86 -24q-50 0 -78.5 25t-28.5 65q0 84 155 166zM209 264h141l-73 175z" />
    <glyph glyph-name="aogonek" unicode="&#x105;" horiz-adv-x="460" 
d="M395 91q31 -18 67 -30v-6q-46 -41 -67 -61t-41.5 -54t-20.5 -65q0 -29 18 -45.5t52 -16.5q28 0 53 9l4 -5q-18 -26 -55 -49.5t-86 -23.5t-77.5 25t-28.5 65q0 79 141 154q-55 24 -84 57q-62 -58 -113 -58q-59 0 -96.5 34.5t-37.5 82.5q0 28 12 51t27 27l204 50v83
q0 24 -17.5 39t-46.5 15q-26 0 -50 -17v-81l-118 40v6q104 127 221 127q73 0 108 -35.5t35 -73.5q0 -27 -1.5 -130t-1.5 -114zM218 66q25 0 47 11q0 3 0.5 40.5t0.5 67.5q-83 -19 -109 -32q-7 -5 -7 -26q0 -27 18 -44t50 -17z" />
    <glyph glyph-name="Cacute" unicode="&#x106;" horiz-adv-x="669" 
d="M406 -11q-161 0 -268.5 92t-107.5 247q0 147 107.5 245.5t274.5 98.5q112 0 199 -25v-158h-8q-41 48 -101.5 86t-113.5 38q-74 0 -133 -76.5t-59 -191.5q0 -134 65 -215t151 -81q106 0 203 130h8v-149q-96 -41 -217 -41zM260 704l-4 8l217 140l41 -107z" />
    <glyph glyph-name="cacute" unicode="&#x107;" horiz-adv-x="440" 
d="M182 485l-8 5l93 223l96 -69zM279 444q68 0 123 -11v-133h-8q-93 87 -146 87q-36 0 -67 -40t-31 -100q0 -73 43 -118t118 -45q68 0 111 23l6 -7q-74 -110 -188 -110q-91 0 -154 59.5t-63 157.5q0 101 70.5 169t185.5 68z" />
    <glyph glyph-name="Ccircumflex" unicode="&#x108;" horiz-adv-x="669" 
d="M382 854l152 -153l-4 -6l-148 50l-149 -50l-5 6zM406 -11q-161 0 -268.5 92t-107.5 247q0 147 107.5 245.5t274.5 98.5q112 0 199 -25v-158h-8q-41 48 -101.5 86t-113.5 38q-74 0 -133 -76.5t-59 -191.5q0 -134 65 -215t151 -81q106 0 203 130h8v-149q-96 -41 -217 -41z
" />
    <glyph glyph-name="ccircumflex" unicode="&#x109;" horiz-adv-x="440" 
d="M238 712l121 -229l-8 -5l-113 94l-113 -94l-8 5zM279 444q68 0 123 -11v-133h-8q-93 87 -146 87q-36 0 -67 -40t-31 -100q0 -73 43 -118t118 -45q68 0 111 23l6 -7q-74 -110 -188 -110q-91 0 -154 59.5t-63 157.5q0 101 70.5 169t185.5 68z" />
    <glyph glyph-name="Cdotaccent" unicode="&#x10a;" horiz-adv-x="669" 
d="M406 -11q-161 0 -268.5 92t-107.5 247q0 147 107.5 245.5t274.5 98.5q112 0 199 -25v-158h-8q-41 48 -101.5 86t-113.5 38q-74 0 -133 -76.5t-59 -191.5q0 -134 65 -215t151 -81q106 0 203 130h8v-149q-96 -41 -217 -41zM312 769q0 29 20 48.5t49 19.5t49.5 -19.5
t20.5 -48.5t-20 -48t-50 -19q-29 0 -49 19t-20 48z" />
    <glyph glyph-name="cdotaccent" unicode="&#x10b;" horiz-adv-x="440" 
d="M279 444q68 0 123 -11v-133h-8q-93 87 -146 87q-36 0 -67 -40t-31 -100q0 -73 43 -118t118 -45q68 0 111 23l6 -7q-74 -110 -188 -110q-91 0 -154 59.5t-63 157.5q0 101 70.5 169t185.5 68zM173 574q0 29 20.5 48.5t49.5 19.5t49 -19.5t20 -48.5t-20 -48t-49 -19
q-30 0 -50 19t-20 48z" />
    <glyph glyph-name="Ccaron" unicode="&#x10c;" horiz-adv-x="669" 
d="M233 851l149 -50l148 50l4 -6l-152 -153l-154 153zM406 -11q-161 0 -268.5 92t-107.5 247q0 147 107.5 245.5t274.5 98.5q112 0 199 -25v-158h-8q-41 48 -101.5 86t-113.5 38q-74 0 -133 -76.5t-59 -191.5q0 -134 65 -215t151 -81q106 0 203 130h8v-149q-96 -41 -217 -41
z" />
    <glyph glyph-name="ccaron" unicode="&#x10d;" horiz-adv-x="440" 
d="M126 712l113 -94l113 94l8 -5l-121 -229l-121 229zM279 444q68 0 123 -11v-133h-8q-93 87 -146 87q-36 0 -67 -40t-31 -100q0 -73 43 -118t118 -45q68 0 111 23l6 -7q-74 -110 -188 -110q-91 0 -154 59.5t-63 157.5q0 101 70.5 169t185.5 68z" />
    <glyph glyph-name="Dcaron" unicode="&#x10e;" horiz-adv-x="748" 
d="M211 851l149 -50l148 50l4 -6l-152 -153l-154 153zM344 662q103 0 187 -35t136.5 -108t52.5 -173q0 -149 -94 -247.5t-249 -98.5h-350v6l69 60v529l-69 62v5h317zM248 606v-532q40 -20 107 -20q86 0 144 83.5t58 197.5q0 130 -71.5 200.5t-181.5 70.5h-56z" />
    <glyph glyph-name="dcaron" unicode="&#x10f;" horiz-adv-x="531" 
d="M505 499l14 216h106l-112 -216h-8zM260 651v6q18 8 86.5 32t117.5 37v-640l72 -41v-7q-27 -7 -77 -19q-72 -18 -125 -30v62q-75 -62 -121 -62q-73 0 -130.5 57t-57.5 149q0 102 68 170.5t189 68.5q10 0 26 -0.5t21 -0.5v171zM287 74q25 0 42 12v275q-18 21 -54 21
q-48 0 -79 -43t-31 -110q0 -69 34 -112t88 -43z" />
    <glyph glyph-name="Dcroat" unicode="&#x110;" horiz-adv-x="748" 
d="M13 363h83v232l-70 62v5h318q103 0 187 -35t136.5 -108t52.5 -173q0 -149 -94.5 -247.5t-248.5 -98.5h-351v6l70 60v244h-83v53zM248 310v-236q40 -20 106 -20q87 0 145 83t58 198q0 130 -72 200.5t-182 70.5h-55v-243h173v-53h-173z" />
    <glyph glyph-name="dcroat" unicode="&#x111;" horiz-adv-x="531" 
d="M172 512v50h368v-50h-368zM260 651v6q18 8 86.5 32t117.5 37v-640l72 -41v-7q-27 -7 -77 -19q-72 -18 -125 -30v62q-75 -62 -121 -62q-73 0 -130.5 57t-57.5 149q0 102 68 170.5t189 68.5q10 0 26 -0.5t21 -0.5v171zM287 74q25 0 42 12v275q-18 21 -54 21q-48 0 -79 -43
t-31 -110q0 -69 34 -112t88 -43z" />
    <glyph glyph-name="Emacron" unicode="&#x112;" horiz-adv-x="559" 
d="M26 0v6l71 60v530l-71 61v5h471v-148h-6l-82 91h-162v-230h169l59 72h6v-199h-6l-59 72h-169v-262h181l84 116h7v-174h-493zM157 787h263v-73h-263v73z" />
    <glyph glyph-name="emacron" unicode="&#x113;" horiz-adv-x="435" 
d="M148 256q0 -83 43.5 -128.5t122.5 -45.5q58 0 109 20l4 -7q-26 -37 -77 -71t-117 -34q-93 0 -151.5 60.5t-58.5 157.5q0 100 66.5 167.5t146.5 67.5q127 0 182 -169v-4h-270v-14zM231 391q-23 0 -43.5 -19.5t-31.5 -55.5h135q-3 40 -21.5 57.5t-38.5 17.5zM112 594h231
v-74h-231v74z" />
    <glyph glyph-name="Ebreve" unicode="&#x114;" horiz-adv-x="559" 
d="M26 0v6l71 60v530l-71 61v5h471v-148h-6l-82 91h-162v-230h169l59 72h6v-199h-6l-59 72h-169v-262h181l84 116h7v-174h-493zM285 701q-59 0 -91 41t-32 95l7 1q40 -58 116 -58t116 58l7 -1q0 -53 -32 -94.5t-91 -41.5z" />
    <glyph glyph-name="ebreve" unicode="&#x115;" horiz-adv-x="435" 
d="M148 256q0 -83 43.5 -128.5t122.5 -45.5q58 0 109 20l4 -7q-26 -37 -77 -71t-117 -34q-93 0 -151.5 60.5t-58.5 157.5q0 100 66.5 167.5t146.5 67.5q127 0 182 -169v-4h-270v-14zM231 391q-23 0 -43.5 -19.5t-31.5 -55.5h135q-3 40 -21.5 57.5t-38.5 17.5zM224 575
q35 0 61.5 22.5t38.5 49.5l8 -1q2 -63 -26.5 -106t-81.5 -43t-81.5 42.5t-26.5 106.5l8 1q12 -27 38.5 -49.5t61.5 -22.5z" />
    <glyph glyph-name="Edotaccent" unicode="&#x116;" horiz-adv-x="559" 
d="M221 769q0 29 20 48.5t49 19.5t49.5 -19.5t20.5 -48.5t-20 -48t-50 -19q-29 0 -49 19t-20 48zM26 0v6l71 60v530l-71 61v5h471v-148h-6l-82 91h-162v-230h169l59 72h6v-199h-6l-59 72h-169v-262h181l84 116h7v-174h-493z" />
    <glyph glyph-name="edotaccent" unicode="&#x117;" horiz-adv-x="435" 
d="M148 256q0 -83 43.5 -128.5t122.5 -45.5q58 0 109 20l4 -7q-26 -37 -77 -71t-117 -34q-93 0 -151.5 60.5t-58.5 157.5q0 100 66.5 167.5t146.5 67.5q127 0 182 -169v-4h-270v-14zM231 391q-23 0 -43.5 -19.5t-31.5 -55.5h135q-3 40 -21.5 57.5t-38.5 17.5zM161 574
q0 29 20.5 48.5t49.5 19.5t49 -19.5t20 -48.5t-20 -48t-49 -19q-30 0 -50 19t-20 48z" />
    <glyph glyph-name="Eogonek" unicode="&#x118;" horiz-adv-x="559" 
d="M363 -256q-50 0 -78.5 25t-28.5 65q0 84 155 166h30q-65 -70 -65 -124q0 -28 18.5 -45.5t51.5 -17.5q29 0 54 9l4 -5q-17 -25 -55 -49t-86 -24zM26 0v6l71 60v530l-71 61v5h471v-148h-6l-82 91h-162v-230h169l59 72h6v-199h-6l-59 72h-169v-262h181l84 116h7v-174h-493z
" />
    <glyph glyph-name="eogonek" unicode="&#x119;" horiz-adv-x="435" 
d="M164 -166q0 45 37 83t114 89q-41 -16 -82 -16q-93 0 -151.5 60.5t-58.5 157.5q0 100 66.5 167.5t146.5 67.5q127 0 182 -169v-4h-270v-14q0 -83 43.5 -128.5t122.5 -45.5q58 0 109 20l4 -7q-14 -20 -73 -87q-34 -37 -52 -67.5t-18 -64.5q0 -28 18 -45.5t52 -17.5
q29 0 54 9l4 -5q-17 -26 -55 -49.5t-87 -23.5t-77.5 25t-28.5 65zM231 391q-23 0 -43.5 -19.5t-31.5 -55.5h135q-3 40 -21.5 57.5t-38.5 17.5z" />
    <glyph glyph-name="Ecaron" unicode="&#x11a;" horiz-adv-x="559" 
d="M137 851l149 -50l148 50l4 -6l-152 -153l-154 153zM26 0v6l71 60v530l-71 61v5h471v-148h-6l-82 91h-162v-230h169l59 72h6v-199h-6l-59 72h-169v-262h181l84 116h7v-174h-493z" />
    <glyph glyph-name="ecaron" unicode="&#x11b;" horiz-adv-x="435" 
d="M114 712l113 -94l113 94l8 -5l-121 -229l-121 229zM148 256q0 -83 43.5 -128.5t122.5 -45.5q58 0 109 20l4 -7q-26 -37 -77 -71t-117 -34q-93 0 -151.5 60.5t-58.5 157.5q0 100 66.5 167.5t146.5 67.5q127 0 182 -169v-4h-270v-14zM231 391q-23 0 -43.5 -19.5
t-31.5 -55.5h135q-3 40 -21.5 57.5t-38.5 17.5z" />
    <glyph glyph-name="Gcircumflex" unicode="&#x11c;" horiz-adv-x="723" 
d="M384 854l152 -153l-4 -6l-148 50l-149 -50l-5 6zM654 39q-15 -3 -58 -17t-89 -23t-104 -9q-161 0 -267 94t-106 243q0 145 106.5 245.5t276.5 100.5q63 0 124.5 -9t88.5 -17v-155h-7q-49 51 -109.5 86.5t-115.5 35.5q-78 0 -138.5 -73t-60.5 -195q0 -131 68 -214t158 -83
q56 0 88 22v207l-80 60v6h281v-6l-56 -60v-239z" />
    <glyph glyph-name="gcircumflex" unicode="&#x11d;" horiz-adv-x="478" 
d="M223 712l121 -229l-8 -5l-113 94l-113 -94l-8 5zM30 305q0 58 53.5 99t135.5 41q47 0 91 -14h155v-56h-83q29 -32 29 -66q0 -62 -49.5 -103t-142.5 -41q-31 0 -60 6q-20 -20 -20 -38q0 -28 28 -28h189q30 0 67 -36t37 -96q0 -90 -80 -158.5t-193 -68.5q-80 0 -127 29.5
t-47 70.5q0 33 30 73t66 68q-72 28 -72 98q0 36 15 51l71 47q-93 39 -93 122zM142 -21q-13 -13 -24 -37.5t-11 -46.5q0 -28 31.5 -48t88.5 -20q59 0 97.5 27.5t38.5 67.5q0 28 -20 42.5t-45 14.5h-156zM156 305q0 -38 20 -66t45 -28q27 0 45.5 27.5t18.5 66.5t-18.5 67
t-45.5 28t-46 -28t-19 -67z" />
    <glyph glyph-name="Gbreve" unicode="&#x11e;" horiz-adv-x="723" 
d="M384 701q-59 0 -91 41t-32 95l7 1q40 -58 116 -58t116 58l7 -1q0 -53 -32 -94.5t-91 -41.5zM654 39q-15 -3 -58 -17t-89 -23t-104 -9q-161 0 -267 94t-106 243q0 145 106.5 245.5t276.5 100.5q63 0 124.5 -9t88.5 -17v-155h-7q-49 51 -109.5 86.5t-115.5 35.5
q-78 0 -138.5 -73t-60.5 -195q0 -131 68 -214t158 -83q56 0 88 22v207l-80 60v6h281v-6l-56 -60v-239z" />
    <glyph glyph-name="gbreve" unicode="&#x11f;" horiz-adv-x="478" 
d="M30 305q0 58 53.5 99t135.5 41q47 0 91 -14h155v-56h-83q29 -32 29 -66q0 -62 -49.5 -103t-142.5 -41q-31 0 -60 6q-20 -20 -20 -38q0 -28 28 -28h189q30 0 67 -36t37 -96q0 -90 -80 -158.5t-193 -68.5q-80 0 -127 29.5t-47 70.5q0 33 30 73t66 68q-72 28 -72 98
q0 36 15 51l71 47q-93 39 -93 122zM142 -21q-13 -13 -24 -37.5t-11 -46.5q0 -28 31.5 -48t88.5 -20q59 0 97.5 27.5t38.5 67.5q0 28 -20 42.5t-45 14.5h-156zM156 305q0 -38 20 -66t45 -28q27 0 45.5 27.5t18.5 66.5t-18.5 67t-45.5 28t-46 -28t-19 -67zM222 575
q35 0 61.5 22.5t38.5 49.5l8 -1q2 -63 -26.5 -106t-81.5 -43t-81.5 42.5t-26.5 106.5l8 1q12 -27 38.5 -49.5t61.5 -22.5z" />
    <glyph glyph-name="Gdotaccent" unicode="&#x120;" horiz-adv-x="723" 
d="M314 769q0 29 20 48.5t49 19.5t49.5 -19.5t20.5 -48.5t-20 -48t-50 -19q-29 0 -49 19t-20 48zM654 39q-15 -3 -58 -17t-89 -23t-104 -9q-161 0 -267 94t-106 243q0 145 106.5 245.5t276.5 100.5q63 0 124.5 -9t88.5 -17v-155h-7q-49 51 -109.5 86.5t-115.5 35.5
q-78 0 -138.5 -73t-60.5 -195q0 -131 68 -214t158 -83q56 0 88 22v207l-80 60v6h281v-6l-56 -60v-239z" />
    <glyph glyph-name="gdotaccent" unicode="&#x121;" horiz-adv-x="478" 
d="M30 305q0 58 53.5 99t135.5 41q47 0 91 -14h155v-56h-83q29 -32 29 -66q0 -62 -49.5 -103t-142.5 -41q-31 0 -60 6q-20 -20 -20 -38q0 -28 28 -28h189q30 0 67 -36t37 -96q0 -90 -80 -158.5t-193 -68.5q-80 0 -127 29.5t-47 70.5q0 33 30 73t66 68q-72 28 -72 98
q0 36 15 51l71 47q-93 39 -93 122zM142 -21q-13 -13 -24 -37.5t-11 -46.5q0 -28 31.5 -48t88.5 -20q59 0 97.5 27.5t38.5 67.5q0 28 -20 42.5t-45 14.5h-156zM156 305q0 -38 20 -66t45 -28q27 0 45.5 27.5t18.5 66.5t-18.5 67t-45.5 28t-46 -28t-19 -67zM153 574
q0 29 20.5 48.5t49.5 19.5t49 -19.5t20 -48.5t-20 -48t-49 -19q-30 0 -50 19t-20 48z" />
    <glyph glyph-name="Gcommaaccent" unicode="&#x122;" horiz-adv-x="723" 
d="M458 -128q0 -46 -31 -82.5t-82 -57.5l-13 6q45 55 56 102q0 -1 -1 -1h-4q-26 0 -43 14t-17 37q0 26 18 40.5t46 14.5q31 0 51 -20t20 -53zM654 39q-15 -3 -58 -17t-89 -23t-104 -9q-161 0 -267 94t-106 243q0 145 106.5 245.5t276.5 100.5q63 0 124.5 -9t88.5 -17v-155
h-7q-49 51 -109.5 86.5t-115.5 35.5q-78 0 -138.5 -73t-60.5 -195q0 -131 68 -214t158 -83q56 0 88 22v207l-80 60v6h281v-6l-56 -60v-239z" />
    <glyph glyph-name="gcommaaccent" unicode="&#x123;" horiz-adv-x="478" 
d="M151 569q0 46 31.5 82t81.5 58l13 -7q-45 -57 -56 -101h1l1 1h3q27 0 43.5 -13.5t16.5 -36.5q0 -26 -18 -41t-46 -15q-31 0 -51 20t-20 53zM30 305q0 58 53.5 99t135.5 41q47 0 91 -14h155v-56h-83q29 -32 29 -66q0 -62 -49.5 -103t-142.5 -41q-31 0 -60 6
q-20 -20 -20 -38q0 -28 28 -28h189q30 0 67 -36t37 -96q0 -90 -80 -158.5t-193 -68.5q-80 0 -127 29.5t-47 70.5q0 33 30 73t66 68q-72 28 -72 98q0 36 15 51l71 47q-93 39 -93 122zM142 -21q-13 -13 -24 -37.5t-11 -46.5q0 -28 31.5 -48t88.5 -20q59 0 97.5 27.5t38.5 67.5
q0 28 -20 42.5t-45 14.5h-156zM156 305q0 -38 20 -66t45 -28q27 0 45.5 27.5t18.5 66.5t-18.5 67t-45.5 28t-46 -28t-19 -67z" />
    <glyph glyph-name="Hcircumflex" unicode="&#x124;" horiz-adv-x="800" 
d="M249 365h303v231l-70 60v6h291v-6l-70 -60v-530l70 -60v-6h-291v6l70 60v241h-303v-241l71 -60v-6h-294v6l71 60v530l-71 60v6h294v-6l-71 -60v-231zM400 854l152 -153l-4 -6l-148 50l-149 -50l-5 6z" />
    <glyph glyph-name="hcircumflex" unicode="&#x125;" horiz-adv-x="556" 
d="M14 0v6l56 50v550l-59 47v6q17 8 81 31t112 36v-360q81 77 153 77q58 0 96 -35.5t38 -69.5v-282l56 -50v-6h-244v6l54 50v243q0 23 -19.5 40.5t-55.5 17.5q-43 0 -78 -32v-269l55 -50v-6h-245zM280 896l152 -153l-4 -6l-148 50l-149 -50l-5 6z" />
    <glyph glyph-name="Hbar" unicode="&#x126;" horiz-adv-x="800" 
d="M13 466v52h774v-52h-774zM249 365h303v231l-70 60v6h291v-6l-70 -60v-530l70 -60v-6h-291v6l70 60v241h-303v-241l71 -60v-6h-294v6l71 60v530l-71 60v6h294v-6l-71 -60v-231z" />
    <glyph glyph-name="hbar" unicode="&#x127;" horiz-adv-x="556" 
d="M-6 512v50h362v-50h-362zM14 0v6l56 50v550l-59 47v6q17 8 81 31t112 36v-360q81 77 153 77q58 0 96 -35.5t38 -69.5v-282l56 -50v-6h-244v6l54 50v243q0 23 -19.5 40.5t-55.5 17.5q-43 0 -78 -32v-269l55 -50v-6h-245z" />
    <glyph glyph-name="Itilde" unicode="&#x128;" horiz-adv-x="345" 
d="M26 0v6l71 60v530l-71 60v6h292v-6l-70 -60v-530l70 -60v-6h-292zM122 820q12 0 68 -9.5t71 -9.5q27 0 74 47l7 -2q-12 -50 -39 -89.5t-50 -39.5q-14 0 -69.5 9t-69.5 9q-27 0 -74 -47l-7 2q12 48 39.5 89t49.5 41z" />
    <glyph glyph-name="itilde" unicode="&#x129;" horiz-adv-x="272" 
d="M14 0v6l56 50v282l-54 43v6q79 32 188 59v-390l56 -50v-6h-246zM79 626q11 0 60.5 -13t61.5 -13q21 0 64 56l7 -3q-6 -55 -28 -96.5t-47 -41.5q-15 0 -63 12.5t-60 12.5q-22 0 -65 -55l-7 2q9 53 31.5 96t45.5 43z" />
    <glyph glyph-name="Imacron" unicode="&#x12a;" horiz-adv-x="345" 
d="M26 0v6l71 60v530l-71 60v6h292v-6l-70 -60v-530l70 -60v-6h-292zM42 787h263v-73h-263v73z" />
    <glyph glyph-name="imacron" unicode="&#x12b;" horiz-adv-x="272" 
d="M14 0v6l56 50v282l-54 43v6q79 32 188 59v-390l56 -50v-6h-246zM16 594h231v-74h-231v74z" />
    <glyph glyph-name="Ibreve" unicode="&#x12c;" horiz-adv-x="345" 
d="M26 0v6l71 60v530l-71 60v6h292v-6l-70 -60v-530l70 -60v-6h-292zM173 701q-59 0 -91 41t-32 95l7 1q40 -58 116 -58t116 58l7 -1q0 -53 -32 -94.5t-91 -41.5z" />
    <glyph glyph-name="ibreve" unicode="&#x12d;" horiz-adv-x="272" 
d="M14 0v6l56 50v282l-54 43v6q79 32 188 59v-390l56 -50v-6h-246zM131 575q35 0 61.5 22.5t38.5 49.5l8 -1q2 -63 -26.5 -106t-81.5 -43t-81.5 42.5t-26.5 106.5l8 1q12 -27 38.5 -49.5t61.5 -22.5z" />
    <glyph glyph-name="Iogonek" unicode="&#x12e;" horiz-adv-x="345" 
d="M183 -256q-48 0 -77 25t-29 65q0 83 133 166h30q-43 -66 -43 -122q0 -30 18.5 -47.5t51.5 -17.5q28 0 53 9l4 -5q-18 -26 -55 -49.5t-86 -23.5zM26 0v6l71 60v530l-71 60v6h292v-6l-70 -60v-530l70 -60v-6h-292z" />
    <glyph glyph-name="iogonek" unicode="&#x12f;" horiz-adv-x="272" 
d="M149 -256q-49 0 -77.5 25t-28.5 66q0 87 129 165h28q-37 -65 -37 -116q0 -32 17.5 -51.5t50.5 -19.5q20 0 49 8l4 -5q-17 -26 -52 -49t-83 -23zM14 0v6l56 50v282l-54 43v6q79 32 188 59v-390l56 -50v-6h-246zM64 574q0 30 20.5 50t49.5 20q30 0 50.5 -20t20.5 -50
q0 -29 -20.5 -48.5t-50.5 -19.5q-29 0 -49.5 19.5t-20.5 48.5z" />
    <glyph glyph-name="Idotaccent" unicode="&#x130;" horiz-adv-x="345" 
d="M26 0v6l71 60v530l-71 60v6h292v-6l-70 -60v-530l70 -60v-6h-292zM104 769q0 29 20 48.5t49 19.5t49.5 -19.5t20.5 -48.5t-20 -48t-50 -19q-29 0 -49 19t-20 48z" />
    <glyph glyph-name="dotlessi" unicode="&#x131;" horiz-adv-x="272" 
d="M14 0v6l56 50v282l-54 43v6q79 32 188 59v-390l56 -50v-6h-246z" />
    <glyph glyph-name="IJ" unicode="&#x132;" horiz-adv-x="678" 
d="M26 0v6l71 60v530l-71 60v6h292v-6l-70 -60v-530l70 -60v-6h-292zM365 657v5h291v-5l-69 -61v-495q0 -71 -59 -163t-158 -155l-10 8q75 138 75 365v440z" />
    <glyph glyph-name="ij" unicode="&#x133;" horiz-adv-x="519" 
d="M14 0v6l56 50v282l-54 43v6q79 32 188 59v-390l56 -50v-6h-246zM64 574q0 30 20.5 50t49.5 20q30 0 50.5 -20t20.5 -50q0 -29 -20.5 -48.5t-50.5 -19.5q-29 0 -49.5 19.5t-20.5 48.5zM392 506q-30 0 -50.5 19.5t-20.5 48.5q0 30 20.5 50t50.5 20t50.5 -20t20.5 -50
q0 -29 -20.5 -48.5t-50.5 -19.5zM273 381v7q43 19 189 59v-402q0 -47 -44 -126t-141 -157l-9 8q59 126 59 267v302z" />
    <glyph glyph-name="Jcircumflex" unicode="&#x134;" horiz-adv-x="333" 
d="M166 854l152 -153l-4 -6l-148 50l-149 -50l-5 6zM21 657v5h291v-5l-69 -61v-495q0 -71 -59 -163t-158 -155l-10 8q75 138 75 365v440z" />
    <glyph glyph-name="jcircumflex" unicode="&#x135;" horiz-adv-x="250" 
d="M6 383v7q33 16 189 59v-404q0 -47 -44 -126t-141 -157l-9 8q59 126 59 267v305zM117 712l121 -229l-8 -5l-113 94l-113 -94l-8 5z" />
    <glyph glyph-name="Kcommaaccent" unicode="&#x136;" horiz-adv-x="724" 
d="M446 -128q0 -46 -31 -82.5t-82 -57.5l-13 6q45 55 56 102q0 -1 -1 -1h-4q-26 0 -43 14t-17 37q0 26 18 40.5t46 14.5q31 0 51 -20t20 -53zM26 0v6l71 60v530l-71 61v5h293v-5l-71 -61v-530l71 -60v-6h-293zM720 0h-310v6l70 60l-183 258h-34l235 272l-70 61v5h242v-5
l-89 -60l-168 -186l239 -345l68 -60v-6z" />
    <glyph glyph-name="kcommaaccent" unicode="&#x137;" horiz-adv-x="534" 
d="M366 -128q0 -46 -31 -82.5t-82 -57.5l-13 6q45 55 56 102q0 -1 -1 -1h-4q-26 0 -43 14t-17 37q0 26 18 40.5t46 14.5q31 0 51 -20t20 -53zM204 56l52 -50v-6h-241v6l55 50v549l-59 47v6q83 37 193 66v-668zM217 215v6l112 147l-60 57v6h241v-7l-104 -57l-83 -86l106 -153
q55 -79 104 -122v-6q-45 -12 -83 -12q-49 0 -78 19.5t-63 70.5z" />
    <glyph glyph-name="Lacute" unicode="&#x139;" horiz-adv-x="590" 
d="M58 704l-4 8l217 140l41 -107zM551 205h7v-205h-532v6l71 60v530l-71 61v5h292v-5l-71 -61v-538h188z" />
    <glyph glyph-name="lacute" unicode="&#x13a;" horiz-adv-x="272" 
d="M16 733l-4 8l217 140l41 -107zM204 56l56 -50v-6h-246v6l56 50v550l-59 47v6q22 10 84 32.5t109 34.5v-670z" />
    <glyph glyph-name="Lcommaaccent" unicode="&#x13b;" horiz-adv-x="590" 
d="M391 -128q0 -46 -31 -82.5t-82 -57.5l-13 6q45 55 56 102q0 -1 -1 -1h-4q-26 0 -43 14t-17 37q0 26 18 40.5t46 14.5q31 0 51 -20t20 -53zM551 205h7v-205h-532v6l71 60v530l-71 61v5h292v-5l-71 -61v-538h188z" />
    <glyph glyph-name="lcommaaccent" unicode="&#x13c;" horiz-adv-x="272" 
d="M210 -128q0 -46 -31 -82.5t-82 -57.5l-13 6q45 55 56 102q0 -1 -1 -1h-4q-26 0 -43 14t-17 37q0 26 18 40.5t46 14.5q31 0 51 -20t20 -53zM204 56l56 -50v-6h-246v6l56 50v550l-59 47v6q22 10 84 32.5t109 34.5v-670z" />
    <glyph glyph-name="Lcaron" unicode="&#x13d;" horiz-adv-x="590" 
d="M346 499l14 216h106l-112 -216h-8zM551 205h7v-205h-532v6l71 60v530l-71 61v5h292v-5l-71 -61v-538h188z" />
    <glyph glyph-name="lcaron" unicode="&#x13e;" horiz-adv-x="272" 
d="M245 499l14 216h106l-112 -216h-8zM204 56l56 -50v-6h-246v6l56 50v550l-59 47v6q22 10 84 32.5t109 34.5v-670z" />
    <glyph glyph-name="Ldot" unicode="&#x13f;" horiz-adv-x="590" 
d="M422 363q0 32 21.5 52.5t52.5 20.5q32 0 53 -20.5t21 -52.5q0 -31 -21 -51.5t-53 -20.5q-31 0 -52.5 20.5t-21.5 51.5zM551 205h7v-205h-532v6l71 60v530l-71 61v5h292v-5l-71 -61v-538h188z" />
    <glyph glyph-name="ldot" unicode="&#x140;" horiz-adv-x="413" 
d="M270 336q0 32 21.5 52.5t52.5 20.5q32 0 53 -20.5t21 -52.5q0 -31 -21 -51.5t-53 -20.5q-31 0 -52.5 20.5t-21.5 51.5zM204 56l56 -50v-6h-246v6l56 50v550l-59 47v6q22 10 84 32.5t109 34.5v-670z" />
    <glyph glyph-name="Lslash" unicode="&#x141;" horiz-adv-x="590" 
d="M551 205h7v-205h-532v6l71 60v141l-90 -46v58l90 47v330l-71 61v5h292v-5l-71 -61v-251l188 99v-61l-188 -98v-227h188z" />
    <glyph glyph-name="lslash" unicode="&#x142;" horiz-adv-x="272" 
d="M204 56l56 -50v-6h-246v6l56 50v204l-70 -42v58l70 43v287l-59 47v6q22 10 84 32.5t109 34.5v-325l70 43v-59l-70 -43v-286z" />
    <glyph glyph-name="Nacute" unicode="&#x143;" horiz-adv-x="775" 
d="M278 704l-4 8l217 140l41 -107zM754 662v-5l-71 -63v-594h-64l-451 497v-429l98 -62v-6h-241v6l72 62v506q-13 13 -33.5 34t-33 34t-13.5 15v5h208l387 -431v363l-92 63v5h234z" />
    <glyph glyph-name="nacute" unicode="&#x144;" horiz-adv-x="556" 
d="M224 485l-8 5l93 223l96 -69zM14 0v6l56 50v282l-54 43v6q79 32 188 59v-80q81 77 153 77q58 0 96 -35.5t38 -69.5v-282l56 -50v-6h-244v6l54 50v243q0 23 -19.5 40.5t-55.5 17.5q-46 0 -78 -32v-269l55 -50v-6h-245z" />
    <glyph glyph-name="Ncommaaccent" unicode="&#x145;" horiz-adv-x="775" 
d="M460 -128q0 -46 -31 -82.5t-82 -57.5l-13 6q45 55 56 102q0 -1 -1 -1h-4q-26 0 -43 14t-17 37q0 26 18 40.5t46 14.5q31 0 51 -20t20 -53zM754 662v-5l-71 -63v-594h-64l-451 497v-429l98 -62v-6h-241v6l72 62v506q-13 13 -33.5 34t-33 34t-13.5 15v5h208l387 -431v363
l-92 63v5h234z" />
    <glyph glyph-name="ncommaaccent" unicode="&#x146;" horiz-adv-x="556" 
d="M359 -128q0 -46 -31 -82.5t-82 -57.5l-13 6q45 55 56 102q0 -1 -1 -1h-4q-26 0 -43 14t-17 37q0 26 18 40.5t46 14.5q31 0 51 -20t20 -53zM14 0v6l56 50v282l-54 43v6q79 32 188 59v-80q81 77 153 77q58 0 96 -35.5t38 -69.5v-282l56 -50v-6h-244v6l54 50v243
q0 23 -19.5 40.5t-55.5 17.5q-46 0 -78 -32v-269l55 -50v-6h-245z" />
    <glyph glyph-name="Ncaron" unicode="&#x147;" horiz-adv-x="775" 
d="M248 851l149 -50l148 50l4 -6l-152 -153l-154 153zM754 662v-5l-71 -63v-594h-64l-451 497v-429l98 -62v-6h-241v6l72 62v506q-13 13 -33.5 34t-33 34t-13.5 15v5h208l387 -431v363l-92 63v5h234z" />
    <glyph glyph-name="ncaron" unicode="&#x148;" horiz-adv-x="556" 
d="M164 712l113 -94l113 94l8 -5l-121 -229l-121 229zM14 0v6l56 50v282l-54 43v6q79 32 188 59v-80q81 77 153 77q58 0 96 -35.5t38 -69.5v-282l56 -50v-6h-244v6l54 50v243q0 23 -19.5 40.5t-55.5 17.5q-46 0 -78 -32v-269l55 -50v-6h-245z" />
    <glyph glyph-name="napostrophe" unicode="&#x149;" horiz-adv-x="604" 
d="M132 608q0 -57 -34.5 -103.5t-89.5 -74.5l-14 4q56 84 63 142h-6q-30 -2 -49 13t-19 44q0 26 19 43.5t49 17.5q34 0 57.5 -22.5t23.5 -63.5zM61 0v6l56 50v282l-54 43v6q79 32 188 59v-80q81 77 153 77q58 0 96 -35.5t38 -69.5v-282l56 -50v-6h-244v6l54 50v243
q0 23 -19.5 40.5t-55.5 17.5q-46 0 -78 -32v-269l55 -50v-6h-245z" />
    <glyph glyph-name="Eng" unicode="&#x14a;" horiz-adv-x="770" 
d="M679 78q0 -62 -53.5 -147t-150.5 -148l-10 8q75 120 75 209q0 46 -22.5 88.5t-89.5 116.5l-259 291v-428l98 -62v-6h-241v6l71 62v507l-79 82v5h208l310 -351q60 -66 73 -99v382l-92 63v5h234v-5l-72 -63v-516z" />
    <glyph glyph-name="eng" unicode="&#x14b;" horiz-adv-x="541" 
d="M14 0v6l56 50v282l-54 43v6q79 32 188 59v-80q81 77 153 77q58 0 96 -35.5t38 -68.5v-294q0 -47 -44 -126t-141 -157l-9 8q60 129 60 267v262q0 23 -19.5 40.5t-55.5 17.5q-43 0 -78 -32v-269l55 -50v-6h-245z" />
    <glyph glyph-name="Omacron" unicode="&#x14c;" horiz-adv-x="760" 
d="M248 787h263v-73h-263v73zM30 322q0 151 103.5 251.5t244.5 100.5q148 0 250 -92t102 -240q0 -154 -104 -254t-242 -100q-146 0 -250 92.5t-104 241.5zM195 330q0 -124 57 -202.5t130 -78.5t128.5 78.5t55.5 202.5q0 126 -58.5 205.5t-129.5 79.5q-72 0 -127.5 -80
t-55.5 -205z" />
    <glyph glyph-name="omacron" unicode="&#x14d;" horiz-adv-x="521" 
d="M144 594h231v-74h-231v74zM22 210q0 105 74 169t165 64q59 0 112 -23.5t90 -75.5t37 -123q0 -105 -75 -169t-167 -64q-91 0 -163.5 59t-72.5 163zM168 216q0 -73 28 -123t65 -50q36 0 64.5 51t28.5 122q0 74 -27.5 123.5t-65.5 49.5q-37 0 -65 -50.5t-28 -122.5z" />
    <glyph glyph-name="Obreve" unicode="&#x14e;" horiz-adv-x="760" 
d="M380 701q-59 0 -91 41t-32 95l7 1q40 -58 116 -58t116 58l7 -1q0 -53 -32 -94.5t-91 -41.5zM30 322q0 151 103.5 251.5t244.5 100.5q148 0 250 -92t102 -240q0 -154 -104 -254t-242 -100q-146 0 -250 92.5t-104 241.5zM195 330q0 -124 57 -202.5t130 -78.5t128.5 78.5
t55.5 202.5q0 126 -58.5 205.5t-129.5 79.5q-72 0 -127.5 -80t-55.5 -205z" />
    <glyph glyph-name="obreve" unicode="&#x14f;" horiz-adv-x="521" 
d="M22 210q0 105 74 169t165 64q59 0 112 -23.5t90 -75.5t37 -123q0 -105 -75 -169t-167 -64q-91 0 -163.5 59t-72.5 163zM168 216q0 -73 28 -123t65 -50q36 0 64.5 51t28.5 122q0 74 -27.5 123.5t-65.5 49.5q-37 0 -65 -50.5t-28 -122.5zM260 575q35 0 61.5 22.5t38.5 49.5
l8 -1q2 -63 -26.5 -106t-81.5 -43t-81.5 42.5t-26.5 106.5l8 1q12 -27 38.5 -49.5t61.5 -22.5z" />
    <glyph glyph-name="Ohungarumlaut" unicode="&#x150;" horiz-adv-x="760" 
d="M549 869l60 -82l-200 -84l-5 8zM231 703l-5 8l145 158l61 -82zM30 322q0 151 103.5 251.5t244.5 100.5q148 0 250 -92t102 -240q0 -154 -104 -254t-242 -100q-146 0 -250 92.5t-104 241.5zM195 330q0 -124 57 -202.5t130 -78.5t128.5 78.5t55.5 202.5q0 126 -58.5 205.5
t-129.5 79.5q-72 0 -127.5 -80t-55.5 -205z" />
    <glyph glyph-name="ohungarumlaut" unicode="&#x151;" horiz-adv-x="521" 
d="M320 484l-8 4l51 221l92 -41zM177 484l-8 4l50 221l92 -41zM22 210q0 105 74 169t165 64q59 0 112 -23.5t90 -75.5t37 -123q0 -105 -75 -169t-167 -64q-91 0 -163.5 59t-72.5 163zM168 216q0 -73 28 -123t65 -50q36 0 64.5 51t28.5 122q0 74 -27.5 123.5t-65.5 49.5
q-37 0 -65 -50.5t-28 -122.5z" />
    <glyph glyph-name="OE" unicode="&#x152;" horiz-adv-x="920" 
d="M838 447h5v-199h-5l-60 72h-162v-262h175l84 116h7v-174h-475q-166 0 -273 88t-107 230q0 148 109 246t266 98h458v-148h-6l-83 91h-155v-230h162zM410 603q-93 0 -156 -74.5t-63 -197.5q0 -119 65 -194t158 -75h51v541h-55z" />
    <glyph glyph-name="oe" unicode="&#x153;" horiz-adv-x="777" 
d="M22 210q0 104 73 168.5t161 64.5q108 0 168 -85q28 39 68.5 62t84.5 23q126 0 181 -169v-4h-269v-14q0 -83 43.5 -128.5t122.5 -45.5q58 0 109 20l4 -7q-26 -37 -77 -71t-117 -34q-105 0 -155 79q-64 -81 -166 -81q-89 0 -160 59t-71 163zM169 216q0 -71 26.5 -122
t60.5 -51t61 51.5t27 121.5q0 76 -25.5 124.5t-62.5 48.5q-35 0 -61 -50.5t-26 -122.5zM572 391q-23 0 -43.5 -19.5t-31.5 -55.5h135q-3 40 -21.5 57.5t-38.5 17.5z" />
    <glyph glyph-name="Racute" unicode="&#x154;" horiz-adv-x="672" 
d="M181 704l-4 8l217 140l41 -107zM26 0v6l71 60v530l-71 61v5h283q110 0 176 -36.5t66 -115.5q0 -51 -33.5 -92t-78.5 -65l107 -187q62 -107 135 -160v-6q-28 -7 -77 -7q-82 0 -121.5 26.5t-70.5 85.5l-112 212h-53v-251l77 -60l1 -6h-299zM247 608v-240h93q25 0 47.5 35
t22.5 83q0 62 -33.5 92t-82.5 30h-47z" />
    <glyph glyph-name="racute" unicode="&#x155;" horiz-adv-x="389" 
d="M163 485l-8 5l93 223l96 -69zM16 381v6q79 32 188 59v-98q69 97 98 97q35 0 79 -17l-42 -126q-53 28 -85 28q-30 0 -50 -18v-252l87 -54v-6h-277v6l56 51v281z" />
    <glyph glyph-name="Rcommaaccent" unicode="&#x156;" horiz-adv-x="672" 
d="M439 -128q0 -46 -31 -82.5t-82 -57.5l-13 6q45 55 56 102q0 -1 -1 -1h-4q-26 0 -43 14t-17 37q0 26 18 40.5t46 14.5q31 0 51 -20t20 -53zM26 0v6l71 60v530l-71 61v5h283q110 0 176 -36.5t66 -115.5q0 -51 -33.5 -92t-78.5 -65l107 -187q62 -107 135 -160v-6
q-28 -7 -77 -7q-82 0 -121.5 26.5t-70.5 85.5l-112 212h-53v-251l77 -60l1 -6h-299zM247 608v-240h93q25 0 47.5 35t22.5 83q0 62 -33.5 92t-82.5 30h-47z" />
    <glyph glyph-name="rcommaaccent" unicode="&#x157;" horiz-adv-x="389" 
d="M218 -128q0 -46 -31 -82.5t-82 -57.5l-13 6q45 55 56 102q0 -1 -1 -1h-4q-26 0 -43 14t-17 37q0 26 18 40.5t46 14.5q31 0 51 -20t20 -53zM16 381v6q79 32 188 59v-98q69 97 98 97q35 0 79 -17l-42 -126q-53 28 -85 28q-30 0 -50 -18v-252l87 -54v-6h-277v6l56 51v281z
" />
    <glyph glyph-name="Rcaron" unicode="&#x158;" horiz-adv-x="672" 
d="M155 851l149 -50l148 50l4 -6l-152 -153l-154 153zM26 0v6l71 60v530l-71 61v5h283q110 0 176 -36.5t66 -115.5q0 -51 -33.5 -92t-78.5 -65l107 -187q62 -107 135 -160v-6q-28 -7 -77 -7q-82 0 -121.5 26.5t-70.5 85.5l-112 212h-53v-251l77 -60l1 -6h-299zM247 608v-240
h93q25 0 47.5 35t22.5 83q0 62 -33.5 92t-82.5 30h-47z" />
    <glyph glyph-name="rcaron" unicode="&#x159;" horiz-adv-x="389" 
d="M112 712l113 -94l113 94l8 -5l-121 -229l-121 229zM16 381v6q79 32 188 59v-98q69 97 98 97q35 0 79 -17l-42 -126q-53 28 -85 28q-30 0 -50 -18v-252l87 -54v-6h-277v6l56 51v281z" />
    <glyph glyph-name="Sacute" unicode="&#x15a;" horiz-adv-x="491" 
d="M273 673q90 0 141 -17v-148h-7q-89 109 -151 109q-26 0 -46 -18.5t-20 -47.5q0 -39 21.5 -64t85.5 -73q88 -67 125 -114t37 -115q0 -84 -64 -139.5t-168 -55.5q-105 0 -181 37q-13 88 -8 212h9q81 -187 179 -187q37 0 62 25.5t25 66.5q0 43 -23 71.5t-86 74.5
q-79 58 -113.5 106.5t-34.5 106.5q0 80 60.5 125t156.5 45zM130 704l-4 8l217 140l41 -107z" />
    <glyph glyph-name="sacute" unicode="&#x15b;" horiz-adv-x="366" 
d="M128 485l-8 5l93 223l96 -69zM210 443q37 0 102 -13v-109h-6q-76 72 -116 72q-15 0 -25.5 -9.5t-10.5 -25.5q0 -20 14.5 -33.5t54.5 -39.5q40 -25 59 -39t38.5 -44.5t19.5 -67.5q0 -63 -50 -103.5t-131 -40.5q-61 0 -123 23q-8 51 -8 158h8q58 -122 129 -122
q23 0 36.5 13t13.5 34q0 23 -15 38.5t-55 41.5q-52 32 -77.5 64.5t-25.5 78.5q0 55 44.5 89.5t123.5 34.5z" />
    <glyph glyph-name="Scircumflex" unicode="&#x15c;" horiz-adv-x="491" 
d="M251 854l152 -153l-4 -6l-148 50l-149 -50l-5 6zM273 673q90 0 141 -17v-148h-7q-89 109 -151 109q-26 0 -46 -18.5t-20 -47.5q0 -39 21.5 -64t85.5 -73q88 -67 125 -114t37 -115q0 -84 -64 -139.5t-168 -55.5q-105 0 -181 37q-13 88 -8 212h9q81 -187 179 -187
q37 0 62 25.5t25 66.5q0 43 -23 71.5t-86 74.5q-79 58 -113.5 106.5t-34.5 106.5q0 80 60.5 125t156.5 45z" />
    <glyph glyph-name="scircumflex" unicode="&#x15d;" horiz-adv-x="366" 
d="M187 712l121 -229l-8 -5l-113 94l-113 -94l-8 5zM210 443q37 0 102 -13v-109h-6q-76 72 -116 72q-15 0 -25.5 -9.5t-10.5 -25.5q0 -20 14.5 -33.5t54.5 -39.5q40 -25 59 -39t38.5 -44.5t19.5 -67.5q0 -63 -50 -103.5t-131 -40.5q-61 0 -123 23q-8 51 -8 158h8
q58 -122 129 -122q23 0 36.5 13t13.5 34q0 23 -15 38.5t-55 41.5q-52 32 -77.5 64.5t-25.5 78.5q0 55 44.5 89.5t123.5 34.5z" />
    <glyph glyph-name="Scedilla" unicode="&#x15e;" horiz-adv-x="491" 
d="M273 673q90 0 141 -17v-148h-7q-89 109 -151 109q-26 0 -46 -18.5t-20 -47.5q0 -39 21.5 -64t85.5 -73q88 -67 125 -114t37 -115q0 -84 -64 -139.5t-168 -55.5q-105 0 -181 37q-13 88 -8 212h9q81 -187 179 -187q37 0 62 25.5t25 66.5q0 43 -23 71.5t-86 74.5
q-79 58 -113.5 106.5t-34.5 106.5q0 80 60.5 125t156.5 45zM248 0l-30 -59q42 -9 71 -30t29 -55q0 -45 -49.5 -78t-160.5 -39l-5 12q113 45 113 87q0 16 -21 27t-43 14l-2 3q6 11 15.5 30.5t13.5 27.5q29 56 29 60h40z" />
    <glyph glyph-name="scedilla" unicode="&#x15f;" horiz-adv-x="366" 
d="M210 443q37 0 102 -13v-109h-6q-76 72 -116 72q-15 0 -25.5 -9.5t-10.5 -25.5q0 -20 14.5 -33.5t54.5 -39.5q40 -25 59 -39t38.5 -44.5t19.5 -67.5q0 -63 -50 -103.5t-131 -40.5q-61 0 -123 23q-8 51 -8 158h8q58 -122 129 -122q23 0 36.5 13t13.5 34q0 23 -15 38.5
t-55 41.5q-52 32 -77.5 64.5t-25.5 78.5q0 55 44.5 89.5t123.5 34.5zM201 0l-30 -59q42 -9 71 -30t29 -55q0 -45 -49.5 -78t-160.5 -39l-5 12q113 45 113 87q0 16 -21 27t-43 14l-2 3q6 11 15.5 30.5t13.5 27.5q29 56 29 60h40z" />
    <glyph glyph-name="Scaron" unicode="&#x160;" horiz-adv-x="491" 
d="M103 851l149 -50l148 50l4 -6l-152 -153l-154 153zM273 673q90 0 141 -17v-148h-7q-89 109 -151 109q-26 0 -46 -18.5t-20 -47.5q0 -39 21.5 -64t85.5 -73q88 -67 125 -114t37 -115q0 -84 -64 -139.5t-168 -55.5q-105 0 -181 37q-13 88 -8 212h9q81 -187 179 -187
q37 0 62 25.5t25 66.5q0 43 -23 71.5t-86 74.5q-79 58 -113.5 106.5t-34.5 106.5q0 80 60.5 125t156.5 45z" />
    <glyph glyph-name="scaron" unicode="&#x161;" horiz-adv-x="366" 
d="M73 712l113 -94l113 94l8 -5l-121 -229l-121 229zM210 443q37 0 102 -13v-109h-6q-76 72 -116 72q-15 0 -25.5 -9.5t-10.5 -25.5q0 -20 14.5 -33.5t54.5 -39.5q40 -25 59 -39t38.5 -44.5t19.5 -67.5q0 -63 -50 -103.5t-131 -40.5q-61 0 -123 23q-8 51 -8 158h8
q58 -122 129 -122q23 0 36.5 13t13.5 34q0 23 -15 38.5t-55 41.5q-52 32 -77.5 64.5t-25.5 78.5q0 55 44.5 89.5t123.5 34.5z" />
    <glyph glyph-name="Tcommaaccent" unicode="&#x162;" horiz-adv-x="670" 
d="M408 -128q0 -46 -31 -82.5t-82 -57.5l-13 6q45 55 56 102q0 -1 -1 -1h-4q-26 0 -43 14t-17 37q0 26 18 40.5t46 14.5q31 0 51 -20t20 -53zM643 662v-164h-7l-97 107h-128v-538l81 -61v-6h-316v6l82 61v538h-129l-96 -107h-6v164h616z" />
    <glyph glyph-name="tcommaaccent" unicode="&#x163;" horiz-adv-x="391" 
d="M274 -128q0 -46 -31 -82.5t-82 -57.5l-13 6q45 55 56 102q0 -1 -1 -1h-4q-26 0 -43 14t-17 37q0 26 18 40.5t46 14.5q31 0 51 -20t20 -53zM197 360v-215q0 -66 87 -66q50 0 80 14l4 -6q-14 -20 -32 -38.5t-56.5 -38.5t-79.5 -20q-67 0 -103 35t-36 78v257h-58v7l194 154
v-92h199l-44 -69h-155z" />
    <glyph glyph-name="Tcaron" unicode="&#x164;" horiz-adv-x="670" 
d="M185 851l149 -50l148 50l4 -6l-152 -153l-154 153zM643 662v-164h-7l-97 107h-128v-538l81 -61v-6h-316v6l82 61v538h-129l-96 -107h-6v164h616z" />
    <glyph glyph-name="tcaron" unicode="&#x165;" horiz-adv-x="391" 
d="M238 499l14 216h106l-112 -216h-8zM197 360v-215q0 -66 87 -66q50 0 80 14l4 -6q-14 -20 -32 -38.5t-56.5 -38.5t-79.5 -20q-67 0 -103 35t-36 78v257h-58v7l194 154v-92h199l-44 -69h-155z" />
    <glyph glyph-name="Tbar" unicode="&#x166;" horiz-adv-x="670" 
d="M104 339v53h463v-53h-463zM643 662v-164h-7l-97 107h-128v-538l81 -61v-6h-316v6l82 61v538h-129l-96 -107h-6v164h616z" />
    <glyph glyph-name="tbar" unicode="&#x167;" horiz-adv-x="392" 
d="M2 228v51h354v-51h-354zM198 360v-215q0 -66 87 -66q50 0 80 14l4 -6q-14 -20 -32 -38.5t-56.5 -38.5t-79.5 -20q-67 0 -103 35t-36 78v257h-58v7l194 154v-92h199l-44 -69h-155z" />
    <glyph glyph-name="Utilde" unicode="&#x168;" horiz-adv-x="753" 
d="M664 238q0 -40 -15 -81t-45.5 -79.5t-86.5 -63t-128 -24.5q-148 0 -224 70.5t-76 173.5v362l-70 61v5h304v-5l-81 -61v-354q0 -75 44.5 -121t137.5 -46q78 0 124 49t46 118v354l-80 61v5h220v-5l-70 -61v-358zM357 820q12 0 68 -9.5t71 -9.5q27 0 74 47l7 -2
q-12 -50 -39 -89.5t-50 -39.5q-14 0 -69 9t-70 9q-27 0 -74 -47l-7 2q12 48 39.5 89t49.5 41z" />
    <glyph glyph-name="utilde" unicode="&#x169;" horiz-adv-x="539" 
d="M6 381v6q59 26 187 59v-310q0 -27 16.5 -43.5t49.5 -16.5q40 0 78 29v233l-65 43v6q55 23 200 59v-364l66 -37v-7q-48 -12 -83 -21q-87 -21 -118 -28v77q-79 -76 -146 -76q-60 0 -96 35t-36 74v239zM219 626q11 0 60.5 -13t61.5 -13q21 0 64 56l7 -3q-6 -55 -28 -96.5
t-47 -41.5q-15 0 -63 12.5t-60 12.5q-22 0 -65 -55l-7 2q9 53 31.5 96t45.5 43z" />
    <glyph glyph-name="Umacron" unicode="&#x16a;" horiz-adv-x="753" 
d="M664 238q0 -40 -15 -81t-45.5 -79.5t-86.5 -63t-128 -24.5q-148 0 -224 70.5t-76 173.5v362l-70 61v5h304v-5l-81 -61v-354q0 -75 44.5 -121t137.5 -46q78 0 124 49t46 118v354l-80 61v5h220v-5l-70 -61v-358zM282 787h263v-73h-263v73z" />
    <glyph glyph-name="umacron" unicode="&#x16b;" horiz-adv-x="539" 
d="M6 381v6q59 26 187 59v-310q0 -27 16.5 -43.5t49.5 -16.5q40 0 78 29v233l-65 43v6q55 23 200 59v-364l66 -37v-7q-48 -12 -83 -21q-87 -21 -118 -28v77q-79 -76 -146 -76q-60 0 -96 35t-36 74v239zM146 594h231v-74h-231v74z" />
    <glyph glyph-name="Ubreve" unicode="&#x16c;" horiz-adv-x="753" 
d="M664 238q0 -40 -15 -81t-45.5 -79.5t-86.5 -63t-128 -24.5q-148 0 -224 70.5t-76 173.5v362l-70 61v5h304v-5l-81 -61v-354q0 -75 44.5 -121t137.5 -46q78 0 124 49t46 118v354l-80 61v5h220v-5l-70 -61v-358zM404 701q-59 0 -91 41t-32 95l7 1q40 -58 116 -58t116 58
l7 -1q0 -53 -32 -94.5t-91 -41.5z" />
    <glyph glyph-name="ubreve" unicode="&#x16d;" horiz-adv-x="539" 
d="M6 381v6q59 26 187 59v-310q0 -27 16.5 -43.5t49.5 -16.5q40 0 78 29v233l-65 43v6q55 23 200 59v-364l66 -37v-7q-48 -12 -83 -21q-87 -21 -118 -28v77q-79 -76 -146 -76q-60 0 -96 35t-36 74v239zM267 575q35 0 61.5 22.5t38.5 49.5l8 -1q2 -63 -26.5 -106t-81.5 -43
t-81.5 42.5t-26.5 106.5l8 1q12 -27 38.5 -49.5t61.5 -22.5z" />
    <glyph glyph-name="Uring" unicode="&#x16e;" horiz-adv-x="753" 
d="M664 238q0 -40 -15 -81t-45.5 -79.5t-86.5 -63t-128 -24.5q-148 0 -224 70.5t-76 173.5v362l-70 61v5h304v-5l-81 -61v-354q0 -75 44.5 -121t137.5 -46q78 0 124 49t46 118v354l-80 61v5h220v-5l-70 -61v-358zM369 768q0 -21 13 -35.5t34 -14.5q20 0 33.5 14.5t13.5 35.5
t-13.5 35.5t-33.5 14.5q-21 0 -34 -14.5t-13 -35.5zM326 768q0 36 27 62.5t63 26.5t63 -26.5t27 -62.5q0 -37 -27 -63t-63 -26q-37 0 -63.5 25.5t-26.5 63.5z" />
    <glyph glyph-name="uring" unicode="&#x16f;" horiz-adv-x="539" 
d="M218 579q0 -21 13 -35.5t34 -14.5q20 0 33.5 14.5t13.5 35.5t-13.5 35.5t-33.5 14.5q-21 0 -34 -14.5t-13 -35.5zM175 579q0 36 27 62.5t63 26.5t63 -26.5t27 -62.5q0 -37 -27 -63t-63 -26q-37 0 -63.5 25.5t-26.5 63.5zM6 381v6q59 26 187 59v-310q0 -27 16.5 -43.5
t49.5 -16.5q40 0 78 29v233l-65 43v6q55 23 200 59v-364l66 -37v-7q-48 -12 -83 -21q-87 -21 -118 -28v77q-79 -76 -146 -76q-60 0 -96 35t-36 74v239z" />
    <glyph glyph-name="Uhungarumlaut" unicode="&#x170;" horiz-adv-x="753" 
d="M572 869l60 -82l-200 -84l-5 8zM254 703l-5 8l145 158l61 -82zM664 238q0 -40 -15 -81t-45.5 -79.5t-86.5 -63t-128 -24.5q-148 0 -224 70.5t-76 173.5v362l-70 61v5h304v-5l-81 -61v-354q0 -75 44.5 -121t137.5 -46q78 0 124 49t46 118v354l-80 61v5h220v-5l-70 -61
v-358z" />
    <glyph glyph-name="uhungarumlaut" unicode="&#x171;" horiz-adv-x="539" 
d="M6 381v6q59 26 187 59v-310q0 -27 16.5 -43.5t49.5 -16.5q40 0 78 29v233l-65 43v6q55 23 200 59v-364l66 -37v-7q-48 -12 -83 -21q-87 -21 -118 -28v77q-79 -76 -146 -76q-60 0 -96 35t-36 74v239zM321 484l-8 4l51 221l92 -41zM178 484l-8 4l50 221l92 -41z" />
    <glyph glyph-name="Uogonek" unicode="&#x172;" horiz-adv-x="753" 
d="M339 -166q0 47 39 86t112 84q-47 -14 -101 -14q-148 0 -224 70.5t-76 173.5v362l-70 61v5h304v-5l-81 -61v-354q0 -75 44.5 -121t137.5 -46q78 0 124 49t46 118v354l-80 61v5h220v-5l-70 -61v-358q0 -117 -116 -218q-90 -80 -90 -144q0 -28 18.5 -45.5t52.5 -17.5
q28 0 53 9l4 -5q-17 -25 -55 -49t-86 -24q-49 0 -77.5 25t-28.5 65z" />
    <glyph glyph-name="uogonek" unicode="&#x173;" horiz-adv-x="539" 
d="M337 65q-80 -75 -146 -75q-60 0 -96 35t-36 74v239l-53 43v6q59 26 187 59v-310q0 -27 16.5 -43.5t49.5 -16.5q40 0 78 29v233l-65 43v6q55 23 200 59v-364l66 -37v-7l-57 -15q-76 -18 -107 -25q-56 -71 -56 -123q0 -27 18 -44.5t52 -17.5q29 0 54 9l4 -5
q-17 -26 -55 -49.5t-87 -23.5t-77.5 25t-28.5 65q0 80 139 158v73z" />
    <glyph glyph-name="Wcircumflex" unicode="&#x174;" horiz-adv-x="990" 
d="M549 854l152 -153l-4 -6l-148 50l-149 -50l-5 6zM540 596l51 -120l54 120l-42 61v5h153v-5l-48 -61l-88 -187l90 -207l146 394l-51 61v5h183v-5l-61 -61l-228 -603h-34l-151 330l-146 -330h-34l-272 603l-60 61v5h274v-5l-54 -61l172 -390l86 190l-91 200l-58 61v5h255
v-5z" />
    <glyph glyph-name="wcircumflex" unicode="&#x175;" horiz-adv-x="698" 
d="M380 712l121 -229l-8 -5l-113 94l-113 -94l-8 5zM260 31q-2 -8 -10 -25q-4 -8 -5 -12h-30q-1 2 -3 7t-4 8q-13 29 -18 40l-148 328l-48 48v6h237v-6l-46 -48l80 -191l63 161l-12 30l-45 48v6h228v-6l-48 -48l71 -191l69 191l-51 48v6h164v-6l-49 -48l-135 -349
q-2 -4 -10 -24q-1 -2 -4 -10h-30q-1 5 -6 13q-4 9 -16 37l-96 230z" />
    <glyph glyph-name="Ycircumflex" unicode="&#x176;" horiz-adv-x="624" 
d="M417 657v5h205v-5l-61 -61l-164 -264v-263l69 -63v-6h-291v6l70 63v244l-183 283l-60 61v5h300v-5l-70 -61l129 -207l126 203zM341 854l152 -153l-4 -6l-148 50l-149 -50l-5 6z" />
    <glyph glyph-name="ycircumflex" unicode="&#x177;" horiz-adv-x="449" 
d="M264 21q-70 -177 -82 -265h-139v5q90 72 157 242l5 12l-162 361l-48 49v6h247v-6l-51 -49l80 -193l72 193l-51 49v6h163v-6l-49 -49zM248 712l121 -229l-8 -5l-113 94l-113 -94l-8 5z" />
    <glyph glyph-name="Ydieresis" unicode="&#x178;" horiz-adv-x="624" 
d="M417 657v5h205v-5l-61 -61l-164 -264v-263l69 -63v-6h-291v6l70 63v244l-183 283l-60 61v5h300v-5l-70 -61l129 -207l126 203zM236 701q-28 0 -47 18t-19 46t19 46.5t47 18.5q27 0 46 -19t19 -46t-19 -45.5t-46 -18.5zM510 765q0 -27 -19 -45.5t-46 -18.5t-46 18.5
t-19 45.5q0 28 19 46.5t46 18.5t46 -18.5t19 -46.5z" />
    <glyph glyph-name="Zacute" unicode="&#x179;" horiz-adv-x="631" 
d="M211 704l-4 8l217 140l41 -107zM220 61h262l109 147h7v-208h-574v9l365 597h-228l-102 -128h-7v184h538v-8z" />
    <glyph glyph-name="zacute" unicode="&#x17a;" horiz-adv-x="426" 
d="M175 485l-8 5l93 223l96 -69zM405 145v-145h-391v14l217 366h-116l-77 -82h-6v133h363v-14l-217 -361h136l85 89h6z" />
    <glyph glyph-name="Zdotaccent" unicode="&#x17b;" horiz-adv-x="631" 
d="M220 61h262l109 147h7v-208h-574v9l365 597h-228l-102 -128h-7v184h538v-8zM254 769q0 29 20 48.5t49 19.5t49.5 -19.5t20.5 -48.5t-20 -48t-50 -19q-29 0 -49 19t-20 48z" />
    <glyph glyph-name="zdotaccent" unicode="&#x17c;" horiz-adv-x="426" 
d="M405 145v-145h-391v14l217 366h-116l-77 -82h-6v133h363v-14l-217 -361h136l85 89h6zM143 574q0 29 20.5 48.5t49.5 19.5t49 -19.5t20 -48.5t-20 -48t-49 -19q-30 0 -50 19t-20 48z" />
    <glyph glyph-name="Zcaron" unicode="&#x17d;" horiz-adv-x="631" 
d="M175 851l149 -50l148 50l4 -6l-152 -153l-154 153zM220 61h262l109 147h7v-208h-574v9l365 597h-228l-102 -128h-7v184h538v-8z" />
    <glyph glyph-name="zcaron" unicode="&#x17e;" horiz-adv-x="426" 
d="M104 712l113 -94l113 94l8 -5l-121 -229l-121 229zM405 145v-145h-391v14l217 366h-116l-77 -82h-6v133h363v-14l-217 -361h136l85 89h6z" />
    <glyph glyph-name="florin" unicode="&#x192;" horiz-adv-x="451" 
d="M140 398l9 72q13 86 76 144t160 58q54 0 107 -14l-43 -91h-4q-69 50 -97 50q-19 0 -35 -23.5t-22 -64.5l-17 -131h135l-39 -66h-104q-29 -242 -38 -296q-3 -23 -10 -46.5t-25.5 -56t-45.5 -58t-73 -45.5t-105 -25l-15 93l3 1q53 -12 76 -12q28 0 41 30.5t25 125.5
q6 46 18 153.5t15 135.5h-99v5l39 61h68z" />
    <glyph glyph-name="Aringacute" unicode="&#x1fa;" horiz-adv-x="655" 
d="M207 6v-6h-205v6l61 60l238 603h34l258 -603l60 -60v-6h-289v6l70 60l-61 143h-186l-53 -138zM209 264h141l-74 174zM212 875l-4 8l217 140l41 -107zM271 781q0 -21 13 -35.5t34 -14.5q20 0 33.5 14.5t13.5 35.5t-13.5 35.5t-33.5 14.5q-21 0 -34 -14.5t-13 -35.5z
M228 781q0 36 27 62.5t63 26.5t63 -26.5t27 -62.5q0 -37 -27 -63t-63 -26q-37 0 -63.5 25.5t-26.5 63.5z" />
    <glyph glyph-name="aringacute" unicode="&#x1fb;" horiz-adv-x="460" 
d="M266 315q0 24 -17.5 39t-46.5 15q-26 0 -50 -17v-81l-118 40v6q104 127 221 127q73 0 108 -35.5t35 -73.5q0 -27 -1.5 -130t-1.5 -114q31 -18 67 -30v-6l-84 -77q-70 23 -108 67q-62 -58 -113 -58q-59 0 -96.5 34.5t-37.5 82.5q0 28 12 51t27 27l204 50v83zM265 77
q0 3 0.5 40.5t0.5 67.5q-83 -19 -109 -32q-7 -5 -7 -26q0 -27 18 -44t50 -17q25 0 47 11zM145 666l-8 5l93 223l96 -69zM167 575q0 -21 13 -35.5t34 -14.5q20 0 33.5 14.5t13.5 35.5t-13.5 35.5t-33.5 14.5q-21 0 -34 -14.5t-13 -35.5zM124 575q0 36 27 62.5t63 26.5
t63 -26.5t27 -62.5q0 -37 -27 -63t-63 -26q-37 0 -63.5 25.5t-26.5 63.5z" />
    <glyph glyph-name="AEacute" unicode="&#x1fc;" horiz-adv-x="879" 
d="M468 704l-4 8l217 140l41 -107zM292 657v5h526v-148h-6l-82 91h-155v-231h162l59 72h6v-198h-6l-59 71h-162v-261h174l84 116h8v-174h-487v6l70 60v217h-172l-122 -212l73 -65v-6h-205v6l60 60l304 530zM283 338h141v244z" />
    <glyph glyph-name="aeacute" unicode="&#x1fd;" horiz-adv-x="666" 
d="M317 485l-8 5l93 223l96 -69zM60 183q100 26 203 54v79q0 24 -16.5 38.5t-45.5 14.5q-26 0 -50 -17v-81l-118 40v6q18 22 31 35.5t42.5 39t67 39t78.5 13.5q68 0 102 -49q55 48 121 48q114 0 179 -149v-5l-263 -68q8 -67 48.5 -103.5t109.5 -36.5q54 0 108 21l4 -7
q-26 -37 -77 -71t-117 -34q-99 0 -156 70q-27 -31 -66.5 -52t-79.5 -21q-64 0 -103.5 34t-39.5 83q0 29 11.5 52t26.5 27zM216 66q41 0 72 29q-23 41 -26 95q-94 -30 -105 -35q-8 -6 -8 -28q0 -27 17 -44t50 -17zM470 391q-27 0 -52.5 -33t-28.5 -90l140 42q-3 37 -20.5 59
t-38.5 22z" />
    <glyph glyph-name="Oslashacute" unicode="&#x1fe;" horiz-adv-x="760" 
d="M30 322q0 151 103.5 251.5t244.5 100.5q90 0 168 -37l56 85l49 -30l-56 -84q135 -98 135 -266q0 -154 -104 -254t-242 -100q-93 0 -172 40l-66 -100l-47 29l65 99q-63 44 -98.5 112.5t-35.5 153.5zM566 330q0 98 -39 174l-261 -394q50 -61 116 -61q73 0 128.5 78.5
t55.5 202.5zM195 330q0 -98 37 -170l260 395q-54 60 -114 60q-72 0 -127.5 -80t-55.5 -205zM258 704l-4 8l217 140l41 -107z" />
    <glyph glyph-name="oslashacute" unicode="&#x1ff;" horiz-adv-x="521" 
d="M22 210q0 105 74 169t165 64q51 0 96 -19l44 72l42 -25l-42 -69q98 -63 98 -181q0 -105 -74.5 -169t-165.5 -64q-54 0 -99 19l-45 -74l-43 23l45 74q-95 61 -95 180zM361 216q0 57 -15 96l-144 -237q24 -32 59 -32q39 0 69.5 50.5t30.5 122.5zM162 216q0 -55 13 -91
l144 236q-25 28 -58 28q-40 0 -69.5 -50t-29.5 -123zM194 485l-8 5l93 223l96 -69z" />
    <glyph glyph-name="Scommaaccent" unicode="&#x218;" horiz-adv-x="491" 
d="M304 -128q0 -46 -31 -82.5t-82 -57.5l-13 6q45 55 56 102q0 -1 -1 -1h-4q-26 0 -43 14t-17 37q0 26 18 40.5t46 14.5q31 0 51 -20t20 -53zM273 673q90 0 141 -17v-148h-7q-89 109 -151 109q-26 0 -46 -18.5t-20 -47.5q0 -39 21.5 -64t85.5 -73q88 -67 125 -114t37 -115
q0 -84 -64 -139.5t-168 -55.5q-105 0 -181 37q-13 88 -8 212h9q81 -187 179 -187q37 0 62 25.5t25 66.5q0 43 -23 71.5t-86 74.5q-79 58 -113.5 106.5t-34.5 106.5q0 80 60.5 125t156.5 45z" />
    <glyph glyph-name="scommaaccent" unicode="&#x219;" horiz-adv-x="366" 
d="M247 -128q0 -46 -31 -82.5t-82 -57.5l-13 6q45 55 56 102q0 -1 -1 -1h-4q-26 0 -43 14t-17 37q0 26 18 40.5t46 14.5q31 0 51 -20t20 -53zM210 443q37 0 102 -13v-109h-6q-76 72 -116 72q-15 0 -25.5 -9.5t-10.5 -25.5q0 -20 14.5 -33.5t54.5 -39.5q40 -25 59 -39
t38.5 -44.5t19.5 -67.5q0 -63 -50 -103.5t-131 -40.5q-61 0 -123 23q-8 51 -8 158h8q58 -122 129 -122q23 0 36.5 13t13.5 34q0 23 -15 38.5t-55 41.5q-52 32 -77.5 64.5t-25.5 78.5q0 55 44.5 89.5t123.5 34.5z" />
    <glyph glyph-name="uni021A" unicode="&#x21a;" horiz-adv-x="670" 
d="M408 -128q0 -46 -31 -82.5t-82 -57.5l-13 6q45 55 56 102q0 -1 -1 -1h-4q-26 0 -43 14t-17 37q0 26 18 40.5t46 14.5q31 0 51 -20t20 -53zM643 662v-164h-7l-97 107h-128v-538l81 -61v-6h-316v6l82 61v538h-129l-96 -107h-6v164h616z" />
    <glyph glyph-name="uni021B" unicode="&#x21b;" horiz-adv-x="391" 
d="M274 -128q0 -46 -31 -82.5t-82 -57.5l-13 6q45 55 56 102q0 -1 -1 -1h-4q-26 0 -43 14t-17 37q0 26 18 40.5t46 14.5q31 0 51 -20t20 -53zM197 360v-215q0 -66 87 -66q50 0 80 14l4 -6q-14 -20 -32 -38.5t-56.5 -38.5t-79.5 -20q-67 0 -103 35t-36 78v257h-58v7l194 154
v-92h199l-44 -69h-155z" />
    <glyph glyph-name="uni0237" unicode="&#x237;" horiz-adv-x="251" 
d="M6 383v7q33 16 189 59v-404q0 -47 -44 -126t-141 -157l-9 8q59 126 59 267v305z" />
    <glyph glyph-name="circumflex" unicode="&#x2c6;" 
d="M200 712l121 -229l-8 -5l-113 94l-113 -94l-8 5z" />
    <glyph glyph-name="caron" unicode="&#x2c7;" 
d="M87 712l113 -94l113 94l8 -5l-121 -229l-121 229z" />
    <glyph glyph-name="breve" unicode="&#x2d8;" 
d="M200 575q35 0 61.5 22.5t38.5 49.5l8 -1q2 -63 -26.5 -106t-81.5 -43t-81.5 42.5t-26.5 106.5l8 1q12 -27 38.5 -49.5t61.5 -22.5z" />
    <glyph glyph-name="dotaccent" unicode="&#x2d9;" 
d="M130 574q0 29 20.5 48.5t49.5 19.5t49 -19.5t20 -48.5t-20 -48t-49 -19q-30 0 -50 19t-20 48z" />
    <glyph glyph-name="ring" unicode="&#x2da;" 
d="M153 579q0 -21 13 -35.5t34 -14.5q20 0 33.5 14.5t13.5 35.5t-13.5 35.5t-33.5 14.5q-21 0 -34 -14.5t-13 -35.5zM110 579q0 36 27 62.5t63 26.5t63 -26.5t27 -62.5q0 -37 -27 -63t-63 -26q-37 0 -63.5 25.5t-26.5 63.5z" />
    <glyph glyph-name="ogonek" unicode="&#x2db;" 
d="M183 -256q-50 0 -78.5 25t-28.5 65q0 84 155 166h30q-65 -70 -65 -124q0 -28 18.5 -45.5t51.5 -17.5q29 0 54 9l4 -5q-17 -25 -55 -49t-86 -24z" />
    <glyph glyph-name="tilde" unicode="&#x2dc;" 
d="M142 626q11 0 60.5 -13t61.5 -13q21 0 64 56l7 -3q-6 -55 -28 -96.5t-47 -41.5q-15 0 -63 12.5t-60 12.5q-22 0 -65 -55l-7 2q9 53 31.5 96t45.5 43z" />
    <glyph glyph-name="hungarumlaut" unicode="&#x2dd;" 
d="M209 484l-8 4l51 221l92 -41zM66 484l-8 4l50 221l92 -41z" />
    <glyph glyph-name="Wgrave" unicode="&#x1e80;" horiz-adv-x="990" 
d="M669 704l-253 41l39 107l218 -140zM540 596l51 -120l54 120l-42 61v5h153v-5l-48 -61l-88 -187l90 -207l146 394l-51 61v5h183v-5l-61 -61l-228 -603h-34l-151 330l-146 -330h-34l-272 603l-60 61v5h274v-5l-54 -61l172 -390l86 190l-91 200l-58 61v5h255v-5z" />
    <glyph glyph-name="wgrave" unicode="&#x1e81;" horiz-adv-x="698" 
d="M260 31q-2 -8 -10 -25q-4 -8 -5 -12h-30q-1 2 -3 7t-4 8q-13 29 -18 40l-148 328l-48 48v6h237v-6l-46 -48l80 -191l63 161l-12 30l-45 48v6h228v-6l-48 -48l71 -191l69 191l-51 48v6h164v-6l-49 -48l-135 -349q-2 -4 -10 -24q-1 -2 -4 -10h-30q-1 5 -6 13q-4 9 -16 37
l-96 230zM434 487l-181 158l96 70l93 -224z" />
    <glyph glyph-name="Wacute" unicode="&#x1e82;" horiz-adv-x="990" 
d="M431 704l-4 8l217 140l41 -107zM540 596l51 -120l54 120l-42 61v5h153v-5l-48 -61l-88 -187l90 -207l146 394l-51 61v5h183v-5l-61 -61l-228 -603h-34l-151 330l-146 -330h-34l-272 603l-60 61v5h274v-5l-54 -61l172 -390l86 190l-91 200l-58 61v5h255v-5z" />
    <glyph glyph-name="wacute" unicode="&#x1e83;" horiz-adv-x="698" 
d="M332 485l-8 5l93 223l96 -69zM260 31q-2 -8 -10 -25q-4 -8 -5 -12h-30q-1 2 -3 7t-4 8q-13 29 -18 40l-148 328l-48 48v6h237v-6l-46 -48l80 -191l63 161l-12 30l-45 48v6h228v-6l-48 -48l71 -191l69 191l-51 48v6h164v-6l-49 -48l-135 -349q-2 -4 -10 -24q-1 -2 -4 -10
h-30q-1 5 -6 13q-4 9 -16 37l-96 230z" />
    <glyph glyph-name="Wdieresis" unicode="&#x1e84;" horiz-adv-x="990" 
d="M449 701q-28 0 -47 18t-19 46t19 46.5t47 18.5q27 0 46 -19t19 -46t-19 -45.5t-46 -18.5zM723 765q0 -27 -19 -45.5t-46 -18.5t-46 18.5t-19 45.5q0 28 19 46.5t46 18.5t46 -18.5t19 -46.5zM540 596l51 -120l54 120l-42 61v5h153v-5l-48 -61l-88 -187l90 -207l146 394
l-51 61v5h183v-5l-61 -61l-228 -603h-34l-151 330l-146 -330h-34l-272 603l-60 61v5h274v-5l-54 -61l172 -390l86 190l-91 200l-58 61v5h255v-5z" />
    <glyph glyph-name="wdieresis" unicode="&#x1e85;" horiz-adv-x="698" 
d="M471 635q26 0 44.5 -18.5t18.5 -46.5q0 -27 -18 -44.5t-45 -17.5q-28 0 -46.5 17.5t-18.5 44.5q0 28 18.5 46.5t46.5 18.5zM286 635q27 0 45.5 -18.5t18.5 -46.5q0 -27 -18.5 -45t-45.5 -18q-28 0 -46 18t-18 45q0 28 18 46.5t46 18.5zM260 31q-2 -8 -10 -25
q-4 -8 -5 -12h-30q-1 2 -3 7t-4 8q-13 29 -18 40l-148 328l-48 48v6h237v-6l-46 -48l80 -191l63 161l-12 30l-45 48v6h228v-6l-48 -48l71 -191l69 191l-51 48v6h164v-6l-49 -48l-135 -349q-2 -4 -10 -24q-1 -2 -4 -10h-30q-1 5 -6 13q-4 9 -16 37l-96 230z" />
    <glyph glyph-name="Ygrave" unicode="&#x1ef2;" horiz-adv-x="624" 
d="M417 657v5h205v-5l-61 -61l-164 -264v-263l69 -63v-6h-291v6l70 63v244l-183 283l-60 61v5h300v-5l-70 -61l129 -207l126 203zM460 704l-253 41l39 107l218 -140z" />
    <glyph glyph-name="ygrave" unicode="&#x1ef3;" horiz-adv-x="449" 
d="M264 21q-70 -177 -82 -265h-139v5q90 72 157 242l5 12l-162 361l-48 49v6h247v-6l-51 -49l80 -193l72 193l-51 49v6h163v-6l-49 -49zM305 487l-181 158l96 70l93 -224z" />
    <glyph glyph-name="uni2009" unicode="&#x2009;" horiz-adv-x="40" 
 />
    <glyph glyph-name="endash" unicode="&#x2013;" horiz-adv-x="519" 
d="M45 273h429v-53h-429v53z" />
    <glyph glyph-name="emdash" unicode="&#x2014;" horiz-adv-x="768" 
d="M45 273h678v-53h-678v53z" />
    <glyph glyph-name="quoteleft" unicode="&#x2018;" horiz-adv-x="205" 
d="M27 517q0 57 34.5 103.5t89.5 74.5l14 -4q-56 -84 -63 -142h6q30 2 49 -13t19 -44q0 -26 -19 -43.5t-49 -17.5q-34 0 -57.5 22.5t-23.5 63.5z" />
    <glyph glyph-name="quoteright" unicode="&#x2019;" horiz-adv-x="205" 
d="M178 608q0 -57 -34.5 -103.5t-89.5 -74.5l-14 4q56 84 63 142h-6q-30 -2 -49 13t-19 44q0 26 19 43.5t49 17.5q34 0 57.5 -22.5t23.5 -63.5z" />
    <glyph glyph-name="quotesinglbase" unicode="&#x201a;" horiz-adv-x="212" 
d="M178 45q0 -57 -34.5 -103.5t-89.5 -74.5l-14 4q56 84 63 142h-6q-30 -2 -49 13t-19 44q0 26 19 43.5t49 17.5q34 0 57.5 -22.5t23.5 -63.5z" />
    <glyph glyph-name="quotedblleft" unicode="&#x201c;" horiz-adv-x="388" 
d="M210 517q0 57 34.5 103.5t89.5 74.5l14 -4q-56 -84 -63 -142h6q30 2 49 -13t19 -44q0 -26 -19 -43.5t-49 -17.5q-34 0 -57.5 22.5t-23.5 63.5zM27 517q0 57 34.5 103.5t89.5 74.5l14 -4q-56 -84 -63 -142h6q30 2 49 -13t19 -44q0 -26 -19 -43.5t-49 -17.5
q-34 0 -57.5 22.5t-23.5 63.5z" />
    <glyph glyph-name="quotedblright" unicode="&#x201d;" horiz-adv-x="389" 
d="M362 608q0 -57 -34.5 -103.5t-89.5 -74.5l-15 4q56 85 63 142h-5q-30 -2 -49 13t-19 44q0 26 19 43.5t49 17.5q34 0 57.5 -22.5t23.5 -63.5zM178 608q0 -57 -34.5 -103.5t-89.5 -74.5l-14 4q56 84 63 142h-6q-30 -2 -49 13t-19 44q0 26 19 43.5t49 17.5q34 0 57.5 -22.5
t23.5 -63.5z" />
    <glyph glyph-name="quotedblbase" unicode="&#x201e;" horiz-adv-x="397" 
d="M362 45q0 -57 -34.5 -103.5t-89.5 -74.5l-15 4q56 85 63 142h-5q-30 -2 -49 13t-19 44q0 26 19 43.5t49 17.5q34 0 57.5 -22.5t23.5 -63.5zM178 45q0 -57 -34.5 -103.5t-89.5 -74.5l-14 4q56 84 63 142h-6q-30 -2 -49 13t-19 44q0 26 19 43.5t49 17.5q34 0 57.5 -22.5
t23.5 -63.5z" />
    <glyph glyph-name="dagger" unicode="&#x2020;" horiz-adv-x="403" 
d="M163 -123h-6v564h-141v6l60 62h81v96l78 91h6v-187h146v-5l-60 -63h-86v-472z" />
    <glyph glyph-name="daggerdbl" unicode="&#x2021;" horiz-adv-x="411" 
d="M395 496l-60 -63h-88v-185h145v-6l-60 -63h-85v-125l-79 -93h-6v218h-146v6l61 63h85v185h-144v6l62 62h82v107l79 93h6v-200h148v-5z" />
    <glyph glyph-name="bullet" unicode="&#x2022;" horiz-adv-x="387" 
d="M49 253q0 61 42.5 102.5t102.5 41.5q61 0 102.5 -41.5t41.5 -102.5q0 -62 -41.5 -103.5t-102.5 -41.5t-103 41.5t-42 103.5z" />
    <glyph glyph-name="ellipsis" unicode="&#x2026;" horiz-adv-x="622" 
d="M438 59q0 32 21.5 52.5t52.5 20.5q32 0 53 -20.5t21 -52.5q0 -31 -21 -52t-53 -21q-31 0 -52.5 21t-21.5 52zM237 59q0 32 21.5 52.5t52.5 20.5q32 0 53 -20.5t21 -52.5q0 -31 -21 -52t-53 -21q-31 0 -52.5 21t-21.5 52zM35 59q0 32 21.5 52.5t52.5 20.5q32 0 53 -20.5
t21 -52.5q0 -31 -21 -52t-53 -21q-31 0 -52.5 21t-21.5 52z" />
    <glyph glyph-name="perthousand" unicode="&#x2030;" horiz-adv-x="1020" 
d="M850 -8q-68 0 -110.5 42t-42.5 108q0 64 44 108t109 44q67 0 110.5 -43t43.5 -108q0 -64 -43.5 -107.5t-110.5 -43.5zM761 142q0 -40 25.5 -67.5t63.5 -27.5t63 27.5t25 67.5q0 42 -25 69.5t-63 27.5t-63.5 -27.5t-25.5 -69.5zM503 47q39 0 64 27.5t25 67.5
q0 42 -25.5 69.5t-63.5 27.5t-63.5 -27.5t-25.5 -69.5q0 -40 25.5 -67.5t63.5 -27.5zM350 142q0 64 44 108t109 44q67 0 110.5 -43t43.5 -108q0 -64 -43.5 -107.5t-110.5 -43.5q-68 0 -110.5 42t-42.5 108zM16 518q0 64 44 108t109 44q67 0 110.5 -43t43.5 -108
q0 -64 -44 -107.5t-110 -43.5q-68 0 -110.5 42t-42.5 108zM169 615q-38 0 -63.5 -27.5t-25.5 -69.5q0 -39 26 -67t63 -28q38 0 63 27.5t25 67.5q0 42 -25 69.5t-63 27.5zM541 662h71l-475 -662h-70z" />
    <glyph glyph-name="uni2032" unicode="&#x2032;" horiz-adv-x="188" 
d="M163 686v-4l-108 -256h-15l7 260h116z" />
    <glyph glyph-name="uni2033" unicode="&#x2033;" horiz-adv-x="346" 
d="M320 686v-4l-108 -256h-15l7 260h116zM163 686v-4l-108 -256h-15l7 260h116z" />
    <glyph glyph-name="guilsinglleft" unicode="&#x2039;" horiz-adv-x="257" 
d="M35 225v6l171 168l13 -7l-65 -164l65 -165l-12 -7z" />
    <glyph glyph-name="guilsinglright" unicode="&#x203a;" horiz-adv-x="257" 
d="M222 231v-6l-172 -169l-12 7l65 165l-65 164l13 7z" />
    <glyph glyph-name="fraction" unicode="&#x2044;" horiz-adv-x="509" 
d="M442 662h67l-443 -662h-66z" />
    <glyph glyph-name="Euro" unicode="&#x20ac;" horiz-adv-x="646" 
d="M433 -11q-125 0 -220.5 72.5t-114.5 205.5h-79v48h75v15q0 31 2 40h-77v49h85q27 111 114.5 182t215.5 71q69 0 160 -19v-156h-8q-103 117 -176 117q-47 0 -89.5 -54t-56.5 -141h210v-49h-215v-24q0 -20 1 -31h214v-48h-209q17 -103 68.5 -160t105.5 -57q51 0 93.5 38
t65.5 79h8v-139q-85 -39 -173 -39z" />
    <glyph glyph-name="trademark" unicode="&#x2122;" horiz-adv-x="724" 
d="M699 657l-32 -32v-216l32 -28v-6h-145v6l31 28v168l-100 -181h-14l-95 178v-165l33 -28v-6h-103v6l34 28v210l-28 37v6h109l85 -161l87 161h106v-5zM8 662h280v-80h-6l-44 48h-48v-222l36 -27v-6h-156v6l37 27v222h-50l-42 -49h-7v81z" />
    <glyph glyph-name="onethird" unicode="&#x2153;" horiz-adv-x="546" 
d="M24 365v5l38 32v192l-40 25v5q2 2 70 25.5t72 23.5v-271l37 -32v-5h-177zM460 662h67l-443 -662h-66zM331 151q36 22 52 37.5t16 32.5q0 30 -32 30q-18 0 -44 -15l-7 6q12 25 39 44t68 19q38 0 57 -14.5t19 -37.5q0 -45 -79 -67q3 0 7 0.5t6 0.5q43 0 68.5 -19.5
t25.5 -51.5q0 -48 -46.5 -80.5t-163.5 -43.5l-4 10q101 47 101 100q0 40 -54 40q-11 0 -25 -2z" />
    <glyph glyph-name="twothirds" unicode="&#x2154;" horiz-adv-x="603" 
d="M256 492h7v-127h-242v18q64 72 89 110t25 65q0 21 -12 33t-31 12q-29 0 -56 -27l-10 5q12 35 41.5 61.5t78.5 26.5q45 0 71 -21t26 -59q0 -73 -139 -153h109zM517 662h67l-443 -662h-66zM387 151q36 22 52 37.5t16 32.5q0 30 -32 30q-18 0 -44 -15l-7 6q12 25 39 44
t68 19q38 0 57 -14.5t19 -37.5q0 -45 -79 -67q3 0 7 0.5t6 0.5q43 0 68.5 -19.5t25.5 -51.5q0 -48 -46.5 -80.5t-163.5 -43.5l-4 10q101 47 101 100q0 40 -54 40q-11 0 -25 -2z" />
    <glyph glyph-name="oneeighth" unicode="&#x215b;" horiz-adv-x="587" 
d="M24 365v5l38 32v192l-40 25v5q2 2 70 25.5t72 23.5v-271l37 -32v-5h-177zM460 662h67l-443 -662h-66zM438 304q56 0 88 -18t32 -45q0 -39 -70 -63q47 -26 65 -47.5t18 -49.5q0 -38 -38 -63t-100 -25q-61 0 -95.5 19t-34.5 49q0 23 23 41.5t56 29.5q-70 37 -70 89
q0 38 36 60.5t90 22.5zM474 60q0 13 -11.5 25t-50.5 33q-24 -20 -24 -46q0 -40 46 -40q19 0 29.5 8t10.5 20zM401 245q0 -13 12.5 -24.5t47.5 -29.5q16 16 16 38q0 18 -11.5 28.5t-30.5 10.5q-34 0 -34 -23z" />
    <glyph glyph-name="threeeighths" unicode="&#x215c;" horiz-adv-x="584" 
d="M453 662h67l-443 -662h-66zM33 515q36 22 52 37.5t16 32.5q0 30 -32 30q-18 0 -44 -15l-7 6q12 25 39 44t68 19q38 0 57 -14.5t19 -37.5q0 -45 -79 -67q3 0 7 0.5t6 0.5q43 0 68.5 -19.5t25.5 -51.5q0 -48 -46.5 -80.5t-163.5 -43.5l-4 10q101 47 101 100q0 40 -54 40
q-11 0 -25 -2zM432 304q56 0 88 -18t32 -45q0 -39 -70 -63q47 -26 65 -47.5t18 -49.5q0 -38 -38 -63t-100 -25q-61 0 -95.5 19t-34.5 49q0 23 23 41.5t56 29.5q-70 37 -70 89q0 38 36 60.5t90 22.5zM468 60q0 13 -11.5 25t-50.5 33q-24 -20 -24 -46q0 -40 46 -40
q19 0 29.5 8t10.5 20zM395 245q0 -13 12.5 -24.5t47.5 -29.5q16 16 16 38q0 18 -11.5 28.5t-30.5 10.5q-34 0 -34 -23z" />
    <glyph glyph-name="fiveeighths" unicode="&#x215d;" horiz-adv-x="582" 
d="M451 662h67l-443 -662h-66zM233 662l-32 -76h-116l-6 -25q81 -5 115.5 -31t34.5 -58q0 -45 -49.5 -77t-158.5 -40l-4 10q100 43 100 78q0 33 -92 40q13 52 47 179h161zM429 304q56 0 88 -18t32 -45q0 -39 -70 -63q47 -26 65 -47.5t18 -49.5q0 -38 -38 -63t-100 -25
q-61 0 -95.5 19t-34.5 49q0 23 23 41.5t56 29.5q-70 37 -70 89q0 38 36 60.5t90 22.5zM465 60q0 13 -11.5 25t-50.5 33q-24 -20 -24 -46q0 -40 46 -40q19 0 29.5 8t10.5 20zM392 245q0 -13 12.5 -24.5t47.5 -29.5q16 16 16 38q0 18 -11.5 28.5t-30.5 10.5q-34 0 -34 -23z
" />
    <glyph glyph-name="seveneighths" unicode="&#x215e;" horiz-adv-x="558" 
d="M47 662h210v-5l-135 -292h-57l102 221h-156zM429 662h67l-443 -662h-66zM406 304q56 0 88 -18t32 -45q0 -39 -70 -63q47 -26 65 -47.5t18 -49.5q0 -38 -38 -63t-100 -25q-61 0 -95.5 19t-34.5 49q0 23 23 41.5t56 29.5q-70 37 -70 89q0 38 36 60.5t90 22.5zM442 60
q0 13 -11.5 25t-50.5 33q-24 -20 -24 -46q0 -40 46 -40q19 0 29.5 8t10.5 20zM369 245q0 -13 12.5 -24.5t47.5 -29.5q16 16 16 38q0 18 -11.5 28.5t-30.5 10.5q-34 0 -34 -23z" />
    <glyph glyph-name="minus" unicode="&#x2212;" horiz-adv-x="448" 
d="M38 221v53h372v-53h-372z" />
    <glyph glyph-name="uni24C5" unicode="&#x24c5;" horiz-adv-x="742" 
d="M371 629q-122 0 -203 -86.5t-81 -210.5q0 -122 83 -209.5t200 -87.5q122 0 203 86t81 211q0 121 -82.5 209t-200.5 88zM548 414q0 -56 -48.5 -84t-118.5 -31v12q64 27 64 92q0 34 -19 51.5t-49 17.5h-15v-263l50 -38v-5h-195v5l41 38v260l-41 35v6h191q65 0 102.5 -25.5
t37.5 -70.5zM371 674q141 0 240.5 -100.5t99.5 -241.5q0 -144 -98 -243t-242 -99q-145 0 -242.5 98.5t-97.5 243.5q0 144 98 243t242 99z" />
    <glyph glyph-name="W.001" horiz-adv-x="963" 
d="M543 671l163 -427l116 352l-72 61v5h204v-5l-61 -61l-198 -603h-34l-170 443l-165 -442h-33l-224 602l-60 61v5h292v-5l-72 -61l124 -351l156 426h34z" />
    <glyph glyph-name="w.001" horiz-adv-x="664" 
d="M255 33q-8 -18 -11 -26q-2 -5 -6 -13h-31l-6 15q-2 6 -8.5 19.5t-10.5 22.5l-138 326l-49 48v6h239v-6l-46 -48l72 -189l100 253h31l102 -251l63 187l-51 48v6h164v-6l-49 -48l-125 -348q-2 -5 -5.5 -13.5t-4.5 -10.5t-4 -11h-31q-6 15 -7 17q-2 5 -7.5 17t-8.5 18
l-86 204z" />
    <glyph glyph-name="acute.uc" 
d="M76 704l-4 8l217 140l41 -107z" />
    <glyph glyph-name="breve.uc" 
d="M200 701q-59 0 -91 41t-32 95l7 1q40 -58 116 -58t116 58l7 -1q0 -53 -32 -94.5t-91 -41.5z" />
    <glyph glyph-name="circumflex.uc" 
d="M201 854l152 -153l-4 -6l-148 50l-149 -50l-5 6z" />
    <glyph glyph-name="dieresis.uc" 
d="M96 701q-28 0 -47 18t-19 46t19 46.5t47 18.5q27 0 46 -19t19 -46t-19 -45.5t-46 -18.5zM370 765q0 -27 -19 -45.5t-46 -18.5t-46 18.5t-19 45.5q0 28 19 46.5t46 18.5t46 -18.5t19 -46.5z" />
    <glyph glyph-name="grave.uc" 
d="M324 704l-253 41l39 107l218 -140z" />
    <glyph glyph-name="macron.uc" 
d="M69 787h263v-73h-263v73z" />
    <glyph glyph-name="ring.uc" 
d="M153 781q0 -21 13 -35.5t34 -14.5q20 0 33.5 14.5t13.5 35.5t-13.5 35.5t-33.5 14.5q-21 0 -34 -14.5t-13 -35.5zM110 781q0 36 27 62.5t63 26.5t63 -26.5t27 -62.5q0 -37 -27 -63t-63 -26q-37 0 -63.5 25.5t-26.5 63.5z" />
    <glyph glyph-name="tilde.uc" 
d="M135 820q12 0 68 -9.5t71 -9.5q27 0 74 47l7 -2q-12 -50 -39 -89.5t-50 -39.5q-14 0 -69 9t-70 9q-27 0 -74 -47l-7 2q12 48 39.5 89t49.5 41z" />
    <glyph glyph-name="Cacute.pl" horiz-adv-x="669" 
d="M406 -11q-161 0 -268.5 92t-107.5 247q0 147 107.5 245.5t274.5 98.5q112 0 199 -25v-158h-8q-41 48 -101.5 86t-113.5 38q-74 0 -133 -76.5t-59 -191.5q0 -134 65 -215t151 -81q106 0 203 130h8v-149q-96 -41 -217 -41zM359 696l-8 1l7 185l120 -42z" />
    <glyph glyph-name="acute.ucpl" 
d="M162 696l-8 1l7 185l120 -42z" />
    <glyph glyph-name="acute.pl" 
d="M150 484l-8 1l10 225l110 -28z" />
    <glyph glyph-name="caron.uc" 
d="M52 851l149 -50l148 50l4 -6l-152 -153l-154 153z" />
    <glyph glyph-name="dotaccent.uc" 
d="M131 769q0 29 20 48.5t49 19.5t49.5 -19.5t20.5 -48.5t-20 -48t-50 -19q-29 0 -49 19t-20 48z" />
    <glyph glyph-name="space_uni0326" 
d="M268 -128q0 -46 -31 -82.5t-82 -57.5l-13 6q45 55 56 102q0 -1 -1 -1h-4q-26 0 -43 14t-17 37q0 26 18 40.5t46 14.5q31 0 51 -20t20 -53z" />
    <glyph glyph-name="K.001" horiz-adv-x="724" 
d="M26 0v6l71 60v530l-71 61v5h293v-5l-71 -61v-530l71 -60v-6h-293zM642 -8q-80 0 -122.5 28t-88.5 94l-155 219v6l222 257l-70 61v5h242v-5l-89 -60l-175 -196l159 -221q93 -131 155 -174v-6q-24 -8 -78 -8z" />
    <glyph glyph-name="Kcommaaccent.001" horiz-adv-x="724" 
d="M469 -128q0 -46 -31 -82.5t-82 -57.5l-13 6q45 55 56 102q0 -1 -1 -1h-4q-26 0 -43 14t-17 37q0 26 18 40.5t46 14.5q31 0 51 -20t20 -53zM26 0v6l71 60v530l-71 61v5h293v-5l-71 -61v-530l71 -60v-6h-293zM642 -8q-80 0 -122.5 28t-88.5 94l-155 219v6l222 257l-70 61v5
h242v-5l-89 -60l-175 -196l159 -221q93 -131 155 -174v-6q-24 -8 -78 -8z" />
    <glyph glyph-name="caron.alt" 
d="M139 499l14 216h106l-112 -216h-8z" />
    <glyph glyph-name="Nacute.pl" horiz-adv-x="775" 
d="M386 696l-8 1l7 185l120 -42zM754 662v-5l-71 -63v-594h-64l-451 497v-429l98 -62v-6h-241v6l72 62v506q-13 13 -33.5 34t-33 34t-13.5 15v5h208l387 -431v363l-92 63v5h234z" />
    <glyph glyph-name="Oacute.pl" horiz-adv-x="760" 
d="M359 696l-8 1l7 185l120 -42zM30 322q0 151 103.5 251.5t244.5 100.5q148 0 250 -92t102 -240q0 -154 -104 -254t-242 -100q-146 0 -250 92.5t-104 241.5zM195 330q0 -124 57 -202.5t130 -78.5t128.5 78.5t55.5 202.5q0 126 -58.5 205.5t-129.5 79.5q-72 0 -127.5 -80
t-55.5 -205z" />
    <glyph glyph-name="hungarumlaut.uc" 
d="M331 869l60 -82l-200 -84l-5 8zM13 703l-5 8l145 158l61 -82z" />
    <glyph glyph-name="Q.long" horiz-adv-x="760" 
d="M945 -229q-159 0 -394 96q-209 86 -338 157q-82 44 -132.5 119.5t-50.5 178.5q0 151 103.5 251.5t244.5 100.5q148 0 250 -92t102 -240q0 -111 -59 -199.5t-161 -130.5q153 -68 257 -101q179 -58 352 -58q103 0 174 21l4 -8q-47 -37 -144 -66t-208 -29zM194 330
q0 -124 57.5 -202.5t130.5 -78.5t128.5 78.5t55.5 202.5q0 126 -58.5 205.5t-129.5 79.5q-72 0 -128 -80t-56 -205z" />
    <glyph glyph-name="Sacute.pl" horiz-adv-x="491" 
d="M273 673q90 0 141 -17v-148h-7q-89 109 -151 109q-26 0 -46 -18.5t-20 -47.5q0 -39 21.5 -64t85.5 -73q88 -67 125 -114t37 -115q0 -84 -64 -139.5t-168 -55.5q-105 0 -181 37q-13 88 -8 212h9q81 -187 179 -187q37 0 62 25.5t25 66.5q0 43 -23 71.5t-86 74.5
q-79 58 -113.5 106.5t-34.5 106.5q0 80 60.5 125t156.5 45zM230 696l-8 1l7 185l120 -42z" />
    <glyph glyph-name="Wacute.001" horiz-adv-x="963" 
d="M406 704l-4 8l217 140l41 -107zM543 671l163 -427l116 352l-72 61v5h204v-5l-61 -61l-198 -603h-34l-170 443l-165 -442h-33l-224 602l-60 61v5h292v-5l-72 -61l124 -351l156 426h34z" />
    <glyph glyph-name="Wcircumflex.001" horiz-adv-x="963" 
d="M527 854l152 -153l-4 -6l-148 50l-149 -50l-5 6zM543 671l163 -427l116 352l-72 61v5h204v-5l-61 -61l-198 -603h-34l-170 443l-165 -442h-33l-224 602l-60 61v5h292v-5l-72 -61l124 -351l156 426h34z" />
    <glyph glyph-name="Wdieresis.001" horiz-adv-x="963" 
d="M543 671l163 -427l116 352l-72 61v5h204v-5l-61 -61l-198 -603h-34l-170 443l-165 -442h-33l-224 602l-60 61v5h292v-5l-72 -61l124 -351l156 426h34zM421 701q-28 0 -47 18t-19 46t19 46.5t47 18.5q27 0 46 -19t19 -46t-19 -45.5t-46 -18.5zM695 765q0 -27 -19 -45.5
t-46 -18.5t-46 18.5t-19 45.5q0 28 19 46.5t46 18.5t46 -18.5t19 -46.5z" />
    <glyph glyph-name="Wgrave.001" horiz-adv-x="963" 
d="M644 704l-253 41l39 107l218 -140zM543 671l163 -427l116 352l-72 61v5h204v-5l-61 -61l-198 -603h-34l-170 443l-165 -442h-33l-224 602l-60 61v5h292v-5l-72 -61l124 -351l156 426h34z" />
    <glyph glyph-name="Zacute.pl" horiz-adv-x="631" 
d="M220 61h262l109 147h7v-208h-574v9l365 597h-228l-102 -128h-7v184h538v-8zM306 696l-8 1l7 185l120 -42z" />
    <glyph glyph-name="ampersand.uc" horiz-adv-x="758" 
d="M757 434q-17 -9 -31 -19.5t-24.5 -18t-23 -23t-18 -22t-19 -29l-18 -30t-21.5 -39t-23 -42.5l-25 -42q67 -80 171 -80q39 0 57 6l2 -5q-33 -42 -82.5 -69.5t-104.5 -27.5q-73 0 -133 66q-83 -72 -195 -72q-113 0 -183 55.5t-70 139.5q0 70 49 122.5t123 81.5
q-38 41 -56 74.5t-18 72.5q0 57 54.5 99t131.5 42q71 0 120 -33t49 -83q0 -79 -123 -133q80 -87 169 -204q39 69 66 154l-71 59v6h247v-6zM424 111q-88 116 -205 243q-58 -50 -58 -129q0 -64 41.5 -106.5t111.5 -42.5q63 0 110 35zM238 569q0 -18 10.5 -36t21.5 -30t46 -47
l2 -3q43 39 43 94q0 37 -18.5 58t-46.5 21q-26 0 -42 -16.5t-16 -40.5z" />
    <glyph glyph-name="at.uc" horiz-adv-x="889" 
d="M585 150q82 18 138.5 81.5t56.5 174.5q0 53 -15 98t-47.5 83t-90.5 59.5t-136 21.5q-82 0 -153 -34.5t-116.5 -90t-71.5 -124.5t-26 -139q0 -152 90 -242t236 -90q163 0 296 110l14 -16q-21 -24 -47 -46.5t-67 -48t-98.5 -40.5t-121.5 -15q-173 0 -285 101t-112 266
q0 190 138.5 323.5t343.5 133.5q171 0 265.5 -83t94.5 -203q0 -106 -57 -182t-151.5 -110.5t-212.5 -27.5l26 127q-37 -51 -84 -88.5t-83 -37.5q-27 0 -50.5 29.5t-23.5 77.5q0 112 87.5 196t209.5 88l132 42zM376 199q15 0 46 25t65 67l34 165q-63 -4 -111 -75.5
t-48 -151.5q0 -30 14 -30z" />
    <glyph glyph-name="backslash.uc" horiz-adv-x="347" 
d="M18 745l52 14l259 -854l-51 -14z" />
    <glyph glyph-name="slash.uc" horiz-adv-x="346" 
d="M276 759l52 -14l-260 -854l-51 14z" />
    <glyph glyph-name="bar.uc" horiz-adv-x="261" 
d="M103 -109v858h55v-858h-55z" />
    <glyph glyph-name="braceleft.uc" horiz-adv-x="286" 
d="M162 27q0 -75 105 -127l-7 -10q-208 42 -208 152q0 34 37.5 106t37.5 97q0 68 -108 72v29q109 4 109 72q0 23 -38 93t-38 104q0 108 208 146l7 -10q-105 -46 -105 -121q0 -28 28 -98t28 -98q0 -36 -32.5 -64.5t-97.5 -37.5q66 -9 98 -38t32 -66q0 -29 -28 -101t-28 -100z
" />
    <glyph glyph-name="braceright.uc" horiz-adv-x="286" 
d="M124 27q0 28 -28 100t-28 101q0 37 32 66t98 38q-65 9 -97.5 37.5t-32.5 64.5q0 28 28 98t28 98q0 75 -105 121l7 10q208 -38 208 -146q0 -34 -38 -104t-38 -93q0 -68 109 -72v-29q-108 -4 -108 -72q0 -25 37.5 -97t37.5 -106q0 -110 -208 -152l-7 10q105 52 105 127z
" />
    <glyph glyph-name="bracketleft.uc" horiz-adv-x="279" 
d="M266 715h-84v-777h84v-34h-195v845h195v-34z" />
    <glyph glyph-name="bracketright.uc" horiz-adv-x="279" 
d="M96 715h-84v34h195v-845h-195v34h84v777z" />
    <glyph glyph-name="cacute.pl" horiz-adv-x="440" 
d="M279 444q68 0 123 -11v-133h-8q-93 87 -146 87q-36 0 -67 -40t-31 -100q0 -73 43 -118t118 -45q68 0 111 23l6 -7q-74 -110 -188 -110q-91 0 -154 59.5t-63 157.5q0 101 70.5 169t185.5 68zM226 484l-8 1l10 225l110 -28z" />
    <glyph glyph-name="space_uni0326.alt" 
d="M132 569q0 46 31.5 82t81.5 58l13 -7q-45 -57 -56 -101h1l1 1h3q27 0 43.5 -13.5t16.5 -36.5q0 -26 -18 -41t-46 -15q-31 0 -51 20t-20 53z" />
    <glyph glyph-name="divide.lin" horiz-adv-x="472" 
d="M169 129q0 28 19 47t48 19t48 -19t19 -47q0 -27 -19 -46t-48 -19t-48 19t-19 46zM169 458q0 29 19 48t48 19t48 -19t19 -48q0 -27 -19 -45.5t-48 -18.5t-48 18.5t-19 45.5zM38 323h396v-53h-396v53z" />
    <glyph glyph-name="eight.den" horiz-adv-x="290" 
d="M145 304q56 0 88 -18t32 -45q0 -39 -71 -63q47 -26 65.5 -47.5t18.5 -49.5q0 -37 -38.5 -62.5t-99.5 -25.5t-95.5 19t-34.5 49q0 45 80 72q-71 38 -71 88q0 38 36 60.5t90 22.5zM181 61q0 13 -11.5 25t-50.5 33q-24 -20 -24 -47q0 -39 46 -39q19 0 29.5 8t10.5 20z
M108 245q0 -12 12.5 -23.5t47.5 -29.5q16 14 16 37q0 19 -11.5 29.5t-30.5 10.5q-34 0 -34 -24z" />
    <glyph glyph-name="eight.lin" horiz-adv-x="522" 
d="M263 674q95 0 152.5 -40.5t57.5 -95.5q0 -90 -136 -158q88 -68 123 -112t35 -103q0 -73 -66 -125t-176 -52q-104 0 -167 41.5t-63 106.5q0 104 156 178q-75 54 -105 99t-30 99q0 73 64 117.5t155 44.5zM356 129q0 35 -28 67t-111 92q-65 -59 -65 -136q0 -44 29 -73.5
t75 -29.5q44 0 72 23t28 57zM176 550q0 -33 24.5 -59.5t102.5 -85.5q47 54 47 115q0 46 -25.5 72t-65.5 26q-36 0 -59.5 -19.5t-23.5 -48.5z" />
    <glyph glyph-name="eight.num" horiz-adv-x="290" 
d="M145 669q56 0 88 -18t32 -45q0 -39 -70 -63q47 -26 65 -47.5t18 -49.5q0 -38 -38 -63t-100 -25q-61 0 -95.5 19t-34.5 49q0 23 23 41.5t56 29.5q-70 37 -70 89q0 38 36 60.5t90 22.5zM181 425q0 13 -11.5 25t-50.5 33q-24 -20 -24 -46q0 -40 46 -40q19 0 29.5 8t10.5 20z
M108 610q0 -13 12.5 -24.5t47.5 -29.5q16 16 16 38q0 18 -11.5 28.5t-30.5 10.5q-34 0 -34 -23z" />
    <glyph glyph-name="eight.sub" horiz-adv-x="290" 
d="M145 195q56 0 88 -18t32 -45q0 -39 -70 -63q47 -26 65 -47.5t18 -49.5q0 -38 -38 -63t-100 -25q-61 0 -95.5 19t-34.5 49q0 23 23 41.5t56 29.5q-70 37 -70 89q0 38 36 60.5t90 22.5zM181 -49q0 13 -11.5 25t-50.5 33q-24 -20 -24 -46q0 -40 46 -40q19 0 29.5 8t10.5 20z
M108 136q0 -13 12.5 -24.5t47.5 -29.5q16 16 16 38q0 18 -11.5 28.5t-30.5 10.5q-34 0 -34 -23z" />
    <glyph glyph-name="eight.sup" horiz-adv-x="290" 
d="M145 722q56 0 88 -18t32 -45q0 -39 -70 -63q47 -26 65 -47.5t18 -49.5q0 -38 -38 -63t-100 -25q-61 0 -95.5 19t-34.5 49q0 23 23 41.5t56 29.5q-70 37 -70 89q0 38 36 60.5t90 22.5zM181 478q0 13 -11.5 25t-50.5 33q-24 -20 -24 -46q0 -40 46 -40q19 0 29.5 8t10.5 20z
M108 663q0 -13 12.5 -24.5t47.5 -29.5q16 16 16 38q0 18 -11.5 28.5t-30.5 10.5q-34 0 -34 -23z" />
    <glyph glyph-name="emdash.uc" horiz-adv-x="768" 
d="M45 338h678v-53h-678v53z" />
    <glyph glyph-name="endash.uc" horiz-adv-x="519" 
d="M45 338h429v-53h-429v53z" />
    <glyph glyph-name="equal.lin" horiz-adv-x="466" 
d="M44 212v52h374v-52h-374zM44 319v52h374v-52h-374z" />
    <glyph glyph-name="exclamdown.uc" horiz-adv-x="237" 
d="M40 0q7 45 19.5 128t27.5 186t21 145h21q6 -42 21 -145.5t27.5 -186t19.5 -127.5h-157zM192 603q0 -32 -21 -52.5t-53 -20.5t-53 20.5t-21 52.5q0 31 21 52t53 21t53 -21t21 -52z" />
    <glyph glyph-name="f.short" horiz-adv-x="339" 
d="M299 6v-6h-285v6l56 50v306h-74v6l74 57v28q0 113 79.5 188t194.5 75q43 0 85 -11l-43 -99q-2 1 -19.5 11.5t-23.5 14t-20 10.5t-23.5 9.5t-17.5 2.5q-24 0 -51 -39.5t-27 -107.5v-79h147l-47 -66h-100v-301z" />
    <glyph glyph-name="f_f.short" horiz-adv-x="617" 
d="M267 6v-6h-253v6l56 50v306h-74v6l74 57v25q0 112 78.5 187.5t185.5 75.5q34 0 74 -8l-40 -89q-60 36 -91 36q-24 0 -48.5 -38t-24.5 -108v-78h144v25q0 113 79.5 188t194.5 75q43 0 85 -11l-43 -99q-2 1 -19 11.5t-24 14t-20 10.5t-22.5 9.5t-17.5 2.5q-25 0 -51.5 -39
t-26.5 -108v-79h147l-46 -66h-101v-301l94 -55v-6h-285v6l56 50v306h-144v-305z" />
    <glyph glyph-name="f_f_k.001" horiz-adv-x="1102" 
d="M267 6v-6h-253v6l56 50v306h-74v6l74 57v25q0 112 78.5 187.5t185.5 75.5q34 0 74 -8l-40 -89q-60 36 -91 36q-24 0 -48.5 -38t-24.5 -108v-78h143v25q0 115 83 189t205 74q72 0 136 -16v-644l52 -50v-6h-241v6l54 50v588q-26 11 -46 11q-43 0 -75.5 -37.5t-32.5 -108.5
v-81h126l-44 -66h-82v-305l72 -51v-6h-263v6l56 50v306h-143v-305zM978 368l-74 -81l142 -231l55 -50v-6h-241v6l44 49l-96 151h-27l119 162l-60 58v5h241v-7z" />
    <glyph glyph-name="f_k.001" horiz-adv-x="822" 
d="M276 6v-6h-263v6l56 50v306h-74v6l74 57v28q0 115 83 189t205 74q70 0 136 -16v-644l52 -50v-6h-241v6l54 50v588q-26 11 -46 11q-43 0 -75.5 -37.5t-32.5 -108.5v-81h126l-45 -66h-81v-305zM530 206h-27l119 162l-60 58v5h241v-7l-103 -56l-74 -81l142 -231l55 -50v-6
h-241v6l44 49z" />
    <glyph glyph-name="five.den" horiz-adv-x="239" 
d="M225 298l-32 -76h-116l-6 -25q81 -5 115.5 -31t34.5 -58q0 -45 -49.5 -77t-158.5 -40l-4 10q100 43 100 78q0 33 -92 40q13 52 47 179h161z" />
    <glyph glyph-name="five.num" horiz-adv-x="238" 
d="M223 662l-32 -76h-116l-6 -25q81 -5 115.5 -31t34.5 -58q0 -45 -49.5 -77t-158.5 -40l-4 10q100 43 100 78q0 33 -92 40q13 52 47 179h161z" />
    <glyph glyph-name="five.lin" horiz-adv-x="431" 
d="M391 662l-49 -114h-213l-16 -64q138 -28 209 -89.5t71 -140.5q0 -88 -92.5 -165t-278.5 -109l-6 13q106 56 165 113t59 109q0 100 -207 149q3 12 36.5 140.5t40.5 157.5h281z" />
    <glyph glyph-name="five.sub" horiz-adv-x="239" 
d="M225 188l-32 -76h-116l-6 -25q81 -5 115.5 -31t34.5 -58q0 -45 -49.5 -77t-158.5 -40l-4 10q100 43 100 78q0 33 -92 40q13 52 47 179h161z" />
    <glyph glyph-name="five.sup" horiz-adv-x="239" 
d="M225 715l-32 -76h-116l-6 -25q81 -5 115.5 -31t34.5 -58q0 -45 -49.5 -77t-158.5 -40l-4 10q100 43 100 78q0 33 -92 40q13 52 47 179h161z" />
    <glyph glyph-name="four.den" horiz-adv-x="285" 
d="M264 5v-5h-169v5l37 31v36h-132v15l145 212h82v-173h61l-34 -54h-27v-36zM132 126v100l-68 -100h68z" />
    <glyph glyph-name="four.lin" horiz-adv-x="555" 
d="M493 6v-6h-288v6l70 60v110h-277v9l329 480h95v-394h126l-50 -95h-76v-110zM275 271v224l-151 -224h151z" />
    <glyph glyph-name="four.num" horiz-adv-x="287" 
d="M262 370v-5h-168v5l36 31v35h-132v16l145 212h83v-173h61l-34 -55h-27v-35zM130 491v98l-67 -98h67z" />
    <glyph glyph-name="four.sub" horiz-adv-x="285" 
d="M263 -104v-5h-168v5l36 31v35h-132v16l145 212h83v-173h61l-34 -55h-27v-35zM131 17v98l-67 -98h67z" />
    <glyph glyph-name="four.sup" horiz-adv-x="285" 
d="M263 423v-5h-168v5l36 31v35h-132v16l145 212h83v-173h61l-34 -55h-27v-35zM131 544v98l-67 -98h67z" />
    <glyph glyph-name="greater.lin" horiz-adv-x="435" 
d="M44 188l286 108l-286 109v55l352 -139v-51l-352 -137v55z" />
    <glyph glyph-name="guillemotleft.uc" horiz-adv-x="419" 
d="M367 120l-161 170v6l161 168l15 -6l-63 -166l63 -166zM35 290v6l161 168l14 -6l-62 -166l62 -166l-14 -6z" />
    <glyph glyph-name="guillemotright.uc" horiz-adv-x="419" 
d="M213 290l-161 -170l-15 6l63 166l-63 166l15 6l161 -168v-6zM384 296v-6l-161 -170l-14 6l62 166l-62 166l14 6z" />
    <glyph glyph-name="guilsinglleft.uc" horiz-adv-x="257" 
d="M35 290v6l171 168l13 -7l-65 -164l65 -165l-12 -7z" />
    <glyph glyph-name="guilsinglright.uc" horiz-adv-x="257" 
d="M222 296v-6l-172 -169l-12 7l65 165l-65 164l13 7z" />
    <glyph glyph-name="hyphen.uc" horiz-adv-x="282" 
d="M42 361h198v-102h-198v102z" />
    <glyph glyph-name="idotaccent" horiz-adv-x="272" 
d="M14 0v6l56 50v282l-54 43v6q79 32 188 59v-390l56 -50v-6h-246zM64 574q0 30 20.5 50t49.5 20q30 0 50.5 -20t20.5 -50q0 -29 -20.5 -48.5t-50.5 -19.5q-29 0 -49.5 19.5t-20.5 48.5z" />
    <glyph glyph-name="k.001" horiz-adv-x="531" 
d="M200 56l51 -50v-6h-240v6l55 50v550l-59 47v6q109 45 193 67v-670zM237 206h-27l119 162l-60 58v5h241v-7l-103 -56l-74 -80l143 -232l54 -50v-6h-241v6l44 49z" />
    <glyph glyph-name="kcommaaccent.001" horiz-adv-x="531" 
d="M346 -128q0 -46 -31 -82.5t-82 -57.5l-13 6q45 55 56 102q0 -1 -1 -1h-4q-26 0 -43 14t-17 37q0 26 18 40.5t46 14.5q31 0 51 -20t20 -53zM200 56l51 -50v-6h-240v6l55 50v550l-59 47v6q109 45 193 67v-670zM237 206h-27l119 162l-60 58v5h241v-7l-103 -56l-74 -80
l143 -232l54 -50v-6h-241v6l44 49z" />
    <glyph glyph-name="less.lin" horiz-adv-x="435" 
d="M390 133l-352 137v51l352 139v-55l-286 -109l286 -108v-55z" />
    <glyph glyph-name="minus.lin" horiz-adv-x="448" 
d="M38 271v53h372v-53h-372z" />
    <glyph glyph-name="multiply.lin" horiz-adv-x="416" 
d="M40 157l131 138l-131 138l40 39l129 -137l129 137l38 -37l-131 -138l131 -139l-38 -37l-131 136l-129 -136z" />
    <glyph glyph-name="nacute.pl" horiz-adv-x="556" 
d="M265 484l-8 1l10 225l110 -28zM14 0v6l56 50v282l-54 43v6q79 32 188 59v-80q81 77 153 77q58 0 96 -35.5t38 -69.5v-282l56 -50v-6h-244v6l54 50v243q0 23 -19.5 40.5t-55.5 17.5q-46 0 -78 -32v-269l55 -50v-6h-245z" />
    <glyph glyph-name="nine.den" horiz-adv-x="314" 
d="M68 4q67 43 95 86t28 96q0 39 -12.5 61.5t-28.5 22.5q-12 0 -21.5 -16.5t-9.5 -41.5q0 -23 12 -38t32 -15q7 0 8 1l2 -8q-8 -13 -28.5 -25.5t-46.5 -12.5q-37 0 -61 23t-24 61q0 46 38 76.5t96 30.5q64 0 108.5 -33.5t44.5 -91.5q0 -78 -61 -124.5t-166 -61.5z" />
    <glyph glyph-name="nine.num" horiz-adv-x="314" 
d="M68 368q67 43 95 86t28 96q0 39 -12.5 61.5t-28.5 22.5q-12 0 -21.5 -16.5t-9.5 -41.5q0 -23 12 -38t32 -15q7 0 8 1l2 -8q-8 -13 -28.5 -25.5t-46.5 -12.5q-37 0 -61 23t-24 61q0 46 38 76.5t96 30.5q64 0 108.5 -33.5t44.5 -91.5q0 -78 -61 -124.5t-166 -61.5z" />
    <glyph glyph-name="nine.lin" horiz-adv-x="559" 
d="M88 1q281 162 281 418q0 88 -36 148t-77 60q-31 0 -55.5 -39t-24.5 -97q0 -61 30.5 -96.5t76.5 -35.5q28 0 47 8l4 -7q-56 -74 -141 -74q-72 0 -120 48t-48 130q0 93 68.5 155t163.5 62q49 0 95.5 -17t86 -50t64 -87.5t24.5 -123.5q0 -89 -36 -163t-98 -124.5
t-137.5 -82.5t-160.5 -44z" />
    <glyph glyph-name="nine.sub" horiz-adv-x="314" 
d="M68 -106q67 43 95 86t28 96q0 39 -12.5 61.5t-28.5 22.5q-12 0 -21.5 -16.5t-9.5 -41.5q0 -23 12 -38t32 -15q7 0 8 1l2 -8q-8 -13 -28.5 -25.5t-46.5 -12.5q-37 0 -61 23t-24 61q0 46 38 76.5t96 30.5q64 0 108.5 -33.5t44.5 -91.5q0 -78 -61 -124.5t-166 -61.5z" />
    <glyph glyph-name="nine.sup" horiz-adv-x="314" 
d="M68 421q67 43 95 86t28 96q0 39 -12.5 61.5t-28.5 22.5q-12 0 -21.5 -16.5t-9.5 -41.5q0 -23 12 -38t32 -15q7 0 8 1l2 -8q-8 -13 -28.5 -25.5t-46.5 -12.5q-37 0 -61 23t-24 61q0 46 38 76.5t96 30.5q64 0 108.5 -33.5t44.5 -91.5q0 -78 -61 -124.5t-166 -61.5z" />
    <glyph glyph-name="oacute.pl" horiz-adv-x="521" 
d="M22 210q0 105 74 169t165 64q59 0 112 -23.5t90 -75.5t37 -123q0 -105 -75 -169t-167 -64q-91 0 -163.5 59t-72.5 163zM168 216q0 -73 28 -123t65 -50q36 0 64.5 51t28.5 122q0 74 -27.5 123.5t-65.5 49.5q-37 0 -65 -50.5t-28 -122.5zM246 484l-8 1l10 225l110 -28z" />
    <glyph glyph-name="one.den" horiz-adv-x="198" 
d="M13 1v5l38 32v192l-40 25v5q2 2 70 25.5t72 23.5v-271l37 -32v-5h-177z" />
    <glyph glyph-name="one.num" horiz-adv-x="198" 
d="M13 365v5l38 32v192l-40 25v5q2 2 70 25.5t72 23.5v-271l37 -32v-5h-177z" />
    <glyph glyph-name="one.lin" horiz-adv-x="350" 
d="M26 0v6l74 60v486l-75 41v6q6 3 110.5 40t115.5 40v-613l75 -60v-6h-300z" />
    <glyph glyph-name="one.sub" horiz-adv-x="198" 
d="M13 -109v5l38 32v192l-40 25v5q2 2 70 25.5t72 23.5v-271l37 -32v-5h-177z" />
    <glyph glyph-name="one.sup" horiz-adv-x="198" 
d="M13 418v5l38 32v192l-40 25v5q2 2 70 25.5t72 23.5v-271l37 -32v-5h-177z" />
    <glyph glyph-name="two.den" horiz-adv-x="276" 
d="M246 127h7v-127h-242v19q65 73 89.5 110t24.5 64q0 21 -12 33t-31 12q-29 0 -56 -27l-10 6q31 87 120 87q45 0 71 -21t26 -59q0 -73 -139 -152h109z" />
    <glyph glyph-name="three.den" horiz-adv-x="233" 
d="M23 150q36 22 52 37.5t16 33.5q0 29 -32 29q-23 0 -44 -15l-7 6q12 25 39 44t68 19q38 0 57 -14.5t19 -37.5q0 -43 -78 -67q3 1 12 1q43 0 68.5 -19.5t25.5 -51.5q0 -103 -210 -123l-4 9q101 47 101 100q0 40 -54 40q-11 0 -25 -2z" />
    <glyph glyph-name="parenleft.uc" horiz-adv-x="311" 
d="M176 335q0 -222 129 -436l-13 -6q-239 190 -239 442q0 73 22 142t59.5 122.5t76 92.5t81.5 70l13 -6q-59 -93 -94 -190t-35 -231z" />
    <glyph glyph-name="parenright.uc" horiz-adv-x="311" 
d="M137 335q0 134 -35 231t-94 190l13 6q43 -31 81.5 -70t76 -92.5t59.5 -122.5t22 -142q0 -252 -239 -442l-13 6q129 214 129 436z" />
    <glyph glyph-name="plus.lin" horiz-adv-x="477" 
d="M38 323h172v177h58v-177h171v-52h-171v-179h-58v179h-172v52z" />
    <glyph glyph-name="questiondown.uc" horiz-adv-x="374" 
d="M11 124q0 68 68 133q46 42 87 77q18 17 24.5 29.5t6.5 30.5q0 40 -4 65h19q70 -94 70 -143q0 -24 -35 -65l-69 -76q-34 -37 -34 -71q0 -29 17 -44.5t40 -15.5q55 0 135 104h8v-145q-61 -14 -132 -14q-93 0 -147 36.5t-54 98.5zM278 603q0 -32 -21.5 -52.5t-52.5 -20.5
q-32 0 -53 20.5t-21 52.5q0 31 21 52t53 21q31 0 52.5 -21t21.5 -52z" />
    <glyph glyph-name="sacute.pl" horiz-adv-x="366" 
d="M210 443q37 0 102 -13v-109h-6q-76 72 -116 72q-15 0 -25.5 -9.5t-10.5 -25.5q0 -20 14.5 -33.5t54.5 -39.5q40 -25 59 -39t38.5 -44.5t19.5 -67.5q0 -63 -50 -103.5t-131 -40.5q-61 0 -123 23q-8 51 -8 158h8q58 -122 129 -122q23 0 36.5 13t13.5 34q0 23 -15 38.5
t-55 41.5q-52 32 -77.5 64.5t-25.5 78.5q0 55 44.5 89.5t123.5 34.5zM170 484l-8 1l10 225l110 -28z" />
    <glyph glyph-name="seven.den" horiz-adv-x="252" 
d="M37 298h210v-5l-135 -292h-57l102 221h-156z" />
    <glyph glyph-name="seven.num" horiz-adv-x="251" 
d="M37 662h210v-5l-135 -292h-57l102 221h-156z" />
    <glyph glyph-name="seven.lin" horiz-adv-x="466" 
d="M52 662h408v-6l-283 -656h-75l235 548h-335z" />
    <glyph glyph-name="seven.sub" horiz-adv-x="252" 
d="M37 188h210v-5l-135 -292h-57l102 221h-156z" />
    <glyph glyph-name="seven.sup" horiz-adv-x="252" 
d="M37 715h210v-5l-135 -292h-57l102 221h-156z" />
    <glyph glyph-name="six.den" horiz-adv-x="313" 
d="M248 295q-69 -44 -96.5 -87.5t-27.5 -100.5q0 -36 12 -57t26 -21q13 0 22.5 16t9.5 41q0 24 -11 39.5t-31 15.5q-2 0 -5 -1h-3l-2 7q28 38 75 38q36 0 60 -21.5t24 -58.5q0 -51 -41 -81t-98 -30q-60 0 -103.5 33.5t-43.5 91.5q0 75 65 123.5t164 61.5z" />
    <glyph glyph-name="six.num" horiz-adv-x="313" 
d="M248 659q-69 -44 -96.5 -87.5t-27.5 -100.5q0 -36 12 -57t26 -21q13 0 22.5 16t9.5 41q0 24 -11 39.5t-31 15.5q-2 0 -5 -1h-3l-2 7q28 38 75 38q36 0 60 -21.5t24 -58.5q0 -51 -41 -81t-98 -30q-60 0 -103.5 33.5t-43.5 91.5q0 75 65 123.5t164 61.5z" />
    <glyph glyph-name="six.lin" horiz-adv-x="561" 
d="M478 669q-288 -156 -288 -429q0 -88 34 -143t75 -55q32 0 58 39.5t26 100.5q0 60 -29 94t-78 34q-28 0 -47 -8l-4 7q19 26 56.5 50t87.5 24q72 0 118.5 -44t46.5 -125q0 -103 -74.5 -164t-165.5 -61q-102 0 -182 72.5t-80 196.5q0 87 38 161.5t101.5 126.5t140 86.5
t159.5 48.5z" />
    <glyph glyph-name="six.sub" horiz-adv-x="313" 
d="M248 185q-69 -44 -96.5 -87.5t-27.5 -100.5q0 -36 12 -57t26 -21q13 0 22.5 16t9.5 41q0 24 -11 39.5t-31 15.5q-2 0 -5 -1h-3l-2 7q28 38 75 38q36 0 60 -21.5t24 -58.5q0 -51 -41 -81t-98 -30q-60 0 -103.5 33.5t-43.5 91.5q0 75 65 123.5t164 61.5z" />
    <glyph glyph-name="six.sup" horiz-adv-x="313" 
d="M248 712q-69 -44 -96.5 -87.5t-27.5 -100.5q0 -36 12 -57t26 -21q13 0 22.5 16t9.5 41q0 24 -11 39.5t-31 15.5h-5l-3 -1l-2 7q28 38 75 38q36 0 60 -21.5t24 -58.5q0 -51 -41 -81t-98 -30q-60 0 -103.5 33.5t-43.5 91.5q0 75 65 123.5t164 61.5z" />
    <glyph glyph-name="three.lin" horiz-adv-x="441" 
d="M66 343q76 52 109 91t33 79q0 33 -21 52t-57 19q-48 0 -96 -45l-10 6q9 20 22 39.5t35 40.5t55.5 34t74.5 13q67 0 103 -32t36 -82q0 -84 -128 -141q82 -2 134 -42t52 -117q0 -102 -96 -175.5t-291 -98.5l-5 12q234 112 234 238q0 52 -33 76.5t-84 24.5q-38 0 -59 -7z
" />
    <glyph glyph-name="three.num" horiz-adv-x="233" 
d="M23 515q36 22 52 37.5t16 32.5q0 30 -32 30q-18 0 -44 -15l-7 6q12 25 39 44t68 19q38 0 57 -14.5t19 -37.5q0 -45 -79 -67q3 0 7 0.5t6 0.5q43 0 68.5 -19.5t25.5 -51.5q0 -48 -46.5 -80.5t-163.5 -43.5l-4 10q101 47 101 100q0 40 -54 40q-11 0 -25 -2z" />
    <glyph glyph-name="three.sub" horiz-adv-x="233" 
d="M23 41q36 22 52 37.5t16 32.5q0 30 -32 30q-18 0 -44 -15l-7 6q12 25 39 44t68 19q38 0 57 -14.5t19 -37.5q0 -45 -79 -67q3 0 7 0.5t6 0.5q43 0 68.5 -19.5t25.5 -51.5q0 -48 -46.5 -80.5t-163.5 -43.5l-4 10q101 47 101 100q0 40 -54 40q-11 0 -25 -2z" />
    <glyph glyph-name="three.sup" horiz-adv-x="233" 
d="M23 568q36 22 52 37.5t16 32.5q0 30 -32 30q-18 0 -44 -15l-7 6q12 25 39 44t68 19q38 0 57 -14.5t19 -37.5q0 -45 -79 -67q3 0 7 0.5t6 0.5q43 0 68.5 -19.5t25.5 -51.5q0 -48 -46.5 -80.5t-163.5 -43.5l-4 10q101 47 101 100q0 40 -54 40q-11 0 -25 -2z" />
    <glyph glyph-name="two.lin" horiz-adv-x="507" 
d="M469 223h7v-223h-459v27q160 202 211.5 285.5t51.5 153.5q0 52 -30.5 81t-79.5 29q-62 0 -121 -59l-12 7q21 61 72.5 104.5t133.5 43.5q88 0 139.5 -49t51.5 -128q0 -46 -18 -89.5t-61 -92.5t-87.5 -90t-125.5 -109h248z" />
    <glyph glyph-name="two.num" horiz-adv-x="276" 
d="M246 492h7v-127h-242v18q64 72 89 110t25 65q0 21 -12 33t-31 12q-29 0 -56 -27l-10 5q12 35 41.5 61.5t78.5 26.5q45 0 71 -21t26 -59q0 -73 -139 -153h109z" />
    <glyph glyph-name="two.sub" horiz-adv-x="276" 
d="M246 18h7v-127h-242v18q64 72 89 110t25 65q0 21 -12 33t-31 12q-29 0 -56 -27l-10 5q12 35 41.5 61.5t78.5 26.5q45 0 71 -21t26 -59q0 -73 -139 -153h109z" />
    <glyph glyph-name="two.sup" horiz-adv-x="276" 
d="M246 545h7v-127h-242v18q64 72 89 110t25 65q0 21 -12 33t-31 12q-29 0 -56 -27l-10 5q12 35 41.5 61.5t78.5 26.5q45 0 71 -21t26 -59q0 -73 -139 -153h109z" />
    <glyph glyph-name="wacute.001" horiz-adv-x="664" 
d="M311 485l-8 5l93 223l96 -69zM255 33q-8 -18 -11 -26q-2 -5 -6 -13h-31l-6 15q-2 6 -8.5 19.5t-10.5 22.5l-138 326l-49 48v6h239v-6l-46 -48l72 -189l100 253h31l102 -251l63 187l-51 48v6h164v-6l-49 -48l-125 -348q-2 -5 -5.5 -13.5t-4.5 -10.5t-4 -11h-31
q-6 15 -7 17q-2 5 -7.5 17t-8.5 18l-86 204z" />
    <glyph glyph-name="wcircumflex.001" horiz-adv-x="664" 
d="M373 712l121 -229l-8 -5l-113 94l-113 -94l-8 5zM255 33q-8 -18 -11 -26q-2 -5 -6 -13h-31l-6 15q-2 6 -8.5 19.5t-10.5 22.5l-138 326l-49 48v6h239v-6l-46 -48l72 -189l100 253h31l102 -251l63 187l-51 48v6h164v-6l-49 -48l-125 -348q-2 -5 -5.5 -13.5t-4.5 -10.5
t-4 -11h-31q-6 15 -7 17q-2 5 -7.5 17t-8.5 18l-86 204z" />
    <glyph glyph-name="wdieresis.001" horiz-adv-x="664" 
d="M462 635q26 0 44.5 -18.5t18.5 -46.5q0 -27 -18 -44.5t-45 -17.5q-28 0 -46.5 17.5t-18.5 44.5q0 28 18.5 46.5t46.5 18.5zM277 635q27 0 45.5 -18.5t18.5 -46.5q0 -27 -18.5 -45t-45.5 -18q-28 0 -46 18t-18 45q0 28 18 46.5t46 18.5zM255 33q-8 -18 -11 -26
q-2 -5 -6 -13h-31l-6 15q-2 6 -8.5 19.5t-10.5 22.5l-138 326l-49 48v6h239v-6l-46 -48l72 -189l100 253h31l102 -251l63 187l-51 48v6h164v-6l-49 -48l-125 -348q-2 -5 -5.5 -13.5t-4.5 -10.5t-4 -11h-31q-6 15 -7 17q-2 5 -7.5 17t-8.5 18l-86 204z" />
    <glyph glyph-name="wgrave.001" horiz-adv-x="664" 
d="M255 33q-8 -18 -11 -26q-2 -5 -6 -13h-31l-6 15q-2 6 -8.5 19.5t-10.5 22.5l-138 326l-49 48v6h239v-6l-46 -48l72 -189l100 253h31l102 -251l63 187l-51 48v6h164v-6l-49 -48l-125 -348q-2 -5 -5.5 -13.5t-4.5 -10.5t-4 -11h-31q-6 15 -7 17q-2 5 -7.5 17t-8.5 18
l-86 204zM430 487l-181 158l96 70l93 -224z" />
    <glyph glyph-name="zacute.pl" horiz-adv-x="426" 
d="M405 145v-145h-391v14l217 366h-116l-77 -82h-6v133h363v-14l-217 -361h136l85 89h6zM203 484l-8 1l10 225l110 -28z" />
    <glyph glyph-name="zero.den" horiz-adv-x="349" 
d="M125 149q0 -49 16 -81.5t36 -32.5t33 31.5t13 82.5q0 50 -15.5 82t-34.5 32t-33.5 -32t-14.5 -82zM15 145q0 69 47.5 114.5t110.5 45.5q68 0 114 -40.5t46 -107.5q0 -75 -47.5 -119t-110.5 -44q-65 0 -112.5 41t-47.5 110z" />
    <glyph glyph-name="zero.num" horiz-adv-x="349" 
d="M125 513q0 -49 16 -81.5t36 -32.5t33 31.5t13 82.5q0 50 -15.5 82t-34.5 32t-33.5 -32t-14.5 -82zM15 509q0 69 47.5 114.5t110.5 45.5q68 0 114 -40.5t46 -107.5q0 -75 -47.5 -119t-110.5 -44q-65 0 -112.5 41t-47.5 110z" />
    <glyph glyph-name="zero.lin" horiz-adv-x="652" 
d="M195 330q0 -123 41 -201.5t92 -78.5t90 78t39 202t-41 204.5t-92 80.5q-50 0 -89.5 -80.5t-39.5 -204.5zM34 322q0 148 87 250t203 102q121 0 207.5 -93.5t86.5 -238.5q0 -153 -87 -253.5t-201 -100.5q-120 0 -208 94t-88 240z" />
    <glyph glyph-name="zero.sub" horiz-adv-x="349" 
d="M125 39q0 -49 16 -81.5t36 -32.5t33 31.5t13 82.5q0 50 -15.5 82t-34.5 32t-33.5 -32t-14.5 -82zM15 35q0 69 47.5 114.5t110.5 45.5q68 0 114 -40.5t46 -107.5q0 -75 -47.5 -119t-110.5 -44q-65 0 -112.5 41t-47.5 110z" />
    <glyph glyph-name="zero.sup" horiz-adv-x="349" 
d="M125 566q0 -49 16 -81.5t36 -32.5t33 31.5t13 82.5q0 50 -15.5 82t-34.5 32t-33.5 -32t-14.5 -82zM15 562q0 69 47.5 114.5t110.5 45.5q68 0 114 -40.5t46 -107.5q0 -75 -47.5 -119t-110.5 -44q-65 0 -112.5 41t-47.5 110z" />
    <glyph glyph-name="ligature" horiz-adv-x="0" 
 />
    <glyph glyph-name="component" horiz-adv-x="0" 
 />
    </font>
</defs>
</svg>
